M48
; DRILL file {KiCad 9.0.6} date 2026-02-06T21:04:55-0500
; FORMAT={-:-/ absolute / metric / decimal}
; #@! TF.CreationDate,2026-02-06T21:04:55-05:00
; #@! TF.GenerationSoftware,Kicad,Pcbnew,9.0.6
; #@! TF.FileFunction,Plated,1,2,PTH
FMAT,2
METRIC
; #@! TA.AperFunction,Plated,PTH,ViaDrill
T1C0.300
; #@! TA.AperFunction,Plated,PTH,ComponentDrill
T2C0.600
; #@! TA.AperFunction,Plated,PTH,ComponentDrill
T3C1.000
%
G90
G05
T1
X134.275Y-118.3
X134.3Y-92.125
X134.725Y-112.475
X134.95Y-83.8
X135.197Y-105.6
X135.95Y-112.35
X136.116Y-109.35
X136.339Y-108.666
X136.549Y-107.948
X136.691Y-112.059
X136.9Y-117.325
X137.2Y-107.535
X137.5Y-105.044
X137.847Y-106.625
X138.0Y-83.225
X138.946Y-110.811
X139.049Y-112.093
X139.925Y-82.975
X140.2Y-87.675
X140.35Y-108.475
X140.35Y-113.0
X140.7Y-121.725
X140.85Y-78.75
X141.5Y-110.5
X141.626Y-112.55
X141.675Y-87.675
X141.9Y-106.325
X142.0Y-102.2
X142.0Y-103.35
X142.225Y-99.4
X142.824Y-112.55
X142.844Y-103.119
X143.55Y-95.9
X143.64Y-111.518
X143.975Y-108.4
X144.013Y-112.111
X144.05Y-109.922
X144.409Y-114.859
X144.475Y-121.75
X144.5Y-87.3
X144.675Y-103.7
X145.025Y-115.25
X145.35Y-98.75
X145.625Y-85.775
X145.775Y-95.725
X145.975Y-82.95
X146.325Y-119.225
X146.346Y-104.897
X146.745Y-104.182
X147.351Y-109.676
X147.525Y-116.625
X147.846Y-109.181
X148.287Y-90.625
X148.5Y-86.875
X148.689Y-107.756
X149.173Y-111.38
T3
X132.61Y-76.37
X132.61Y-78.91
X132.61Y-81.45
X132.61Y-83.99
X132.61Y-86.53
X132.61Y-89.07
X132.61Y-91.61
X132.61Y-94.15
X132.61Y-96.69
X132.61Y-99.23
X132.61Y-101.77
X132.61Y-104.31
X132.61Y-106.85
X132.61Y-109.39
X132.61Y-111.93
X132.61Y-114.47
X132.61Y-117.01
X132.61Y-119.55
X132.61Y-122.09
X132.61Y-124.63
X138.96Y-124.39
X139.21Y-94.25
X141.5Y-124.39
X141.75Y-94.25
X144.04Y-124.39
X144.29Y-94.25
X150.39Y-76.37
X150.39Y-78.91
X150.39Y-81.45
X150.39Y-83.99
X150.39Y-86.53
X150.39Y-89.07
X150.39Y-91.61
X150.39Y-94.15
X150.39Y-96.69
X150.39Y-99.23
X150.39Y-101.77
X150.39Y-104.31
X150.39Y-106.85
X150.39Y-109.39
X150.39Y-111.93
X150.39Y-114.47
X150.39Y-117.01
X150.39Y-119.55
X150.39Y-122.09
X150.39Y-124.63
T2
G00X137.18Y-76.75
M15
G01X137.18Y-76.15
M16
G05
G00X137.18Y-81.18
M15
G01X137.18Y-80.08
M16
G05
G00X145.82Y-76.75
M15
G01X145.82Y-76.15
M16
G05
G00X145.82Y-81.18
M15
G01X145.82Y-80.08
M16
G05
M30
