%TF.GenerationSoftware,KiCad,Pcbnew,9.0.6*%
%TF.CreationDate,2026-02-06T21:04:51-05:00*%
%TF.ProjectId,microcontrollerinator,6d696372-6f63-46f6-9e74-726f6c6c6572,rev?*%
%TF.SameCoordinates,Original*%
%TF.FileFunction,Paste,Top*%
%TF.FilePolarity,Positive*%
%FSLAX46Y46*%
G04 Gerber Fmt 4.6, Leading zero omitted, Abs format (unit mm)*
G04 Created by KiCad (PCBNEW 9.0.6) date 2026-02-06 21:04:51*
%MOMM*%
%LPD*%
G01*
G04 APERTURE LIST*
G04 Aperture macros list*
%AMRoundRect*
0 Rectangle with rounded corners*
0 $1 Rounding radius*
0 $2 $3 $4 $5 $6 $7 $8 $9 X,Y pos of 4 corners*
0 Add a 4 corners polygon primitive as box body*
4,1,4,$2,$3,$4,$5,$6,$7,$8,$9,$2,$3,0*
0 Add four circle primitives for the rounded corners*
1,1,$1+$1,$2,$3*
1,1,$1+$1,$4,$5*
1,1,$1+$1,$6,$7*
1,1,$1+$1,$8,$9*
0 Add four rect primitives between the rounded corners*
20,1,$1+$1,$2,$3,$4,$5,0*
20,1,$1+$1,$4,$5,$6,$7,0*
20,1,$1+$1,$6,$7,$8,$9,0*
20,1,$1+$1,$8,$9,$2,$3,0*%
G04 Aperture macros list end*
%ADD10RoundRect,0.140000X0.170000X-0.140000X0.170000X0.140000X-0.170000X0.140000X-0.170000X-0.140000X0*%
%ADD11RoundRect,0.140000X-0.140000X-0.170000X0.140000X-0.170000X0.140000X0.170000X-0.140000X0.170000X0*%
%ADD12RoundRect,0.050000X-0.050000X-0.387500X0.050000X-0.387500X0.050000X0.387500X-0.050000X0.387500X0*%
%ADD13RoundRect,0.050000X-0.387500X-0.050000X0.387500X-0.050000X0.387500X0.050000X-0.387500X0.050000X0*%
%ADD14RoundRect,0.249999X-0.395001X-0.395001X0.395001X-0.395001X0.395001X0.395001X-0.395001X0.395001X0*%
%ADD15RoundRect,0.250000X0.450000X0.350000X-0.450000X0.350000X-0.450000X-0.350000X0.450000X-0.350000X0*%
%ADD16RoundRect,0.200000X-0.800000X0.200000X-0.800000X-0.200000X0.800000X-0.200000X0.800000X0.200000X0*%
%ADD17RoundRect,0.140000X-0.170000X0.140000X-0.170000X-0.140000X0.170000X-0.140000X0.170000X0.140000X0*%
%ADD18RoundRect,0.140000X0.021213X-0.219203X0.219203X-0.021213X-0.021213X0.219203X-0.219203X0.021213X0*%
%ADD19RoundRect,0.135000X-0.185000X0.135000X-0.185000X-0.135000X0.185000X-0.135000X0.185000X0.135000X0*%
%ADD20RoundRect,0.135000X0.185000X-0.135000X0.185000X0.135000X-0.185000X0.135000X-0.185000X-0.135000X0*%
%ADD21RoundRect,0.150000X0.150000X-0.587500X0.150000X0.587500X-0.150000X0.587500X-0.150000X-0.587500X0*%
%ADD22RoundRect,0.225000X0.225000X0.250000X-0.225000X0.250000X-0.225000X-0.250000X0.225000X-0.250000X0*%
%ADD23R,0.600000X1.450000*%
%ADD24R,0.300000X1.450000*%
%ADD25RoundRect,0.040000X-0.040000X-0.605000X0.040000X-0.605000X0.040000X0.605000X-0.040000X0.605000X0*%
%ADD26RoundRect,0.062500X-0.387500X-0.062500X0.387500X-0.062500X0.387500X0.062500X-0.387500X0.062500X0*%
%ADD27RoundRect,0.218750X0.256250X-0.218750X0.256250X0.218750X-0.256250X0.218750X-0.256250X-0.218750X0*%
%ADD28RoundRect,0.140000X0.140000X0.170000X-0.140000X0.170000X-0.140000X-0.170000X0.140000X-0.170000X0*%
%ADD29RoundRect,0.150000X0.150000X-0.512500X0.150000X0.512500X-0.150000X0.512500X-0.150000X-0.512500X0*%
%ADD30RoundRect,0.135000X-0.135000X-0.185000X0.135000X-0.185000X0.135000X0.185000X-0.135000X0.185000X0*%
%ADD31RoundRect,0.225000X0.250000X-0.225000X0.250000X0.225000X-0.250000X0.225000X-0.250000X-0.225000X0*%
%ADD32RoundRect,0.147500X0.172500X-0.147500X0.172500X0.147500X-0.172500X0.147500X-0.172500X-0.147500X0*%
%ADD33RoundRect,0.150000X-0.587500X-0.150000X0.587500X-0.150000X0.587500X0.150000X-0.587500X0.150000X0*%
%ADD34RoundRect,0.135000X0.135000X0.185000X-0.135000X0.185000X-0.135000X-0.185000X0.135000X-0.185000X0*%
G04 APERTURE END LIST*
D10*
%TO.C,C1*%
X135875000Y-106295000D03*
X135875000Y-107255000D03*
%TD*%
D11*
%TO.C,C19*%
X143730000Y-85250000D03*
X144690000Y-85250000D03*
%TD*%
%TO.C,C18*%
X142560000Y-87000000D03*
X143520000Y-87000000D03*
%TD*%
D10*
%TO.C,C17*%
X140600000Y-101230000D03*
X140600000Y-100270000D03*
%TD*%
D12*
%TO.C,U1*%
X138900000Y-107062500D03*
X139300000Y-107062500D03*
X139700000Y-107062500D03*
X140100000Y-107062500D03*
X140500000Y-107062500D03*
X140900000Y-107062500D03*
X141300000Y-107062500D03*
X141700000Y-107062500D03*
X142100000Y-107062500D03*
X142500000Y-107062500D03*
X142900000Y-107062500D03*
X143300000Y-107062500D03*
X143700000Y-107062500D03*
X144100000Y-107062500D03*
D13*
X144937500Y-107900000D03*
X144937500Y-108300000D03*
X144937500Y-108700000D03*
X144937500Y-109100000D03*
X144937500Y-109500000D03*
X144937500Y-109900000D03*
X144937500Y-110300000D03*
X144937500Y-110700000D03*
X144937500Y-111100000D03*
X144937500Y-111500000D03*
X144937500Y-111900000D03*
X144937500Y-112300000D03*
X144937500Y-112700000D03*
X144937500Y-113100000D03*
D12*
X144100000Y-113937500D03*
X143700000Y-113937500D03*
X143300000Y-113937500D03*
X142900000Y-113937500D03*
X142500000Y-113937500D03*
X142100000Y-113937500D03*
X141700000Y-113937500D03*
X141300000Y-113937500D03*
X140900000Y-113937500D03*
X140500000Y-113937500D03*
X140100000Y-113937500D03*
X139700000Y-113937500D03*
X139300000Y-113937500D03*
X138900000Y-113937500D03*
D13*
X138062500Y-113100000D03*
X138062500Y-112700000D03*
X138062500Y-112300000D03*
X138062500Y-111900000D03*
X138062500Y-111500000D03*
X138062500Y-111100000D03*
X138062500Y-110700000D03*
X138062500Y-110300000D03*
X138062500Y-109900000D03*
X138062500Y-109500000D03*
X138062500Y-109100000D03*
X138062500Y-108700000D03*
X138062500Y-108300000D03*
X138062500Y-107900000D03*
D14*
X142300000Y-111300000D03*
X142300000Y-109700000D03*
X140700000Y-111300000D03*
X140700000Y-109700000D03*
%TD*%
D15*
%TO.C,Y1*%
X142250000Y-117500000D03*
X140050000Y-117500000D03*
X140050000Y-119200000D03*
X142250000Y-119200000D03*
%TD*%
D16*
%TO.C,SW1*%
X138000000Y-97150000D03*
X138000000Y-101350000D03*
%TD*%
D17*
%TO.C,C16*%
X143750000Y-118040000D03*
X143750000Y-119000000D03*
%TD*%
D10*
%TO.C,C5*%
X145200000Y-105380000D03*
X145200000Y-104420000D03*
%TD*%
D18*
%TO.C,C3*%
X142700000Y-101550000D03*
X143378822Y-100871178D03*
%TD*%
%TO.C,C4*%
X146010589Y-106189411D03*
X146689411Y-105510589D03*
%TD*%
D17*
%TO.C,C8*%
X143850000Y-116050000D03*
X143850000Y-117010000D03*
%TD*%
D19*
%TO.C,R6*%
X135650000Y-100625000D03*
X135650000Y-101645000D03*
%TD*%
%TO.C,R11*%
X144850000Y-97030000D03*
X144850000Y-98050000D03*
%TD*%
D20*
%TO.C,R2*%
X135625000Y-77375000D03*
X135625000Y-76355000D03*
%TD*%
D18*
%TO.C,C2*%
X143350000Y-102200000D03*
X144028822Y-101521178D03*
%TD*%
D21*
%TO.C,U2*%
X137050000Y-89140000D03*
X138950000Y-89140000D03*
X138000000Y-87265000D03*
%TD*%
D20*
%TO.C,R1*%
X147350000Y-77350000D03*
X147350000Y-76330000D03*
%TD*%
D10*
%TO.C,C11*%
X141200000Y-103260000D03*
X141200000Y-102300000D03*
%TD*%
D22*
%TO.C,C14*%
X138800000Y-91015000D03*
X137250000Y-91015000D03*
%TD*%
D17*
%TO.C,C10*%
X144850000Y-116040000D03*
X144850000Y-117000000D03*
%TD*%
D23*
%TO.C,J1*%
X144750000Y-81545000D03*
X143950000Y-81545000D03*
D24*
X142750000Y-81545000D03*
X141750000Y-81545000D03*
X141250000Y-81545000D03*
X140250000Y-81545000D03*
D23*
X139050000Y-81545000D03*
X138250000Y-81545000D03*
X138250000Y-81545000D03*
X139050000Y-81545000D03*
D24*
X139750000Y-81545000D03*
X140750000Y-81545000D03*
X142250000Y-81545000D03*
X143250000Y-81545000D03*
D23*
X143950000Y-81545000D03*
X144750000Y-81545000D03*
%TD*%
D25*
%TO.C,U3*%
X138075000Y-103500000D03*
D26*
X136650000Y-102750000D03*
X136650000Y-103250000D03*
X136650000Y-103750000D03*
X136650000Y-104250000D03*
X139500000Y-104250000D03*
X139500000Y-103750000D03*
X139500000Y-103250000D03*
X139500000Y-102750000D03*
%TD*%
D27*
%TO.C,D2*%
X144000000Y-91500000D03*
X144000000Y-89925000D03*
%TD*%
D28*
%TO.C,C9*%
X135810000Y-111500000D03*
X134850000Y-111500000D03*
%TD*%
D29*
%TO.C,U4*%
X140550000Y-91137500D03*
X141500000Y-91137500D03*
X142450000Y-91137500D03*
X142450000Y-88862500D03*
X141500000Y-88862500D03*
X140550000Y-88862500D03*
%TD*%
D30*
%TO.C,R9*%
X143740000Y-88500000D03*
X144760000Y-88500000D03*
%TD*%
D31*
%TO.C,C13*%
X136500000Y-86540000D03*
X136500000Y-84990000D03*
%TD*%
D20*
%TO.C,R8*%
X145500000Y-91722500D03*
X145500000Y-90702500D03*
%TD*%
%TO.C,R12*%
X145900000Y-98040000D03*
X145900000Y-97020000D03*
%TD*%
D10*
%TO.C,C12*%
X144200000Y-105460000D03*
X144200000Y-104500000D03*
%TD*%
D32*
%TO.C,D1*%
X138000000Y-85500000D03*
X138000000Y-84530000D03*
%TD*%
D18*
%TO.C,C6*%
X146360589Y-107239411D03*
X147039411Y-106560589D03*
%TD*%
D11*
%TO.C,C7*%
X147090000Y-111500000D03*
X148050000Y-111500000D03*
%TD*%
D17*
%TO.C,C15*%
X138500000Y-118020000D03*
X138500000Y-118980000D03*
%TD*%
D33*
%TO.C,Q1*%
X140000000Y-84550000D03*
X140000000Y-86450000D03*
X141875000Y-85500000D03*
%TD*%
D20*
%TO.C,R4*%
X143200000Y-105560000D03*
X143200000Y-104540000D03*
%TD*%
D19*
%TO.C,R3*%
X142200000Y-104540000D03*
X142200000Y-105560000D03*
%TD*%
D20*
%TO.C,R10*%
X143650000Y-97770000D03*
X143650000Y-96750000D03*
%TD*%
D19*
%TO.C,R7*%
X135650000Y-98715000D03*
X135650000Y-99735000D03*
%TD*%
D34*
%TO.C,R5*%
X142250000Y-116000000D03*
X141230000Y-116000000D03*
%TD*%
M02*
