%TF.GenerationSoftware,KiCad,Pcbnew,9.0.6*%
%TF.CreationDate,2026-02-06T21:04:51-05:00*%
%TF.ProjectId,microcontrollerinator,6d696372-6f63-46f6-9e74-726f6c6c6572,rev?*%
%TF.SameCoordinates,Original*%
%TF.FileFunction,Legend,Top*%
%TF.FilePolarity,Positive*%
%FSLAX46Y46*%
G04 Gerber Fmt 4.6, Leading zero omitted, Abs format (unit mm)*
G04 Created by KiCad (PCBNEW 9.0.6) date 2026-02-06 21:04:51*
%MOMM*%
%LPD*%
G01*
G04 APERTURE LIST*
%ADD10C,0.100000*%
%ADD11C,0.200000*%
%ADD12C,0.150000*%
%ADD13C,0.120000*%
G04 APERTURE END LIST*
D10*
X145878884Y-94241466D02*
X146640789Y-94241466D01*
X146259836Y-94622419D02*
X146259836Y-93860514D01*
X136528884Y-94216466D02*
X137290789Y-94216466D01*
D11*
X148456028Y-104386279D02*
X146956028Y-104386279D01*
X146956028Y-104386279D02*
X148027457Y-103886279D01*
X148027457Y-103886279D02*
X146956028Y-103386279D01*
X146956028Y-103386279D02*
X148456028Y-103386279D01*
X148456028Y-102671993D02*
X147456028Y-102671993D01*
X146956028Y-102671993D02*
X147027457Y-102743421D01*
X147027457Y-102743421D02*
X147098885Y-102671993D01*
X147098885Y-102671993D02*
X147027457Y-102600564D01*
X147027457Y-102600564D02*
X146956028Y-102671993D01*
X146956028Y-102671993D02*
X147098885Y-102671993D01*
X148384600Y-101314850D02*
X148456028Y-101457707D01*
X148456028Y-101457707D02*
X148456028Y-101743421D01*
X148456028Y-101743421D02*
X148384600Y-101886278D01*
X148384600Y-101886278D02*
X148313171Y-101957707D01*
X148313171Y-101957707D02*
X148170314Y-102029135D01*
X148170314Y-102029135D02*
X147741742Y-102029135D01*
X147741742Y-102029135D02*
X147598885Y-101957707D01*
X147598885Y-101957707D02*
X147527457Y-101886278D01*
X147527457Y-101886278D02*
X147456028Y-101743421D01*
X147456028Y-101743421D02*
X147456028Y-101457707D01*
X147456028Y-101457707D02*
X147527457Y-101314850D01*
X148456028Y-100671993D02*
X147456028Y-100671993D01*
X147741742Y-100671993D02*
X147598885Y-100600564D01*
X147598885Y-100600564D02*
X147527457Y-100529136D01*
X147527457Y-100529136D02*
X147456028Y-100386278D01*
X147456028Y-100386278D02*
X147456028Y-100243421D01*
X148456028Y-99529136D02*
X148384600Y-99671993D01*
X148384600Y-99671993D02*
X148313171Y-99743422D01*
X148313171Y-99743422D02*
X148170314Y-99814850D01*
X148170314Y-99814850D02*
X147741742Y-99814850D01*
X147741742Y-99814850D02*
X147598885Y-99743422D01*
X147598885Y-99743422D02*
X147527457Y-99671993D01*
X147527457Y-99671993D02*
X147456028Y-99529136D01*
X147456028Y-99529136D02*
X147456028Y-99314850D01*
X147456028Y-99314850D02*
X147527457Y-99171993D01*
X147527457Y-99171993D02*
X147598885Y-99100565D01*
X147598885Y-99100565D02*
X147741742Y-99029136D01*
X147741742Y-99029136D02*
X148170314Y-99029136D01*
X148170314Y-99029136D02*
X148313171Y-99100565D01*
X148313171Y-99100565D02*
X148384600Y-99171993D01*
X148384600Y-99171993D02*
X148456028Y-99314850D01*
X148456028Y-99314850D02*
X148456028Y-99529136D01*
X148384600Y-97743422D02*
X148456028Y-97886279D01*
X148456028Y-97886279D02*
X148456028Y-98171993D01*
X148456028Y-98171993D02*
X148384600Y-98314850D01*
X148384600Y-98314850D02*
X148313171Y-98386279D01*
X148313171Y-98386279D02*
X148170314Y-98457707D01*
X148170314Y-98457707D02*
X147741742Y-98457707D01*
X147741742Y-98457707D02*
X147598885Y-98386279D01*
X147598885Y-98386279D02*
X147527457Y-98314850D01*
X147527457Y-98314850D02*
X147456028Y-98171993D01*
X147456028Y-98171993D02*
X147456028Y-97886279D01*
X147456028Y-97886279D02*
X147527457Y-97743422D01*
X148456028Y-96886279D02*
X148384600Y-97029136D01*
X148384600Y-97029136D02*
X148313171Y-97100565D01*
X148313171Y-97100565D02*
X148170314Y-97171993D01*
X148170314Y-97171993D02*
X147741742Y-97171993D01*
X147741742Y-97171993D02*
X147598885Y-97100565D01*
X147598885Y-97100565D02*
X147527457Y-97029136D01*
X147527457Y-97029136D02*
X147456028Y-96886279D01*
X147456028Y-96886279D02*
X147456028Y-96671993D01*
X147456028Y-96671993D02*
X147527457Y-96529136D01*
X147527457Y-96529136D02*
X147598885Y-96457708D01*
X147598885Y-96457708D02*
X147741742Y-96386279D01*
X147741742Y-96386279D02*
X148170314Y-96386279D01*
X148170314Y-96386279D02*
X148313171Y-96457708D01*
X148313171Y-96457708D02*
X148384600Y-96529136D01*
X148384600Y-96529136D02*
X148456028Y-96671993D01*
X148456028Y-96671993D02*
X148456028Y-96886279D01*
X147456028Y-95743422D02*
X148456028Y-95743422D01*
X147598885Y-95743422D02*
X147527457Y-95671993D01*
X147527457Y-95671993D02*
X147456028Y-95529136D01*
X147456028Y-95529136D02*
X147456028Y-95314850D01*
X147456028Y-95314850D02*
X147527457Y-95171993D01*
X147527457Y-95171993D02*
X147670314Y-95100565D01*
X147670314Y-95100565D02*
X148456028Y-95100565D01*
X147456028Y-94600564D02*
X147456028Y-94029136D01*
X146956028Y-94386279D02*
X148241742Y-94386279D01*
X148241742Y-94386279D02*
X148384600Y-94314850D01*
X148384600Y-94314850D02*
X148456028Y-94171993D01*
X148456028Y-94171993D02*
X148456028Y-94029136D01*
X148456028Y-93529136D02*
X147456028Y-93529136D01*
X147741742Y-93529136D02*
X147598885Y-93457707D01*
X147598885Y-93457707D02*
X147527457Y-93386279D01*
X147527457Y-93386279D02*
X147456028Y-93243421D01*
X147456028Y-93243421D02*
X147456028Y-93100564D01*
X148456028Y-92386279D02*
X148384600Y-92529136D01*
X148384600Y-92529136D02*
X148313171Y-92600565D01*
X148313171Y-92600565D02*
X148170314Y-92671993D01*
X148170314Y-92671993D02*
X147741742Y-92671993D01*
X147741742Y-92671993D02*
X147598885Y-92600565D01*
X147598885Y-92600565D02*
X147527457Y-92529136D01*
X147527457Y-92529136D02*
X147456028Y-92386279D01*
X147456028Y-92386279D02*
X147456028Y-92171993D01*
X147456028Y-92171993D02*
X147527457Y-92029136D01*
X147527457Y-92029136D02*
X147598885Y-91957708D01*
X147598885Y-91957708D02*
X147741742Y-91886279D01*
X147741742Y-91886279D02*
X148170314Y-91886279D01*
X148170314Y-91886279D02*
X148313171Y-91957708D01*
X148313171Y-91957708D02*
X148384600Y-92029136D01*
X148384600Y-92029136D02*
X148456028Y-92171993D01*
X148456028Y-92171993D02*
X148456028Y-92386279D01*
X148456028Y-91029136D02*
X148384600Y-91171993D01*
X148384600Y-91171993D02*
X148241742Y-91243422D01*
X148241742Y-91243422D02*
X146956028Y-91243422D01*
X148456028Y-90243422D02*
X148384600Y-90386279D01*
X148384600Y-90386279D02*
X148241742Y-90457708D01*
X148241742Y-90457708D02*
X146956028Y-90457708D01*
X148384600Y-89100565D02*
X148456028Y-89243422D01*
X148456028Y-89243422D02*
X148456028Y-89529137D01*
X148456028Y-89529137D02*
X148384600Y-89671994D01*
X148384600Y-89671994D02*
X148241742Y-89743422D01*
X148241742Y-89743422D02*
X147670314Y-89743422D01*
X147670314Y-89743422D02*
X147527457Y-89671994D01*
X147527457Y-89671994D02*
X147456028Y-89529137D01*
X147456028Y-89529137D02*
X147456028Y-89243422D01*
X147456028Y-89243422D02*
X147527457Y-89100565D01*
X147527457Y-89100565D02*
X147670314Y-89029137D01*
X147670314Y-89029137D02*
X147813171Y-89029137D01*
X147813171Y-89029137D02*
X147956028Y-89743422D01*
X148456028Y-88386280D02*
X147456028Y-88386280D01*
X147741742Y-88386280D02*
X147598885Y-88314851D01*
X147598885Y-88314851D02*
X147527457Y-88243423D01*
X147527457Y-88243423D02*
X147456028Y-88100565D01*
X147456028Y-88100565D02*
X147456028Y-87957708D01*
X148456028Y-87457709D02*
X147456028Y-87457709D01*
X146956028Y-87457709D02*
X147027457Y-87529137D01*
X147027457Y-87529137D02*
X147098885Y-87457709D01*
X147098885Y-87457709D02*
X147027457Y-87386280D01*
X147027457Y-87386280D02*
X146956028Y-87457709D01*
X146956028Y-87457709D02*
X147098885Y-87457709D01*
X147456028Y-86743423D02*
X148456028Y-86743423D01*
X147598885Y-86743423D02*
X147527457Y-86671994D01*
X147527457Y-86671994D02*
X147456028Y-86529137D01*
X147456028Y-86529137D02*
X147456028Y-86314851D01*
X147456028Y-86314851D02*
X147527457Y-86171994D01*
X147527457Y-86171994D02*
X147670314Y-86100566D01*
X147670314Y-86100566D02*
X148456028Y-86100566D01*
X148456028Y-84743423D02*
X147670314Y-84743423D01*
X147670314Y-84743423D02*
X147527457Y-84814851D01*
X147527457Y-84814851D02*
X147456028Y-84957708D01*
X147456028Y-84957708D02*
X147456028Y-85243423D01*
X147456028Y-85243423D02*
X147527457Y-85386280D01*
X148384600Y-84743423D02*
X148456028Y-84886280D01*
X148456028Y-84886280D02*
X148456028Y-85243423D01*
X148456028Y-85243423D02*
X148384600Y-85386280D01*
X148384600Y-85386280D02*
X148241742Y-85457708D01*
X148241742Y-85457708D02*
X148098885Y-85457708D01*
X148098885Y-85457708D02*
X147956028Y-85386280D01*
X147956028Y-85386280D02*
X147884600Y-85243423D01*
X147884600Y-85243423D02*
X147884600Y-84886280D01*
X147884600Y-84886280D02*
X147813171Y-84743423D01*
X147456028Y-84243422D02*
X147456028Y-83671994D01*
X146956028Y-84029137D02*
X148241742Y-84029137D01*
X148241742Y-84029137D02*
X148384600Y-83957708D01*
X148384600Y-83957708D02*
X148456028Y-83814851D01*
X148456028Y-83814851D02*
X148456028Y-83671994D01*
X148456028Y-82957708D02*
X148384600Y-83100565D01*
X148384600Y-83100565D02*
X148313171Y-83171994D01*
X148313171Y-83171994D02*
X148170314Y-83243422D01*
X148170314Y-83243422D02*
X147741742Y-83243422D01*
X147741742Y-83243422D02*
X147598885Y-83171994D01*
X147598885Y-83171994D02*
X147527457Y-83100565D01*
X147527457Y-83100565D02*
X147456028Y-82957708D01*
X147456028Y-82957708D02*
X147456028Y-82743422D01*
X147456028Y-82743422D02*
X147527457Y-82600565D01*
X147527457Y-82600565D02*
X147598885Y-82529137D01*
X147598885Y-82529137D02*
X147741742Y-82457708D01*
X147741742Y-82457708D02*
X148170314Y-82457708D01*
X148170314Y-82457708D02*
X148313171Y-82529137D01*
X148313171Y-82529137D02*
X148384600Y-82600565D01*
X148384600Y-82600565D02*
X148456028Y-82743422D01*
X148456028Y-82743422D02*
X148456028Y-82957708D01*
X148456028Y-81814851D02*
X147456028Y-81814851D01*
X147741742Y-81814851D02*
X147598885Y-81743422D01*
X147598885Y-81743422D02*
X147527457Y-81671994D01*
X147527457Y-81671994D02*
X147456028Y-81529136D01*
X147456028Y-81529136D02*
X147456028Y-81386279D01*
D12*
X140155826Y-99350247D02*
X140270112Y-99388342D01*
X140270112Y-99388342D02*
X140308207Y-99426438D01*
X140308207Y-99426438D02*
X140346303Y-99502628D01*
X140346303Y-99502628D02*
X140346303Y-99616914D01*
X140346303Y-99616914D02*
X140308207Y-99693104D01*
X140308207Y-99693104D02*
X140270112Y-99731200D01*
X140270112Y-99731200D02*
X140193922Y-99769295D01*
X140193922Y-99769295D02*
X139889160Y-99769295D01*
X139889160Y-99769295D02*
X139889160Y-98969295D01*
X139889160Y-98969295D02*
X140155826Y-98969295D01*
X140155826Y-98969295D02*
X140232017Y-99007390D01*
X140232017Y-99007390D02*
X140270112Y-99045485D01*
X140270112Y-99045485D02*
X140308207Y-99121676D01*
X140308207Y-99121676D02*
X140308207Y-99197866D01*
X140308207Y-99197866D02*
X140270112Y-99274057D01*
X140270112Y-99274057D02*
X140232017Y-99312152D01*
X140232017Y-99312152D02*
X140155826Y-99350247D01*
X140155826Y-99350247D02*
X139889160Y-99350247D01*
X140841541Y-98969295D02*
X140993922Y-98969295D01*
X140993922Y-98969295D02*
X141070112Y-99007390D01*
X141070112Y-99007390D02*
X141146303Y-99083580D01*
X141146303Y-99083580D02*
X141184398Y-99235961D01*
X141184398Y-99235961D02*
X141184398Y-99502628D01*
X141184398Y-99502628D02*
X141146303Y-99655009D01*
X141146303Y-99655009D02*
X141070112Y-99731200D01*
X141070112Y-99731200D02*
X140993922Y-99769295D01*
X140993922Y-99769295D02*
X140841541Y-99769295D01*
X140841541Y-99769295D02*
X140765350Y-99731200D01*
X140765350Y-99731200D02*
X140689160Y-99655009D01*
X140689160Y-99655009D02*
X140651064Y-99502628D01*
X140651064Y-99502628D02*
X140651064Y-99235961D01*
X140651064Y-99235961D02*
X140689160Y-99083580D01*
X140689160Y-99083580D02*
X140765350Y-99007390D01*
X140765350Y-99007390D02*
X140841541Y-98969295D01*
X141679636Y-98969295D02*
X141832017Y-98969295D01*
X141832017Y-98969295D02*
X141908207Y-99007390D01*
X141908207Y-99007390D02*
X141984398Y-99083580D01*
X141984398Y-99083580D02*
X142022493Y-99235961D01*
X142022493Y-99235961D02*
X142022493Y-99502628D01*
X142022493Y-99502628D02*
X141984398Y-99655009D01*
X141984398Y-99655009D02*
X141908207Y-99731200D01*
X141908207Y-99731200D02*
X141832017Y-99769295D01*
X141832017Y-99769295D02*
X141679636Y-99769295D01*
X141679636Y-99769295D02*
X141603445Y-99731200D01*
X141603445Y-99731200D02*
X141527255Y-99655009D01*
X141527255Y-99655009D02*
X141489159Y-99502628D01*
X141489159Y-99502628D02*
X141489159Y-99235961D01*
X141489159Y-99235961D02*
X141527255Y-99083580D01*
X141527255Y-99083580D02*
X141603445Y-99007390D01*
X141603445Y-99007390D02*
X141679636Y-98969295D01*
X142251064Y-98969295D02*
X142708207Y-98969295D01*
X142479635Y-99769295D02*
X142479635Y-98969295D01*
X139888095Y-105204819D02*
X139888095Y-106014342D01*
X139888095Y-106014342D02*
X139935714Y-106109580D01*
X139935714Y-106109580D02*
X139983333Y-106157200D01*
X139983333Y-106157200D02*
X140078571Y-106204819D01*
X140078571Y-106204819D02*
X140269047Y-106204819D01*
X140269047Y-106204819D02*
X140364285Y-106157200D01*
X140364285Y-106157200D02*
X140411904Y-106109580D01*
X140411904Y-106109580D02*
X140459523Y-106014342D01*
X140459523Y-106014342D02*
X140459523Y-105204819D01*
X141459523Y-106204819D02*
X140888095Y-106204819D01*
X141173809Y-106204819D02*
X141173809Y-105204819D01*
X141173809Y-105204819D02*
X141078571Y-105347676D01*
X141078571Y-105347676D02*
X140983333Y-105442914D01*
X140983333Y-105442914D02*
X140888095Y-105490533D01*
X140673809Y-120778628D02*
X140673809Y-121254819D01*
X140340476Y-120254819D02*
X140673809Y-120778628D01*
X140673809Y-120778628D02*
X141007142Y-120254819D01*
X141864285Y-121254819D02*
X141292857Y-121254819D01*
X141578571Y-121254819D02*
X141578571Y-120254819D01*
X141578571Y-120254819D02*
X141483333Y-120397676D01*
X141483333Y-120397676D02*
X141388095Y-120492914D01*
X141388095Y-120492914D02*
X141292857Y-120540533D01*
X134613095Y-87479819D02*
X134613095Y-88289342D01*
X134613095Y-88289342D02*
X134660714Y-88384580D01*
X134660714Y-88384580D02*
X134708333Y-88432200D01*
X134708333Y-88432200D02*
X134803571Y-88479819D01*
X134803571Y-88479819D02*
X134994047Y-88479819D01*
X134994047Y-88479819D02*
X135089285Y-88432200D01*
X135089285Y-88432200D02*
X135136904Y-88384580D01*
X135136904Y-88384580D02*
X135184523Y-88289342D01*
X135184523Y-88289342D02*
X135184523Y-87479819D01*
X135613095Y-87575057D02*
X135660714Y-87527438D01*
X135660714Y-87527438D02*
X135755952Y-87479819D01*
X135755952Y-87479819D02*
X135994047Y-87479819D01*
X135994047Y-87479819D02*
X136089285Y-87527438D01*
X136089285Y-87527438D02*
X136136904Y-87575057D01*
X136136904Y-87575057D02*
X136184523Y-87670295D01*
X136184523Y-87670295D02*
X136184523Y-87765533D01*
X136184523Y-87765533D02*
X136136904Y-87908390D01*
X136136904Y-87908390D02*
X135565476Y-88479819D01*
X135565476Y-88479819D02*
X136184523Y-88479819D01*
X137313095Y-104904819D02*
X137313095Y-105714342D01*
X137313095Y-105714342D02*
X137360714Y-105809580D01*
X137360714Y-105809580D02*
X137408333Y-105857200D01*
X137408333Y-105857200D02*
X137503571Y-105904819D01*
X137503571Y-105904819D02*
X137694047Y-105904819D01*
X137694047Y-105904819D02*
X137789285Y-105857200D01*
X137789285Y-105857200D02*
X137836904Y-105809580D01*
X137836904Y-105809580D02*
X137884523Y-105714342D01*
X137884523Y-105714342D02*
X137884523Y-104904819D01*
X138265476Y-104904819D02*
X138884523Y-104904819D01*
X138884523Y-104904819D02*
X138551190Y-105285771D01*
X138551190Y-105285771D02*
X138694047Y-105285771D01*
X138694047Y-105285771D02*
X138789285Y-105333390D01*
X138789285Y-105333390D02*
X138836904Y-105381009D01*
X138836904Y-105381009D02*
X138884523Y-105476247D01*
X138884523Y-105476247D02*
X138884523Y-105714342D01*
X138884523Y-105714342D02*
X138836904Y-105809580D01*
X138836904Y-105809580D02*
X138789285Y-105857200D01*
X138789285Y-105857200D02*
X138694047Y-105904819D01*
X138694047Y-105904819D02*
X138408333Y-105904819D01*
X138408333Y-105904819D02*
X138313095Y-105857200D01*
X138313095Y-105857200D02*
X138265476Y-105809580D01*
X144238095Y-86704819D02*
X144238095Y-87514342D01*
X144238095Y-87514342D02*
X144285714Y-87609580D01*
X144285714Y-87609580D02*
X144333333Y-87657200D01*
X144333333Y-87657200D02*
X144428571Y-87704819D01*
X144428571Y-87704819D02*
X144619047Y-87704819D01*
X144619047Y-87704819D02*
X144714285Y-87657200D01*
X144714285Y-87657200D02*
X144761904Y-87609580D01*
X144761904Y-87609580D02*
X144809523Y-87514342D01*
X144809523Y-87514342D02*
X144809523Y-86704819D01*
X145714285Y-87038152D02*
X145714285Y-87704819D01*
X145476190Y-86657200D02*
X145238095Y-87371485D01*
X145238095Y-87371485D02*
X145857142Y-87371485D01*
D13*
%TO.C,C1*%
X135515000Y-106882836D02*
X135515000Y-106667164D01*
X136235000Y-106882836D02*
X136235000Y-106667164D01*
%TO.C,C19*%
X144102164Y-84890000D02*
X144317836Y-84890000D01*
X144102164Y-85610000D02*
X144317836Y-85610000D01*
%TO.C,C18*%
X142932164Y-86640000D02*
X143147836Y-86640000D01*
X142932164Y-87360000D02*
X143147836Y-87360000D01*
%TO.C,C17*%
X140240000Y-100857836D02*
X140240000Y-100642164D01*
X140960000Y-100857836D02*
X140960000Y-100642164D01*
%TO.C,U1*%
X137360000Y-107900000D02*
X137030000Y-108140000D01*
X137030000Y-107660000D01*
X137360000Y-107900000D01*
G36*
X137360000Y-107900000D02*
G01*
X137030000Y-108140000D01*
X137030000Y-107660000D01*
X137360000Y-107900000D01*
G37*
X145110000Y-114110000D02*
X144460000Y-114110000D01*
X145110000Y-113460000D02*
X145110000Y-114110000D01*
X145110000Y-106890000D02*
X145110000Y-107540000D01*
X144460000Y-106890000D02*
X145110000Y-106890000D01*
X138540000Y-114110000D02*
X137890000Y-114110000D01*
X137890000Y-114110000D02*
X137890000Y-113460000D01*
X137890000Y-107540000D02*
X137890000Y-106890000D01*
X137890000Y-106890000D02*
X138540000Y-106890000D01*
%TO.C,Y1*%
X143210000Y-116640000D02*
X139090000Y-116640000D01*
X143210000Y-120060000D02*
X143210000Y-116640000D01*
%TO.C,SW1*%
X136430000Y-97180000D02*
X136730000Y-97180000D01*
X136430000Y-101320000D02*
X136430000Y-97180000D01*
X136730000Y-101320000D02*
X136430000Y-101320000D01*
X139270000Y-97180000D02*
X139570000Y-97180000D01*
X139570000Y-97180000D02*
X139570000Y-101320000D01*
X139570000Y-101320000D02*
X139270000Y-101320000D01*
%TO.C,C16*%
X143390000Y-118412164D02*
X143390000Y-118627836D01*
X144110000Y-118412164D02*
X144110000Y-118627836D01*
%TO.C,C5*%
X144840000Y-105007836D02*
X144840000Y-104792164D01*
X145560000Y-105007836D02*
X145560000Y-104792164D01*
%TO.C,C3*%
X142708601Y-101032282D02*
X142861104Y-100879779D01*
X143217718Y-101541399D02*
X143370221Y-101388896D01*
%TO.C,J4*%
X137580000Y-125770000D02*
X137580000Y-124390000D01*
X138960000Y-125770000D02*
X137580000Y-125770000D01*
X140230000Y-123010000D02*
X145420000Y-123010000D01*
X140230000Y-125770000D02*
X140230000Y-123010000D01*
X140230000Y-125770000D02*
X145420000Y-125770000D01*
X145420000Y-125770000D02*
X145420000Y-123010000D01*
%TO.C,C4*%
X146019190Y-105671693D02*
X146171693Y-105519190D01*
X146528307Y-106180810D02*
X146680810Y-106028307D01*
%TO.C,C8*%
X143490000Y-116422164D02*
X143490000Y-116637836D01*
X144210000Y-116422164D02*
X144210000Y-116637836D01*
%TO.C,R6*%
X135270000Y-100981359D02*
X135270000Y-101288641D01*
X136030000Y-100981359D02*
X136030000Y-101288641D01*
%TO.C,R11*%
X144470000Y-97386359D02*
X144470000Y-97693641D01*
X145230000Y-97386359D02*
X145230000Y-97693641D01*
%TO.C,R2*%
X135245000Y-77018641D02*
X135245000Y-76711359D01*
X136005000Y-77018641D02*
X136005000Y-76711359D01*
%TO.C,J3*%
X149010000Y-74990000D02*
X150390000Y-74990000D01*
X149010000Y-76370000D02*
X149010000Y-74990000D01*
X149010000Y-77640000D02*
X149010000Y-126010000D01*
X149010000Y-77640000D02*
X151770000Y-77640000D01*
X149010000Y-126010000D02*
X151770000Y-126010000D01*
X151770000Y-77640000D02*
X151770000Y-126010000D01*
%TO.C,C2*%
X143358601Y-101682282D02*
X143511104Y-101529779D01*
X143867718Y-102191399D02*
X144020221Y-102038896D01*
%TO.C,U2*%
X136440000Y-87442500D02*
X137440000Y-87442500D01*
X136440000Y-88962500D02*
X136440000Y-87442500D01*
X136490000Y-88962500D02*
X136440000Y-88962500D01*
X138390000Y-88962500D02*
X137610000Y-88962500D01*
X138560000Y-87442500D02*
X139560000Y-87442500D01*
X139560000Y-87442500D02*
X139560000Y-88962500D01*
X139560000Y-88962500D02*
X139510000Y-88962500D01*
X137950000Y-89742500D02*
X137620000Y-89502500D01*
X137950000Y-89262500D01*
X137950000Y-89742500D01*
G36*
X137950000Y-89742500D02*
G01*
X137620000Y-89502500D01*
X137950000Y-89262500D01*
X137950000Y-89742500D01*
G37*
%TO.C,R1*%
X146970000Y-76993641D02*
X146970000Y-76686359D01*
X147730000Y-76993641D02*
X147730000Y-76686359D01*
%TO.C,C11*%
X140840000Y-102887836D02*
X140840000Y-102672164D01*
X141560000Y-102887836D02*
X141560000Y-102672164D01*
%TO.C,C14*%
X138165580Y-90505000D02*
X137884420Y-90505000D01*
X138165580Y-91525000D02*
X137884420Y-91525000D01*
%TO.C,C10*%
X144490000Y-116412164D02*
X144490000Y-116627836D01*
X145210000Y-116412164D02*
X145210000Y-116627836D01*
%TO.C,J1*%
X136800000Y-75500000D02*
X136800000Y-73600000D01*
X136800000Y-79400000D02*
X136800000Y-77400000D01*
X146200000Y-73600000D02*
X136800000Y-73600000D01*
X146200000Y-75500000D02*
X146200000Y-73600000D01*
X146200000Y-79400000D02*
X146200000Y-77400000D01*
%TO.C,U3*%
X136889432Y-102365000D02*
X139685000Y-102365000D01*
X139685000Y-104635000D02*
X136465000Y-104635000D01*
X136595000Y-102360000D02*
X136455000Y-102170000D01*
X136735000Y-102170000D01*
X136595000Y-102360000D01*
G36*
X136595000Y-102360000D02*
G01*
X136455000Y-102170000D01*
X136735000Y-102170000D01*
X136595000Y-102360000D01*
G37*
%TO.C,D2*%
X143265000Y-89912500D02*
X143265000Y-92197500D01*
X143265000Y-92197500D02*
X144735000Y-92197500D01*
X144735000Y-92197500D02*
X144735000Y-89912500D01*
%TO.C,C9*%
X135437836Y-111140000D02*
X135222164Y-111140000D01*
X135437836Y-111860000D02*
X135222164Y-111860000D01*
%TO.C,U4*%
X139940000Y-89090000D02*
X139990000Y-89090000D01*
X139940000Y-90910000D02*
X139940000Y-89090000D01*
X139990000Y-90910000D02*
X139940000Y-90910000D01*
X143010000Y-89090000D02*
X143060000Y-89090000D01*
X143060000Y-89090000D02*
X143060000Y-90910000D01*
X143060000Y-90910000D02*
X143010000Y-90910000D01*
X139990000Y-91450000D02*
X139660000Y-91690000D01*
X139660000Y-91210000D01*
X139990000Y-91450000D01*
G36*
X139990000Y-91450000D02*
G01*
X139660000Y-91690000D01*
X139660000Y-91210000D01*
X139990000Y-91450000D01*
G37*
%TO.C,R9*%
X144096359Y-88120000D02*
X144403641Y-88120000D01*
X144096359Y-88880000D02*
X144403641Y-88880000D01*
%TO.C,J2*%
X131230000Y-74990000D02*
X132610000Y-74990000D01*
X131230000Y-76370000D02*
X131230000Y-74990000D01*
X131230000Y-77640000D02*
X131230000Y-126010000D01*
X131230000Y-77640000D02*
X133990000Y-77640000D01*
X131230000Y-126010000D02*
X133990000Y-126010000D01*
X133990000Y-77640000D02*
X133990000Y-126010000D01*
%TO.C,C13*%
X135990000Y-85905580D02*
X135990000Y-85624420D01*
X137010000Y-85905580D02*
X137010000Y-85624420D01*
%TO.C,R8*%
X145120000Y-91366141D02*
X145120000Y-91058859D01*
X145880000Y-91366141D02*
X145880000Y-91058859D01*
%TO.C,R12*%
X145520000Y-97683641D02*
X145520000Y-97376359D01*
X146280000Y-97683641D02*
X146280000Y-97376359D01*
%TO.C,JP1*%
X140100000Y-97800000D02*
X140100000Y-97200000D01*
X140800000Y-96500000D02*
X142200000Y-96500000D01*
X142200000Y-98500000D02*
X140800000Y-98500000D01*
X142900000Y-97200000D02*
X142900000Y-97800000D01*
X140100000Y-97200000D02*
G75*
G02*
X140800000Y-96500000I700000J0D01*
G01*
X140800000Y-98500000D02*
G75*
G02*
X140100000Y-97800000I0J700000D01*
G01*
X142200000Y-96500000D02*
G75*
G02*
X142900000Y-97200000I1J-699999D01*
G01*
X142900000Y-97800000D02*
G75*
G02*
X142200000Y-98500000I-699999J-1D01*
G01*
%TO.C,C12*%
X143840000Y-105087836D02*
X143840000Y-104872164D01*
X144560000Y-105087836D02*
X144560000Y-104872164D01*
%TO.C,J5*%
X137830000Y-92870000D02*
X137830000Y-95630000D01*
X143020000Y-92870000D02*
X137830000Y-92870000D01*
X143020000Y-92870000D02*
X143020000Y-95630000D01*
X143020000Y-95630000D02*
X137830000Y-95630000D01*
X144290000Y-92870000D02*
X145670000Y-92870000D01*
X145670000Y-92870000D02*
X145670000Y-94250000D01*
D10*
%TO.C,D1*%
X138050000Y-86105000D02*
G75*
G02*
X137950000Y-86105000I-50000J0D01*
G01*
X137950000Y-86105000D02*
G75*
G02*
X138050000Y-86105000I50000J0D01*
G01*
D13*
%TO.C,C6*%
X146369190Y-106721693D02*
X146521693Y-106569190D01*
X146878307Y-107230810D02*
X147030810Y-107078307D01*
%TO.C,C7*%
X147462164Y-111140000D02*
X147677836Y-111140000D01*
X147462164Y-111860000D02*
X147677836Y-111860000D01*
%TO.C,C15*%
X138140000Y-118392164D02*
X138140000Y-118607836D01*
X138860000Y-118392164D02*
X138860000Y-118607836D01*
%TO.C,Q1*%
X140177500Y-83940000D02*
X141697500Y-83940000D01*
X140177500Y-83990000D02*
X140177500Y-83940000D01*
X140177500Y-85890000D02*
X140177500Y-85110000D01*
X140177500Y-87060000D02*
X140177500Y-87010000D01*
X141697500Y-83940000D02*
X141697500Y-84940000D01*
X141697500Y-86060000D02*
X141697500Y-87060000D01*
X141697500Y-87060000D02*
X140177500Y-87060000D01*
X139877500Y-85450000D02*
X139397500Y-85450000D01*
X139637500Y-85120000D01*
X139877500Y-85450000D01*
G36*
X139877500Y-85450000D02*
G01*
X139397500Y-85450000D01*
X139637500Y-85120000D01*
X139877500Y-85450000D01*
G37*
%TO.C,R4*%
X142820000Y-105203641D02*
X142820000Y-104896359D01*
X143580000Y-105203641D02*
X143580000Y-104896359D01*
%TO.C,R3*%
X141820000Y-104896359D02*
X141820000Y-105203641D01*
X142580000Y-104896359D02*
X142580000Y-105203641D01*
%TO.C,R10*%
X143270000Y-97413641D02*
X143270000Y-97106359D01*
X144030000Y-97413641D02*
X144030000Y-97106359D01*
%TO.C,R7*%
X135270000Y-99071359D02*
X135270000Y-99378641D01*
X136030000Y-99071359D02*
X136030000Y-99378641D01*
%TO.C,R5*%
X141893641Y-115620000D02*
X141586359Y-115620000D01*
X141893641Y-116380000D02*
X141586359Y-116380000D01*
%TD*%
M02*
