%TF.GenerationSoftware,KiCad,Pcbnew,9.0.6*%
%TF.CreationDate,2026-02-06T21:04:52-05:00*%
%TF.ProjectId,microcontrollerinator,6d696372-6f63-46f6-9e74-726f6c6c6572,rev?*%
%TF.SameCoordinates,Original*%
%TF.FileFunction,Soldermask,Bot*%
%TF.FilePolarity,Negative*%
%FSLAX46Y46*%
G04 Gerber Fmt 4.6, Leading zero omitted, Abs format (unit mm)*
G04 Created by KiCad (PCBNEW 9.0.6) date 2026-02-06 21:04:52*
%MOMM*%
%LPD*%
G01*
G04 APERTURE LIST*
%ADD10R,1.700000X1.700000*%
%ADD11C,1.700000*%
%ADD12C,0.650000*%
%ADD13O,1.000000X2.100000*%
%ADD14O,1.000000X1.600000*%
G04 APERTURE END LIST*
D10*
%TO.C,J4*%
X138960000Y-124390000D03*
D11*
X141500000Y-124390000D03*
X144040000Y-124390000D03*
%TD*%
D10*
%TO.C,J3*%
X150390000Y-76370000D03*
D11*
X150390000Y-78910000D03*
X150390000Y-81450000D03*
X150390000Y-83990000D03*
X150390000Y-86530000D03*
X150390000Y-89070000D03*
X150390000Y-91610000D03*
X150390000Y-94150000D03*
X150390000Y-96690000D03*
X150390000Y-99230000D03*
X150390000Y-101770000D03*
X150390000Y-104310000D03*
X150390000Y-106850000D03*
X150390000Y-109390000D03*
X150390000Y-111930000D03*
X150390000Y-114470000D03*
X150390000Y-117010000D03*
X150390000Y-119550000D03*
X150390000Y-122090000D03*
X150390000Y-124630000D03*
%TD*%
D12*
%TO.C,J1*%
X144390000Y-80100000D03*
X138610000Y-80100000D03*
D13*
X145820000Y-80630000D03*
D14*
X145820000Y-76450000D03*
D13*
X137180000Y-80630000D03*
D14*
X137180000Y-76450000D03*
%TD*%
D10*
%TO.C,J2*%
X132610000Y-76370000D03*
D11*
X132610000Y-78910000D03*
X132610000Y-81450000D03*
X132610000Y-83990000D03*
X132610000Y-86530000D03*
X132610000Y-89070000D03*
X132610000Y-91610000D03*
X132610000Y-94150000D03*
X132610000Y-96690000D03*
X132610000Y-99230000D03*
X132610000Y-101770000D03*
X132610000Y-104310000D03*
X132610000Y-106850000D03*
X132610000Y-109390000D03*
X132610000Y-111930000D03*
X132610000Y-114470000D03*
X132610000Y-117010000D03*
X132610000Y-119550000D03*
X132610000Y-122090000D03*
X132610000Y-124630000D03*
%TD*%
D10*
%TO.C,J5*%
X144290000Y-94250000D03*
D11*
X141750000Y-94250000D03*
X139210000Y-94250000D03*
%TD*%
M02*
