%TF.GenerationSoftware,KiCad,Pcbnew,9.0.6*%
%TF.CreationDate,2026-02-11T11:47:54-05:00*%
%TF.ProjectId,microcontrollerinator,6d696372-6f63-46f6-9e74-726f6c6c6572,rev?*%
%TF.SameCoordinates,Original*%
%TF.FileFunction,Legend,Bot*%
%TF.FilePolarity,Positive*%
%FSLAX46Y46*%
G04 Gerber Fmt 4.6, Leading zero omitted, Abs format (unit mm)*
G04 Created by KiCad (PCBNEW 9.0.6) date 2026-02-11 11:47:54*
%MOMM*%
%LPD*%
G01*
G04 APERTURE LIST*
%ADD10C,0.100000*%
%ADD11C,0.150000*%
%ADD12C,0.300000*%
%ADD13C,0.400000*%
%ADD14C,0.120000*%
%ADD15C,0.000000*%
G04 APERTURE END LIST*
D10*
D11*
X177002200Y-166007200D02*
X285002200Y-166007200D01*
X285002200Y-198007200D01*
X177002200Y-198007200D01*
X177002200Y-166007200D01*
D10*
D11*
X10000000Y-10000000D02*
X287002200Y-10000000D01*
X287002200Y-200007200D01*
X10000000Y-200007200D01*
X10000000Y-10000000D01*
D10*
D11*
X12000000Y-12000000D02*
X285002200Y-12000000D01*
X285002200Y-198007200D01*
X12000000Y-198007200D01*
X12000000Y-12000000D01*
D10*
D11*
X60000000Y-12000000D02*
X60000000Y-10000000D01*
D10*
D11*
X110000000Y-12000000D02*
X110000000Y-10000000D01*
D10*
D11*
X160000000Y-12000000D02*
X160000000Y-10000000D01*
D10*
D11*
X210000000Y-12000000D02*
X210000000Y-10000000D01*
D10*
D11*
X260000000Y-12000000D02*
X260000000Y-10000000D01*
D10*
D11*
X36089160Y-11593604D02*
X35346303Y-11593604D01*
X35717731Y-11593604D02*
X35717731Y-10293604D01*
X35717731Y-10293604D02*
X35593922Y-10479319D01*
X35593922Y-10479319D02*
X35470112Y-10603128D01*
X35470112Y-10603128D02*
X35346303Y-10665033D01*
D10*
D11*
X85346303Y-10417414D02*
X85408207Y-10355509D01*
X85408207Y-10355509D02*
X85532017Y-10293604D01*
X85532017Y-10293604D02*
X85841541Y-10293604D01*
X85841541Y-10293604D02*
X85965350Y-10355509D01*
X85965350Y-10355509D02*
X86027255Y-10417414D01*
X86027255Y-10417414D02*
X86089160Y-10541223D01*
X86089160Y-10541223D02*
X86089160Y-10665033D01*
X86089160Y-10665033D02*
X86027255Y-10850747D01*
X86027255Y-10850747D02*
X85284398Y-11593604D01*
X85284398Y-11593604D02*
X86089160Y-11593604D01*
D10*
D11*
X135284398Y-10293604D02*
X136089160Y-10293604D01*
X136089160Y-10293604D02*
X135655826Y-10788842D01*
X135655826Y-10788842D02*
X135841541Y-10788842D01*
X135841541Y-10788842D02*
X135965350Y-10850747D01*
X135965350Y-10850747D02*
X136027255Y-10912652D01*
X136027255Y-10912652D02*
X136089160Y-11036461D01*
X136089160Y-11036461D02*
X136089160Y-11345985D01*
X136089160Y-11345985D02*
X136027255Y-11469795D01*
X136027255Y-11469795D02*
X135965350Y-11531700D01*
X135965350Y-11531700D02*
X135841541Y-11593604D01*
X135841541Y-11593604D02*
X135470112Y-11593604D01*
X135470112Y-11593604D02*
X135346303Y-11531700D01*
X135346303Y-11531700D02*
X135284398Y-11469795D01*
D10*
D11*
X185965350Y-10726938D02*
X185965350Y-11593604D01*
X185655826Y-10231700D02*
X185346303Y-11160271D01*
X185346303Y-11160271D02*
X186151064Y-11160271D01*
D10*
D11*
X236027255Y-10293604D02*
X235408207Y-10293604D01*
X235408207Y-10293604D02*
X235346303Y-10912652D01*
X235346303Y-10912652D02*
X235408207Y-10850747D01*
X235408207Y-10850747D02*
X235532017Y-10788842D01*
X235532017Y-10788842D02*
X235841541Y-10788842D01*
X235841541Y-10788842D02*
X235965350Y-10850747D01*
X235965350Y-10850747D02*
X236027255Y-10912652D01*
X236027255Y-10912652D02*
X236089160Y-11036461D01*
X236089160Y-11036461D02*
X236089160Y-11345985D01*
X236089160Y-11345985D02*
X236027255Y-11469795D01*
X236027255Y-11469795D02*
X235965350Y-11531700D01*
X235965350Y-11531700D02*
X235841541Y-11593604D01*
X235841541Y-11593604D02*
X235532017Y-11593604D01*
X235532017Y-11593604D02*
X235408207Y-11531700D01*
X235408207Y-11531700D02*
X235346303Y-11469795D01*
D10*
D11*
X285965350Y-10293604D02*
X285717731Y-10293604D01*
X285717731Y-10293604D02*
X285593922Y-10355509D01*
X285593922Y-10355509D02*
X285532017Y-10417414D01*
X285532017Y-10417414D02*
X285408207Y-10603128D01*
X285408207Y-10603128D02*
X285346303Y-10850747D01*
X285346303Y-10850747D02*
X285346303Y-11345985D01*
X285346303Y-11345985D02*
X285408207Y-11469795D01*
X285408207Y-11469795D02*
X285470112Y-11531700D01*
X285470112Y-11531700D02*
X285593922Y-11593604D01*
X285593922Y-11593604D02*
X285841541Y-11593604D01*
X285841541Y-11593604D02*
X285965350Y-11531700D01*
X285965350Y-11531700D02*
X286027255Y-11469795D01*
X286027255Y-11469795D02*
X286089160Y-11345985D01*
X286089160Y-11345985D02*
X286089160Y-11036461D01*
X286089160Y-11036461D02*
X286027255Y-10912652D01*
X286027255Y-10912652D02*
X285965350Y-10850747D01*
X285965350Y-10850747D02*
X285841541Y-10788842D01*
X285841541Y-10788842D02*
X285593922Y-10788842D01*
X285593922Y-10788842D02*
X285470112Y-10850747D01*
X285470112Y-10850747D02*
X285408207Y-10912652D01*
X285408207Y-10912652D02*
X285346303Y-11036461D01*
D10*
D11*
X60000000Y-198007200D02*
X60000000Y-200007200D01*
D10*
D11*
X110000000Y-198007200D02*
X110000000Y-200007200D01*
D10*
D11*
X160000000Y-198007200D02*
X160000000Y-200007200D01*
D10*
D11*
X210000000Y-198007200D02*
X210000000Y-200007200D01*
D10*
D11*
X260000000Y-198007200D02*
X260000000Y-200007200D01*
D10*
D11*
X36089160Y-199600804D02*
X35346303Y-199600804D01*
X35717731Y-199600804D02*
X35717731Y-198300804D01*
X35717731Y-198300804D02*
X35593922Y-198486519D01*
X35593922Y-198486519D02*
X35470112Y-198610328D01*
X35470112Y-198610328D02*
X35346303Y-198672233D01*
D10*
D11*
X85346303Y-198424614D02*
X85408207Y-198362709D01*
X85408207Y-198362709D02*
X85532017Y-198300804D01*
X85532017Y-198300804D02*
X85841541Y-198300804D01*
X85841541Y-198300804D02*
X85965350Y-198362709D01*
X85965350Y-198362709D02*
X86027255Y-198424614D01*
X86027255Y-198424614D02*
X86089160Y-198548423D01*
X86089160Y-198548423D02*
X86089160Y-198672233D01*
X86089160Y-198672233D02*
X86027255Y-198857947D01*
X86027255Y-198857947D02*
X85284398Y-199600804D01*
X85284398Y-199600804D02*
X86089160Y-199600804D01*
D10*
D11*
X135284398Y-198300804D02*
X136089160Y-198300804D01*
X136089160Y-198300804D02*
X135655826Y-198796042D01*
X135655826Y-198796042D02*
X135841541Y-198796042D01*
X135841541Y-198796042D02*
X135965350Y-198857947D01*
X135965350Y-198857947D02*
X136027255Y-198919852D01*
X136027255Y-198919852D02*
X136089160Y-199043661D01*
X136089160Y-199043661D02*
X136089160Y-199353185D01*
X136089160Y-199353185D02*
X136027255Y-199476995D01*
X136027255Y-199476995D02*
X135965350Y-199538900D01*
X135965350Y-199538900D02*
X135841541Y-199600804D01*
X135841541Y-199600804D02*
X135470112Y-199600804D01*
X135470112Y-199600804D02*
X135346303Y-199538900D01*
X135346303Y-199538900D02*
X135284398Y-199476995D01*
D10*
D11*
X185965350Y-198734138D02*
X185965350Y-199600804D01*
X185655826Y-198238900D02*
X185346303Y-199167471D01*
X185346303Y-199167471D02*
X186151064Y-199167471D01*
D10*
D11*
X236027255Y-198300804D02*
X235408207Y-198300804D01*
X235408207Y-198300804D02*
X235346303Y-198919852D01*
X235346303Y-198919852D02*
X235408207Y-198857947D01*
X235408207Y-198857947D02*
X235532017Y-198796042D01*
X235532017Y-198796042D02*
X235841541Y-198796042D01*
X235841541Y-198796042D02*
X235965350Y-198857947D01*
X235965350Y-198857947D02*
X236027255Y-198919852D01*
X236027255Y-198919852D02*
X236089160Y-199043661D01*
X236089160Y-199043661D02*
X236089160Y-199353185D01*
X236089160Y-199353185D02*
X236027255Y-199476995D01*
X236027255Y-199476995D02*
X235965350Y-199538900D01*
X235965350Y-199538900D02*
X235841541Y-199600804D01*
X235841541Y-199600804D02*
X235532017Y-199600804D01*
X235532017Y-199600804D02*
X235408207Y-199538900D01*
X235408207Y-199538900D02*
X235346303Y-199476995D01*
D10*
D11*
X285965350Y-198300804D02*
X285717731Y-198300804D01*
X285717731Y-198300804D02*
X285593922Y-198362709D01*
X285593922Y-198362709D02*
X285532017Y-198424614D01*
X285532017Y-198424614D02*
X285408207Y-198610328D01*
X285408207Y-198610328D02*
X285346303Y-198857947D01*
X285346303Y-198857947D02*
X285346303Y-199353185D01*
X285346303Y-199353185D02*
X285408207Y-199476995D01*
X285408207Y-199476995D02*
X285470112Y-199538900D01*
X285470112Y-199538900D02*
X285593922Y-199600804D01*
X285593922Y-199600804D02*
X285841541Y-199600804D01*
X285841541Y-199600804D02*
X285965350Y-199538900D01*
X285965350Y-199538900D02*
X286027255Y-199476995D01*
X286027255Y-199476995D02*
X286089160Y-199353185D01*
X286089160Y-199353185D02*
X286089160Y-199043661D01*
X286089160Y-199043661D02*
X286027255Y-198919852D01*
X286027255Y-198919852D02*
X285965350Y-198857947D01*
X285965350Y-198857947D02*
X285841541Y-198796042D01*
X285841541Y-198796042D02*
X285593922Y-198796042D01*
X285593922Y-198796042D02*
X285470112Y-198857947D01*
X285470112Y-198857947D02*
X285408207Y-198919852D01*
X285408207Y-198919852D02*
X285346303Y-199043661D01*
D10*
D11*
X10000000Y-60000000D02*
X12000000Y-60000000D01*
D10*
D11*
X10000000Y-110000000D02*
X12000000Y-110000000D01*
D10*
D11*
X10000000Y-160000000D02*
X12000000Y-160000000D01*
D10*
D11*
X10690476Y-35222176D02*
X11309523Y-35222176D01*
X10566666Y-35593604D02*
X10999999Y-34293604D01*
X10999999Y-34293604D02*
X11433333Y-35593604D01*
D10*
D11*
X11092857Y-84912652D02*
X11278571Y-84974557D01*
X11278571Y-84974557D02*
X11340476Y-85036461D01*
X11340476Y-85036461D02*
X11402380Y-85160271D01*
X11402380Y-85160271D02*
X11402380Y-85345985D01*
X11402380Y-85345985D02*
X11340476Y-85469795D01*
X11340476Y-85469795D02*
X11278571Y-85531700D01*
X11278571Y-85531700D02*
X11154761Y-85593604D01*
X11154761Y-85593604D02*
X10659523Y-85593604D01*
X10659523Y-85593604D02*
X10659523Y-84293604D01*
X10659523Y-84293604D02*
X11092857Y-84293604D01*
X11092857Y-84293604D02*
X11216666Y-84355509D01*
X11216666Y-84355509D02*
X11278571Y-84417414D01*
X11278571Y-84417414D02*
X11340476Y-84541223D01*
X11340476Y-84541223D02*
X11340476Y-84665033D01*
X11340476Y-84665033D02*
X11278571Y-84788842D01*
X11278571Y-84788842D02*
X11216666Y-84850747D01*
X11216666Y-84850747D02*
X11092857Y-84912652D01*
X11092857Y-84912652D02*
X10659523Y-84912652D01*
D10*
D11*
X11402380Y-135469795D02*
X11340476Y-135531700D01*
X11340476Y-135531700D02*
X11154761Y-135593604D01*
X11154761Y-135593604D02*
X11030952Y-135593604D01*
X11030952Y-135593604D02*
X10845238Y-135531700D01*
X10845238Y-135531700D02*
X10721428Y-135407890D01*
X10721428Y-135407890D02*
X10659523Y-135284080D01*
X10659523Y-135284080D02*
X10597619Y-135036461D01*
X10597619Y-135036461D02*
X10597619Y-134850747D01*
X10597619Y-134850747D02*
X10659523Y-134603128D01*
X10659523Y-134603128D02*
X10721428Y-134479319D01*
X10721428Y-134479319D02*
X10845238Y-134355509D01*
X10845238Y-134355509D02*
X11030952Y-134293604D01*
X11030952Y-134293604D02*
X11154761Y-134293604D01*
X11154761Y-134293604D02*
X11340476Y-134355509D01*
X11340476Y-134355509D02*
X11402380Y-134417414D01*
D10*
D11*
X10659523Y-185593604D02*
X10659523Y-184293604D01*
X10659523Y-184293604D02*
X10969047Y-184293604D01*
X10969047Y-184293604D02*
X11154761Y-184355509D01*
X11154761Y-184355509D02*
X11278571Y-184479319D01*
X11278571Y-184479319D02*
X11340476Y-184603128D01*
X11340476Y-184603128D02*
X11402380Y-184850747D01*
X11402380Y-184850747D02*
X11402380Y-185036461D01*
X11402380Y-185036461D02*
X11340476Y-185284080D01*
X11340476Y-185284080D02*
X11278571Y-185407890D01*
X11278571Y-185407890D02*
X11154761Y-185531700D01*
X11154761Y-185531700D02*
X10969047Y-185593604D01*
X10969047Y-185593604D02*
X10659523Y-185593604D01*
D10*
D11*
X287002200Y-60000000D02*
X285002200Y-60000000D01*
D10*
D11*
X287002200Y-110000000D02*
X285002200Y-110000000D01*
D10*
D11*
X287002200Y-160000000D02*
X285002200Y-160000000D01*
D10*
D11*
X285692676Y-35222176D02*
X286311723Y-35222176D01*
X285568866Y-35593604D02*
X286002199Y-34293604D01*
X286002199Y-34293604D02*
X286435533Y-35593604D01*
D10*
D11*
X286095057Y-84912652D02*
X286280771Y-84974557D01*
X286280771Y-84974557D02*
X286342676Y-85036461D01*
X286342676Y-85036461D02*
X286404580Y-85160271D01*
X286404580Y-85160271D02*
X286404580Y-85345985D01*
X286404580Y-85345985D02*
X286342676Y-85469795D01*
X286342676Y-85469795D02*
X286280771Y-85531700D01*
X286280771Y-85531700D02*
X286156961Y-85593604D01*
X286156961Y-85593604D02*
X285661723Y-85593604D01*
X285661723Y-85593604D02*
X285661723Y-84293604D01*
X285661723Y-84293604D02*
X286095057Y-84293604D01*
X286095057Y-84293604D02*
X286218866Y-84355509D01*
X286218866Y-84355509D02*
X286280771Y-84417414D01*
X286280771Y-84417414D02*
X286342676Y-84541223D01*
X286342676Y-84541223D02*
X286342676Y-84665033D01*
X286342676Y-84665033D02*
X286280771Y-84788842D01*
X286280771Y-84788842D02*
X286218866Y-84850747D01*
X286218866Y-84850747D02*
X286095057Y-84912652D01*
X286095057Y-84912652D02*
X285661723Y-84912652D01*
D10*
D11*
X286404580Y-135469795D02*
X286342676Y-135531700D01*
X286342676Y-135531700D02*
X286156961Y-135593604D01*
X286156961Y-135593604D02*
X286033152Y-135593604D01*
X286033152Y-135593604D02*
X285847438Y-135531700D01*
X285847438Y-135531700D02*
X285723628Y-135407890D01*
X285723628Y-135407890D02*
X285661723Y-135284080D01*
X285661723Y-135284080D02*
X285599819Y-135036461D01*
X285599819Y-135036461D02*
X285599819Y-134850747D01*
X285599819Y-134850747D02*
X285661723Y-134603128D01*
X285661723Y-134603128D02*
X285723628Y-134479319D01*
X285723628Y-134479319D02*
X285847438Y-134355509D01*
X285847438Y-134355509D02*
X286033152Y-134293604D01*
X286033152Y-134293604D02*
X286156961Y-134293604D01*
X286156961Y-134293604D02*
X286342676Y-134355509D01*
X286342676Y-134355509D02*
X286404580Y-134417414D01*
D10*
D11*
X285661723Y-185593604D02*
X285661723Y-184293604D01*
X285661723Y-184293604D02*
X285971247Y-184293604D01*
X285971247Y-184293604D02*
X286156961Y-184355509D01*
X286156961Y-184355509D02*
X286280771Y-184479319D01*
X286280771Y-184479319D02*
X286342676Y-184603128D01*
X286342676Y-184603128D02*
X286404580Y-184850747D01*
X286404580Y-184850747D02*
X286404580Y-185036461D01*
X286404580Y-185036461D02*
X286342676Y-185284080D01*
X286342676Y-185284080D02*
X286280771Y-185407890D01*
X286280771Y-185407890D02*
X286156961Y-185531700D01*
X286156961Y-185531700D02*
X285971247Y-185593604D01*
X285971247Y-185593604D02*
X285661723Y-185593604D01*
D10*
D11*
X200458026Y-193793328D02*
X200458026Y-192293328D01*
X200458026Y-192293328D02*
X200815169Y-192293328D01*
X200815169Y-192293328D02*
X201029455Y-192364757D01*
X201029455Y-192364757D02*
X201172312Y-192507614D01*
X201172312Y-192507614D02*
X201243741Y-192650471D01*
X201243741Y-192650471D02*
X201315169Y-192936185D01*
X201315169Y-192936185D02*
X201315169Y-193150471D01*
X201315169Y-193150471D02*
X201243741Y-193436185D01*
X201243741Y-193436185D02*
X201172312Y-193579042D01*
X201172312Y-193579042D02*
X201029455Y-193721900D01*
X201029455Y-193721900D02*
X200815169Y-193793328D01*
X200815169Y-193793328D02*
X200458026Y-193793328D01*
X202600884Y-193793328D02*
X202600884Y-193007614D01*
X202600884Y-193007614D02*
X202529455Y-192864757D01*
X202529455Y-192864757D02*
X202386598Y-192793328D01*
X202386598Y-192793328D02*
X202100884Y-192793328D01*
X202100884Y-192793328D02*
X201958026Y-192864757D01*
X202600884Y-193721900D02*
X202458026Y-193793328D01*
X202458026Y-193793328D02*
X202100884Y-193793328D01*
X202100884Y-193793328D02*
X201958026Y-193721900D01*
X201958026Y-193721900D02*
X201886598Y-193579042D01*
X201886598Y-193579042D02*
X201886598Y-193436185D01*
X201886598Y-193436185D02*
X201958026Y-193293328D01*
X201958026Y-193293328D02*
X202100884Y-193221900D01*
X202100884Y-193221900D02*
X202458026Y-193221900D01*
X202458026Y-193221900D02*
X202600884Y-193150471D01*
X203100884Y-192793328D02*
X203672312Y-192793328D01*
X203315169Y-192293328D02*
X203315169Y-193579042D01*
X203315169Y-193579042D02*
X203386598Y-193721900D01*
X203386598Y-193721900D02*
X203529455Y-193793328D01*
X203529455Y-193793328D02*
X203672312Y-193793328D01*
X204743741Y-193721900D02*
X204600884Y-193793328D01*
X204600884Y-193793328D02*
X204315170Y-193793328D01*
X204315170Y-193793328D02*
X204172312Y-193721900D01*
X204172312Y-193721900D02*
X204100884Y-193579042D01*
X204100884Y-193579042D02*
X204100884Y-193007614D01*
X204100884Y-193007614D02*
X204172312Y-192864757D01*
X204172312Y-192864757D02*
X204315170Y-192793328D01*
X204315170Y-192793328D02*
X204600884Y-192793328D01*
X204600884Y-192793328D02*
X204743741Y-192864757D01*
X204743741Y-192864757D02*
X204815170Y-193007614D01*
X204815170Y-193007614D02*
X204815170Y-193150471D01*
X204815170Y-193150471D02*
X204100884Y-193293328D01*
X205458026Y-193650471D02*
X205529455Y-193721900D01*
X205529455Y-193721900D02*
X205458026Y-193793328D01*
X205458026Y-193793328D02*
X205386598Y-193721900D01*
X205386598Y-193721900D02*
X205458026Y-193650471D01*
X205458026Y-193650471D02*
X205458026Y-193793328D01*
X205458026Y-192864757D02*
X205529455Y-192936185D01*
X205529455Y-192936185D02*
X205458026Y-193007614D01*
X205458026Y-193007614D02*
X205386598Y-192936185D01*
X205386598Y-192936185D02*
X205458026Y-192864757D01*
X205458026Y-192864757D02*
X205458026Y-193007614D01*
D10*
D11*
X177002200Y-194507200D02*
X285002200Y-194507200D01*
D10*
D11*
X178458026Y-196593328D02*
X178458026Y-195093328D01*
X179315169Y-196593328D02*
X178672312Y-195736185D01*
X179315169Y-195093328D02*
X178458026Y-195950471D01*
X179958026Y-196593328D02*
X179958026Y-195593328D01*
X179958026Y-195093328D02*
X179886598Y-195164757D01*
X179886598Y-195164757D02*
X179958026Y-195236185D01*
X179958026Y-195236185D02*
X180029455Y-195164757D01*
X180029455Y-195164757D02*
X179958026Y-195093328D01*
X179958026Y-195093328D02*
X179958026Y-195236185D01*
X181529455Y-196450471D02*
X181458027Y-196521900D01*
X181458027Y-196521900D02*
X181243741Y-196593328D01*
X181243741Y-196593328D02*
X181100884Y-196593328D01*
X181100884Y-196593328D02*
X180886598Y-196521900D01*
X180886598Y-196521900D02*
X180743741Y-196379042D01*
X180743741Y-196379042D02*
X180672312Y-196236185D01*
X180672312Y-196236185D02*
X180600884Y-195950471D01*
X180600884Y-195950471D02*
X180600884Y-195736185D01*
X180600884Y-195736185D02*
X180672312Y-195450471D01*
X180672312Y-195450471D02*
X180743741Y-195307614D01*
X180743741Y-195307614D02*
X180886598Y-195164757D01*
X180886598Y-195164757D02*
X181100884Y-195093328D01*
X181100884Y-195093328D02*
X181243741Y-195093328D01*
X181243741Y-195093328D02*
X181458027Y-195164757D01*
X181458027Y-195164757D02*
X181529455Y-195236185D01*
X182815170Y-196593328D02*
X182815170Y-195807614D01*
X182815170Y-195807614D02*
X182743741Y-195664757D01*
X182743741Y-195664757D02*
X182600884Y-195593328D01*
X182600884Y-195593328D02*
X182315170Y-195593328D01*
X182315170Y-195593328D02*
X182172312Y-195664757D01*
X182815170Y-196521900D02*
X182672312Y-196593328D01*
X182672312Y-196593328D02*
X182315170Y-196593328D01*
X182315170Y-196593328D02*
X182172312Y-196521900D01*
X182172312Y-196521900D02*
X182100884Y-196379042D01*
X182100884Y-196379042D02*
X182100884Y-196236185D01*
X182100884Y-196236185D02*
X182172312Y-196093328D01*
X182172312Y-196093328D02*
X182315170Y-196021900D01*
X182315170Y-196021900D02*
X182672312Y-196021900D01*
X182672312Y-196021900D02*
X182815170Y-195950471D01*
X184172313Y-196593328D02*
X184172313Y-195093328D01*
X184172313Y-196521900D02*
X184029455Y-196593328D01*
X184029455Y-196593328D02*
X183743741Y-196593328D01*
X183743741Y-196593328D02*
X183600884Y-196521900D01*
X183600884Y-196521900D02*
X183529455Y-196450471D01*
X183529455Y-196450471D02*
X183458027Y-196307614D01*
X183458027Y-196307614D02*
X183458027Y-195879042D01*
X183458027Y-195879042D02*
X183529455Y-195736185D01*
X183529455Y-195736185D02*
X183600884Y-195664757D01*
X183600884Y-195664757D02*
X183743741Y-195593328D01*
X183743741Y-195593328D02*
X184029455Y-195593328D01*
X184029455Y-195593328D02*
X184172313Y-195664757D01*
X186029455Y-195807614D02*
X186529455Y-195807614D01*
X186743741Y-196593328D02*
X186029455Y-196593328D01*
X186029455Y-196593328D02*
X186029455Y-195093328D01*
X186029455Y-195093328D02*
X186743741Y-195093328D01*
X187386598Y-196450471D02*
X187458027Y-196521900D01*
X187458027Y-196521900D02*
X187386598Y-196593328D01*
X187386598Y-196593328D02*
X187315170Y-196521900D01*
X187315170Y-196521900D02*
X187386598Y-196450471D01*
X187386598Y-196450471D02*
X187386598Y-196593328D01*
X188100884Y-196593328D02*
X188100884Y-195093328D01*
X188100884Y-195093328D02*
X188458027Y-195093328D01*
X188458027Y-195093328D02*
X188672313Y-195164757D01*
X188672313Y-195164757D02*
X188815170Y-195307614D01*
X188815170Y-195307614D02*
X188886599Y-195450471D01*
X188886599Y-195450471D02*
X188958027Y-195736185D01*
X188958027Y-195736185D02*
X188958027Y-195950471D01*
X188958027Y-195950471D02*
X188886599Y-196236185D01*
X188886599Y-196236185D02*
X188815170Y-196379042D01*
X188815170Y-196379042D02*
X188672313Y-196521900D01*
X188672313Y-196521900D02*
X188458027Y-196593328D01*
X188458027Y-196593328D02*
X188100884Y-196593328D01*
X189600884Y-196450471D02*
X189672313Y-196521900D01*
X189672313Y-196521900D02*
X189600884Y-196593328D01*
X189600884Y-196593328D02*
X189529456Y-196521900D01*
X189529456Y-196521900D02*
X189600884Y-196450471D01*
X189600884Y-196450471D02*
X189600884Y-196593328D01*
X190243742Y-196164757D02*
X190958028Y-196164757D01*
X190100885Y-196593328D02*
X190600885Y-195093328D01*
X190600885Y-195093328D02*
X191100885Y-196593328D01*
X191600884Y-196450471D02*
X191672313Y-196521900D01*
X191672313Y-196521900D02*
X191600884Y-196593328D01*
X191600884Y-196593328D02*
X191529456Y-196521900D01*
X191529456Y-196521900D02*
X191600884Y-196450471D01*
X191600884Y-196450471D02*
X191600884Y-196593328D01*
X193529456Y-196593328D02*
X193815170Y-196593328D01*
X193815170Y-196593328D02*
X193958027Y-196521900D01*
X193958027Y-196521900D02*
X194029456Y-196450471D01*
X194029456Y-196450471D02*
X194172313Y-196236185D01*
X194172313Y-196236185D02*
X194243742Y-195950471D01*
X194243742Y-195950471D02*
X194243742Y-195379042D01*
X194243742Y-195379042D02*
X194172313Y-195236185D01*
X194172313Y-195236185D02*
X194100885Y-195164757D01*
X194100885Y-195164757D02*
X193958027Y-195093328D01*
X193958027Y-195093328D02*
X193672313Y-195093328D01*
X193672313Y-195093328D02*
X193529456Y-195164757D01*
X193529456Y-195164757D02*
X193458027Y-195236185D01*
X193458027Y-195236185D02*
X193386599Y-195379042D01*
X193386599Y-195379042D02*
X193386599Y-195736185D01*
X193386599Y-195736185D02*
X193458027Y-195879042D01*
X193458027Y-195879042D02*
X193529456Y-195950471D01*
X193529456Y-195950471D02*
X193672313Y-196021900D01*
X193672313Y-196021900D02*
X193958027Y-196021900D01*
X193958027Y-196021900D02*
X194100885Y-195950471D01*
X194100885Y-195950471D02*
X194172313Y-195879042D01*
X194172313Y-195879042D02*
X194243742Y-195736185D01*
X194886598Y-196450471D02*
X194958027Y-196521900D01*
X194958027Y-196521900D02*
X194886598Y-196593328D01*
X194886598Y-196593328D02*
X194815170Y-196521900D01*
X194815170Y-196521900D02*
X194886598Y-196450471D01*
X194886598Y-196450471D02*
X194886598Y-196593328D01*
X195886599Y-195093328D02*
X196029456Y-195093328D01*
X196029456Y-195093328D02*
X196172313Y-195164757D01*
X196172313Y-195164757D02*
X196243742Y-195236185D01*
X196243742Y-195236185D02*
X196315170Y-195379042D01*
X196315170Y-195379042D02*
X196386599Y-195664757D01*
X196386599Y-195664757D02*
X196386599Y-196021900D01*
X196386599Y-196021900D02*
X196315170Y-196307614D01*
X196315170Y-196307614D02*
X196243742Y-196450471D01*
X196243742Y-196450471D02*
X196172313Y-196521900D01*
X196172313Y-196521900D02*
X196029456Y-196593328D01*
X196029456Y-196593328D02*
X195886599Y-196593328D01*
X195886599Y-196593328D02*
X195743742Y-196521900D01*
X195743742Y-196521900D02*
X195672313Y-196450471D01*
X195672313Y-196450471D02*
X195600884Y-196307614D01*
X195600884Y-196307614D02*
X195529456Y-196021900D01*
X195529456Y-196021900D02*
X195529456Y-195664757D01*
X195529456Y-195664757D02*
X195600884Y-195379042D01*
X195600884Y-195379042D02*
X195672313Y-195236185D01*
X195672313Y-195236185D02*
X195743742Y-195164757D01*
X195743742Y-195164757D02*
X195886599Y-195093328D01*
X197029455Y-196450471D02*
X197100884Y-196521900D01*
X197100884Y-196521900D02*
X197029455Y-196593328D01*
X197029455Y-196593328D02*
X196958027Y-196521900D01*
X196958027Y-196521900D02*
X197029455Y-196450471D01*
X197029455Y-196450471D02*
X197029455Y-196593328D01*
X198386599Y-195093328D02*
X198100884Y-195093328D01*
X198100884Y-195093328D02*
X197958027Y-195164757D01*
X197958027Y-195164757D02*
X197886599Y-195236185D01*
X197886599Y-195236185D02*
X197743741Y-195450471D01*
X197743741Y-195450471D02*
X197672313Y-195736185D01*
X197672313Y-195736185D02*
X197672313Y-196307614D01*
X197672313Y-196307614D02*
X197743741Y-196450471D01*
X197743741Y-196450471D02*
X197815170Y-196521900D01*
X197815170Y-196521900D02*
X197958027Y-196593328D01*
X197958027Y-196593328D02*
X198243741Y-196593328D01*
X198243741Y-196593328D02*
X198386599Y-196521900D01*
X198386599Y-196521900D02*
X198458027Y-196450471D01*
X198458027Y-196450471D02*
X198529456Y-196307614D01*
X198529456Y-196307614D02*
X198529456Y-195950471D01*
X198529456Y-195950471D02*
X198458027Y-195807614D01*
X198458027Y-195807614D02*
X198386599Y-195736185D01*
X198386599Y-195736185D02*
X198243741Y-195664757D01*
X198243741Y-195664757D02*
X197958027Y-195664757D01*
X197958027Y-195664757D02*
X197815170Y-195736185D01*
X197815170Y-195736185D02*
X197743741Y-195807614D01*
X197743741Y-195807614D02*
X197672313Y-195950471D01*
D10*
D11*
X177002200Y-191507200D02*
X285002200Y-191507200D01*
D10*
D12*
X264413853Y-193785528D02*
X263913853Y-193071242D01*
X263556710Y-193785528D02*
X263556710Y-192285528D01*
X263556710Y-192285528D02*
X264128139Y-192285528D01*
X264128139Y-192285528D02*
X264270996Y-192356957D01*
X264270996Y-192356957D02*
X264342425Y-192428385D01*
X264342425Y-192428385D02*
X264413853Y-192571242D01*
X264413853Y-192571242D02*
X264413853Y-192785528D01*
X264413853Y-192785528D02*
X264342425Y-192928385D01*
X264342425Y-192928385D02*
X264270996Y-192999814D01*
X264270996Y-192999814D02*
X264128139Y-193071242D01*
X264128139Y-193071242D02*
X263556710Y-193071242D01*
X265628139Y-193714100D02*
X265485282Y-193785528D01*
X265485282Y-193785528D02*
X265199568Y-193785528D01*
X265199568Y-193785528D02*
X265056710Y-193714100D01*
X265056710Y-193714100D02*
X264985282Y-193571242D01*
X264985282Y-193571242D02*
X264985282Y-192999814D01*
X264985282Y-192999814D02*
X265056710Y-192856957D01*
X265056710Y-192856957D02*
X265199568Y-192785528D01*
X265199568Y-192785528D02*
X265485282Y-192785528D01*
X265485282Y-192785528D02*
X265628139Y-192856957D01*
X265628139Y-192856957D02*
X265699568Y-192999814D01*
X265699568Y-192999814D02*
X265699568Y-193142671D01*
X265699568Y-193142671D02*
X264985282Y-193285528D01*
X266199567Y-192785528D02*
X266556710Y-193785528D01*
X266556710Y-193785528D02*
X266913853Y-192785528D01*
X267485281Y-193642671D02*
X267556710Y-193714100D01*
X267556710Y-193714100D02*
X267485281Y-193785528D01*
X267485281Y-193785528D02*
X267413853Y-193714100D01*
X267413853Y-193714100D02*
X267485281Y-193642671D01*
X267485281Y-193642671D02*
X267485281Y-193785528D01*
X267485281Y-192856957D02*
X267556710Y-192928385D01*
X267556710Y-192928385D02*
X267485281Y-192999814D01*
X267485281Y-192999814D02*
X267413853Y-192928385D01*
X267413853Y-192928385D02*
X267485281Y-192856957D01*
X267485281Y-192856957D02*
X267485281Y-192999814D01*
D10*
D11*
X178386598Y-193721900D02*
X178600884Y-193793328D01*
X178600884Y-193793328D02*
X178958026Y-193793328D01*
X178958026Y-193793328D02*
X179100884Y-193721900D01*
X179100884Y-193721900D02*
X179172312Y-193650471D01*
X179172312Y-193650471D02*
X179243741Y-193507614D01*
X179243741Y-193507614D02*
X179243741Y-193364757D01*
X179243741Y-193364757D02*
X179172312Y-193221900D01*
X179172312Y-193221900D02*
X179100884Y-193150471D01*
X179100884Y-193150471D02*
X178958026Y-193079042D01*
X178958026Y-193079042D02*
X178672312Y-193007614D01*
X178672312Y-193007614D02*
X178529455Y-192936185D01*
X178529455Y-192936185D02*
X178458026Y-192864757D01*
X178458026Y-192864757D02*
X178386598Y-192721900D01*
X178386598Y-192721900D02*
X178386598Y-192579042D01*
X178386598Y-192579042D02*
X178458026Y-192436185D01*
X178458026Y-192436185D02*
X178529455Y-192364757D01*
X178529455Y-192364757D02*
X178672312Y-192293328D01*
X178672312Y-192293328D02*
X179029455Y-192293328D01*
X179029455Y-192293328D02*
X179243741Y-192364757D01*
X179886597Y-193793328D02*
X179886597Y-192793328D01*
X179886597Y-192293328D02*
X179815169Y-192364757D01*
X179815169Y-192364757D02*
X179886597Y-192436185D01*
X179886597Y-192436185D02*
X179958026Y-192364757D01*
X179958026Y-192364757D02*
X179886597Y-192293328D01*
X179886597Y-192293328D02*
X179886597Y-192436185D01*
X180458026Y-192793328D02*
X181243741Y-192793328D01*
X181243741Y-192793328D02*
X180458026Y-193793328D01*
X180458026Y-193793328D02*
X181243741Y-193793328D01*
X182386598Y-193721900D02*
X182243741Y-193793328D01*
X182243741Y-193793328D02*
X181958027Y-193793328D01*
X181958027Y-193793328D02*
X181815169Y-193721900D01*
X181815169Y-193721900D02*
X181743741Y-193579042D01*
X181743741Y-193579042D02*
X181743741Y-193007614D01*
X181743741Y-193007614D02*
X181815169Y-192864757D01*
X181815169Y-192864757D02*
X181958027Y-192793328D01*
X181958027Y-192793328D02*
X182243741Y-192793328D01*
X182243741Y-192793328D02*
X182386598Y-192864757D01*
X182386598Y-192864757D02*
X182458027Y-193007614D01*
X182458027Y-193007614D02*
X182458027Y-193150471D01*
X182458027Y-193150471D02*
X181743741Y-193293328D01*
X183100883Y-193650471D02*
X183172312Y-193721900D01*
X183172312Y-193721900D02*
X183100883Y-193793328D01*
X183100883Y-193793328D02*
X183029455Y-193721900D01*
X183029455Y-193721900D02*
X183100883Y-193650471D01*
X183100883Y-193650471D02*
X183100883Y-193793328D01*
X183100883Y-192864757D02*
X183172312Y-192936185D01*
X183172312Y-192936185D02*
X183100883Y-193007614D01*
X183100883Y-193007614D02*
X183029455Y-192936185D01*
X183029455Y-192936185D02*
X183100883Y-192864757D01*
X183100883Y-192864757D02*
X183100883Y-193007614D01*
X184886598Y-193364757D02*
X185600884Y-193364757D01*
X184743741Y-193793328D02*
X185243741Y-192293328D01*
X185243741Y-192293328D02*
X185743741Y-193793328D01*
X186886598Y-192793328D02*
X186886598Y-193793328D01*
X186529455Y-192221900D02*
X186172312Y-193293328D01*
X186172312Y-193293328D02*
X187100883Y-193293328D01*
D10*
D11*
X263458026Y-196593328D02*
X263458026Y-195093328D01*
X264815170Y-196593328D02*
X264815170Y-195093328D01*
X264815170Y-196521900D02*
X264672312Y-196593328D01*
X264672312Y-196593328D02*
X264386598Y-196593328D01*
X264386598Y-196593328D02*
X264243741Y-196521900D01*
X264243741Y-196521900D02*
X264172312Y-196450471D01*
X264172312Y-196450471D02*
X264100884Y-196307614D01*
X264100884Y-196307614D02*
X264100884Y-195879042D01*
X264100884Y-195879042D02*
X264172312Y-195736185D01*
X264172312Y-195736185D02*
X264243741Y-195664757D01*
X264243741Y-195664757D02*
X264386598Y-195593328D01*
X264386598Y-195593328D02*
X264672312Y-195593328D01*
X264672312Y-195593328D02*
X264815170Y-195664757D01*
X265529455Y-196450471D02*
X265600884Y-196521900D01*
X265600884Y-196521900D02*
X265529455Y-196593328D01*
X265529455Y-196593328D02*
X265458027Y-196521900D01*
X265458027Y-196521900D02*
X265529455Y-196450471D01*
X265529455Y-196450471D02*
X265529455Y-196593328D01*
X265529455Y-195664757D02*
X265600884Y-195736185D01*
X265600884Y-195736185D02*
X265529455Y-195807614D01*
X265529455Y-195807614D02*
X265458027Y-195736185D01*
X265458027Y-195736185D02*
X265529455Y-195664757D01*
X265529455Y-195664757D02*
X265529455Y-195807614D01*
X268029456Y-195093328D02*
X267743741Y-195093328D01*
X267743741Y-195093328D02*
X267600884Y-195164757D01*
X267600884Y-195164757D02*
X267529456Y-195236185D01*
X267529456Y-195236185D02*
X267386598Y-195450471D01*
X267386598Y-195450471D02*
X267315170Y-195736185D01*
X267315170Y-195736185D02*
X267315170Y-196307614D01*
X267315170Y-196307614D02*
X267386598Y-196450471D01*
X267386598Y-196450471D02*
X267458027Y-196521900D01*
X267458027Y-196521900D02*
X267600884Y-196593328D01*
X267600884Y-196593328D02*
X267886598Y-196593328D01*
X267886598Y-196593328D02*
X268029456Y-196521900D01*
X268029456Y-196521900D02*
X268100884Y-196450471D01*
X268100884Y-196450471D02*
X268172313Y-196307614D01*
X268172313Y-196307614D02*
X268172313Y-195950471D01*
X268172313Y-195950471D02*
X268100884Y-195807614D01*
X268100884Y-195807614D02*
X268029456Y-195736185D01*
X268029456Y-195736185D02*
X267886598Y-195664757D01*
X267886598Y-195664757D02*
X267600884Y-195664757D01*
X267600884Y-195664757D02*
X267458027Y-195736185D01*
X267458027Y-195736185D02*
X267386598Y-195807614D01*
X267386598Y-195807614D02*
X267315170Y-195950471D01*
X269886598Y-195021900D02*
X268600884Y-196950471D01*
X270458027Y-196593328D02*
X270743741Y-196593328D01*
X270743741Y-196593328D02*
X270886598Y-196521900D01*
X270886598Y-196521900D02*
X270958027Y-196450471D01*
X270958027Y-196450471D02*
X271100884Y-196236185D01*
X271100884Y-196236185D02*
X271172313Y-195950471D01*
X271172313Y-195950471D02*
X271172313Y-195379042D01*
X271172313Y-195379042D02*
X271100884Y-195236185D01*
X271100884Y-195236185D02*
X271029456Y-195164757D01*
X271029456Y-195164757D02*
X270886598Y-195093328D01*
X270886598Y-195093328D02*
X270600884Y-195093328D01*
X270600884Y-195093328D02*
X270458027Y-195164757D01*
X270458027Y-195164757D02*
X270386598Y-195236185D01*
X270386598Y-195236185D02*
X270315170Y-195379042D01*
X270315170Y-195379042D02*
X270315170Y-195736185D01*
X270315170Y-195736185D02*
X270386598Y-195879042D01*
X270386598Y-195879042D02*
X270458027Y-195950471D01*
X270458027Y-195950471D02*
X270600884Y-196021900D01*
X270600884Y-196021900D02*
X270886598Y-196021900D01*
X270886598Y-196021900D02*
X271029456Y-195950471D01*
X271029456Y-195950471D02*
X271100884Y-195879042D01*
X271100884Y-195879042D02*
X271172313Y-195736185D01*
D10*
D11*
X177002200Y-187507200D02*
X285002200Y-187507200D01*
D10*
D13*
X178693928Y-188211638D02*
X179836785Y-188211638D01*
X179015357Y-190211638D02*
X179265357Y-188211638D01*
X180253452Y-190211638D02*
X180420119Y-188878304D01*
X180503452Y-188211638D02*
X180396309Y-188306876D01*
X180396309Y-188306876D02*
X180479643Y-188402114D01*
X180479643Y-188402114D02*
X180586786Y-188306876D01*
X180586786Y-188306876D02*
X180503452Y-188211638D01*
X180503452Y-188211638D02*
X180479643Y-188402114D01*
X181086786Y-188878304D02*
X181848690Y-188878304D01*
X181455833Y-188211638D02*
X181241548Y-189925923D01*
X181241548Y-189925923D02*
X181312976Y-190116400D01*
X181312976Y-190116400D02*
X181491548Y-190211638D01*
X181491548Y-190211638D02*
X181682024Y-190211638D01*
X182634405Y-190211638D02*
X182455833Y-190116400D01*
X182455833Y-190116400D02*
X182384405Y-189925923D01*
X182384405Y-189925923D02*
X182598690Y-188211638D01*
X184170119Y-190116400D02*
X183967738Y-190211638D01*
X183967738Y-190211638D02*
X183586785Y-190211638D01*
X183586785Y-190211638D02*
X183408214Y-190116400D01*
X183408214Y-190116400D02*
X183336785Y-189925923D01*
X183336785Y-189925923D02*
X183432024Y-189164019D01*
X183432024Y-189164019D02*
X183551071Y-188973542D01*
X183551071Y-188973542D02*
X183753452Y-188878304D01*
X183753452Y-188878304D02*
X184134404Y-188878304D01*
X184134404Y-188878304D02*
X184312976Y-188973542D01*
X184312976Y-188973542D02*
X184384404Y-189164019D01*
X184384404Y-189164019D02*
X184360595Y-189354495D01*
X184360595Y-189354495D02*
X183384404Y-189544971D01*
X185134405Y-190021161D02*
X185217738Y-190116400D01*
X185217738Y-190116400D02*
X185110595Y-190211638D01*
X185110595Y-190211638D02*
X185027262Y-190116400D01*
X185027262Y-190116400D02*
X185134405Y-190021161D01*
X185134405Y-190021161D02*
X185110595Y-190211638D01*
X185265357Y-188973542D02*
X185348690Y-189068780D01*
X185348690Y-189068780D02*
X185241548Y-189164019D01*
X185241548Y-189164019D02*
X185158214Y-189068780D01*
X185158214Y-189068780D02*
X185265357Y-188973542D01*
X185265357Y-188973542D02*
X185241548Y-189164019D01*
D10*
D11*
X178958026Y-185607614D02*
X178458026Y-185607614D01*
X178458026Y-186393328D02*
X178458026Y-184893328D01*
X178458026Y-184893328D02*
X179172312Y-184893328D01*
X179743740Y-186393328D02*
X179743740Y-185393328D01*
X179743740Y-184893328D02*
X179672312Y-184964757D01*
X179672312Y-184964757D02*
X179743740Y-185036185D01*
X179743740Y-185036185D02*
X179815169Y-184964757D01*
X179815169Y-184964757D02*
X179743740Y-184893328D01*
X179743740Y-184893328D02*
X179743740Y-185036185D01*
X180672312Y-186393328D02*
X180529455Y-186321900D01*
X180529455Y-186321900D02*
X180458026Y-186179042D01*
X180458026Y-186179042D02*
X180458026Y-184893328D01*
X181815169Y-186321900D02*
X181672312Y-186393328D01*
X181672312Y-186393328D02*
X181386598Y-186393328D01*
X181386598Y-186393328D02*
X181243740Y-186321900D01*
X181243740Y-186321900D02*
X181172312Y-186179042D01*
X181172312Y-186179042D02*
X181172312Y-185607614D01*
X181172312Y-185607614D02*
X181243740Y-185464757D01*
X181243740Y-185464757D02*
X181386598Y-185393328D01*
X181386598Y-185393328D02*
X181672312Y-185393328D01*
X181672312Y-185393328D02*
X181815169Y-185464757D01*
X181815169Y-185464757D02*
X181886598Y-185607614D01*
X181886598Y-185607614D02*
X181886598Y-185750471D01*
X181886598Y-185750471D02*
X181172312Y-185893328D01*
X182529454Y-186250471D02*
X182600883Y-186321900D01*
X182600883Y-186321900D02*
X182529454Y-186393328D01*
X182529454Y-186393328D02*
X182458026Y-186321900D01*
X182458026Y-186321900D02*
X182529454Y-186250471D01*
X182529454Y-186250471D02*
X182529454Y-186393328D01*
X182529454Y-185464757D02*
X182600883Y-185536185D01*
X182600883Y-185536185D02*
X182529454Y-185607614D01*
X182529454Y-185607614D02*
X182458026Y-185536185D01*
X182458026Y-185536185D02*
X182529454Y-185464757D01*
X182529454Y-185464757D02*
X182529454Y-185607614D01*
X184386597Y-186393328D02*
X184386597Y-185393328D01*
X184386597Y-185536185D02*
X184458026Y-185464757D01*
X184458026Y-185464757D02*
X184600883Y-185393328D01*
X184600883Y-185393328D02*
X184815169Y-185393328D01*
X184815169Y-185393328D02*
X184958026Y-185464757D01*
X184958026Y-185464757D02*
X185029455Y-185607614D01*
X185029455Y-185607614D02*
X185029455Y-186393328D01*
X185029455Y-185607614D02*
X185100883Y-185464757D01*
X185100883Y-185464757D02*
X185243740Y-185393328D01*
X185243740Y-185393328D02*
X185458026Y-185393328D01*
X185458026Y-185393328D02*
X185600883Y-185464757D01*
X185600883Y-185464757D02*
X185672312Y-185607614D01*
X185672312Y-185607614D02*
X185672312Y-186393328D01*
X186386597Y-186393328D02*
X186386597Y-185393328D01*
X186386597Y-184893328D02*
X186315169Y-184964757D01*
X186315169Y-184964757D02*
X186386597Y-185036185D01*
X186386597Y-185036185D02*
X186458026Y-184964757D01*
X186458026Y-184964757D02*
X186386597Y-184893328D01*
X186386597Y-184893328D02*
X186386597Y-185036185D01*
X187743741Y-186321900D02*
X187600883Y-186393328D01*
X187600883Y-186393328D02*
X187315169Y-186393328D01*
X187315169Y-186393328D02*
X187172312Y-186321900D01*
X187172312Y-186321900D02*
X187100883Y-186250471D01*
X187100883Y-186250471D02*
X187029455Y-186107614D01*
X187029455Y-186107614D02*
X187029455Y-185679042D01*
X187029455Y-185679042D02*
X187100883Y-185536185D01*
X187100883Y-185536185D02*
X187172312Y-185464757D01*
X187172312Y-185464757D02*
X187315169Y-185393328D01*
X187315169Y-185393328D02*
X187600883Y-185393328D01*
X187600883Y-185393328D02*
X187743741Y-185464757D01*
X188386597Y-186393328D02*
X188386597Y-185393328D01*
X188386597Y-185679042D02*
X188458026Y-185536185D01*
X188458026Y-185536185D02*
X188529455Y-185464757D01*
X188529455Y-185464757D02*
X188672312Y-185393328D01*
X188672312Y-185393328D02*
X188815169Y-185393328D01*
X189529454Y-186393328D02*
X189386597Y-186321900D01*
X189386597Y-186321900D02*
X189315168Y-186250471D01*
X189315168Y-186250471D02*
X189243740Y-186107614D01*
X189243740Y-186107614D02*
X189243740Y-185679042D01*
X189243740Y-185679042D02*
X189315168Y-185536185D01*
X189315168Y-185536185D02*
X189386597Y-185464757D01*
X189386597Y-185464757D02*
X189529454Y-185393328D01*
X189529454Y-185393328D02*
X189743740Y-185393328D01*
X189743740Y-185393328D02*
X189886597Y-185464757D01*
X189886597Y-185464757D02*
X189958026Y-185536185D01*
X189958026Y-185536185D02*
X190029454Y-185679042D01*
X190029454Y-185679042D02*
X190029454Y-186107614D01*
X190029454Y-186107614D02*
X189958026Y-186250471D01*
X189958026Y-186250471D02*
X189886597Y-186321900D01*
X189886597Y-186321900D02*
X189743740Y-186393328D01*
X189743740Y-186393328D02*
X189529454Y-186393328D01*
X191315169Y-186321900D02*
X191172311Y-186393328D01*
X191172311Y-186393328D02*
X190886597Y-186393328D01*
X190886597Y-186393328D02*
X190743740Y-186321900D01*
X190743740Y-186321900D02*
X190672311Y-186250471D01*
X190672311Y-186250471D02*
X190600883Y-186107614D01*
X190600883Y-186107614D02*
X190600883Y-185679042D01*
X190600883Y-185679042D02*
X190672311Y-185536185D01*
X190672311Y-185536185D02*
X190743740Y-185464757D01*
X190743740Y-185464757D02*
X190886597Y-185393328D01*
X190886597Y-185393328D02*
X191172311Y-185393328D01*
X191172311Y-185393328D02*
X191315169Y-185464757D01*
X192172311Y-186393328D02*
X192029454Y-186321900D01*
X192029454Y-186321900D02*
X191958025Y-186250471D01*
X191958025Y-186250471D02*
X191886597Y-186107614D01*
X191886597Y-186107614D02*
X191886597Y-185679042D01*
X191886597Y-185679042D02*
X191958025Y-185536185D01*
X191958025Y-185536185D02*
X192029454Y-185464757D01*
X192029454Y-185464757D02*
X192172311Y-185393328D01*
X192172311Y-185393328D02*
X192386597Y-185393328D01*
X192386597Y-185393328D02*
X192529454Y-185464757D01*
X192529454Y-185464757D02*
X192600883Y-185536185D01*
X192600883Y-185536185D02*
X192672311Y-185679042D01*
X192672311Y-185679042D02*
X192672311Y-186107614D01*
X192672311Y-186107614D02*
X192600883Y-186250471D01*
X192600883Y-186250471D02*
X192529454Y-186321900D01*
X192529454Y-186321900D02*
X192386597Y-186393328D01*
X192386597Y-186393328D02*
X192172311Y-186393328D01*
X193315168Y-185393328D02*
X193315168Y-186393328D01*
X193315168Y-185536185D02*
X193386597Y-185464757D01*
X193386597Y-185464757D02*
X193529454Y-185393328D01*
X193529454Y-185393328D02*
X193743740Y-185393328D01*
X193743740Y-185393328D02*
X193886597Y-185464757D01*
X193886597Y-185464757D02*
X193958026Y-185607614D01*
X193958026Y-185607614D02*
X193958026Y-186393328D01*
X194458026Y-185393328D02*
X195029454Y-185393328D01*
X194672311Y-184893328D02*
X194672311Y-186179042D01*
X194672311Y-186179042D02*
X194743740Y-186321900D01*
X194743740Y-186321900D02*
X194886597Y-186393328D01*
X194886597Y-186393328D02*
X195029454Y-186393328D01*
X195529454Y-186393328D02*
X195529454Y-185393328D01*
X195529454Y-185679042D02*
X195600883Y-185536185D01*
X195600883Y-185536185D02*
X195672312Y-185464757D01*
X195672312Y-185464757D02*
X195815169Y-185393328D01*
X195815169Y-185393328D02*
X195958026Y-185393328D01*
X196672311Y-186393328D02*
X196529454Y-186321900D01*
X196529454Y-186321900D02*
X196458025Y-186250471D01*
X196458025Y-186250471D02*
X196386597Y-186107614D01*
X196386597Y-186107614D02*
X196386597Y-185679042D01*
X196386597Y-185679042D02*
X196458025Y-185536185D01*
X196458025Y-185536185D02*
X196529454Y-185464757D01*
X196529454Y-185464757D02*
X196672311Y-185393328D01*
X196672311Y-185393328D02*
X196886597Y-185393328D01*
X196886597Y-185393328D02*
X197029454Y-185464757D01*
X197029454Y-185464757D02*
X197100883Y-185536185D01*
X197100883Y-185536185D02*
X197172311Y-185679042D01*
X197172311Y-185679042D02*
X197172311Y-186107614D01*
X197172311Y-186107614D02*
X197100883Y-186250471D01*
X197100883Y-186250471D02*
X197029454Y-186321900D01*
X197029454Y-186321900D02*
X196886597Y-186393328D01*
X196886597Y-186393328D02*
X196672311Y-186393328D01*
X198029454Y-186393328D02*
X197886597Y-186321900D01*
X197886597Y-186321900D02*
X197815168Y-186179042D01*
X197815168Y-186179042D02*
X197815168Y-184893328D01*
X198815168Y-186393328D02*
X198672311Y-186321900D01*
X198672311Y-186321900D02*
X198600882Y-186179042D01*
X198600882Y-186179042D02*
X198600882Y-184893328D01*
X199958025Y-186321900D02*
X199815168Y-186393328D01*
X199815168Y-186393328D02*
X199529454Y-186393328D01*
X199529454Y-186393328D02*
X199386596Y-186321900D01*
X199386596Y-186321900D02*
X199315168Y-186179042D01*
X199315168Y-186179042D02*
X199315168Y-185607614D01*
X199315168Y-185607614D02*
X199386596Y-185464757D01*
X199386596Y-185464757D02*
X199529454Y-185393328D01*
X199529454Y-185393328D02*
X199815168Y-185393328D01*
X199815168Y-185393328D02*
X199958025Y-185464757D01*
X199958025Y-185464757D02*
X200029454Y-185607614D01*
X200029454Y-185607614D02*
X200029454Y-185750471D01*
X200029454Y-185750471D02*
X199315168Y-185893328D01*
X200672310Y-186393328D02*
X200672310Y-185393328D01*
X200672310Y-185679042D02*
X200743739Y-185536185D01*
X200743739Y-185536185D02*
X200815168Y-185464757D01*
X200815168Y-185464757D02*
X200958025Y-185393328D01*
X200958025Y-185393328D02*
X201100882Y-185393328D01*
X201600881Y-186393328D02*
X201600881Y-185393328D01*
X201600881Y-184893328D02*
X201529453Y-184964757D01*
X201529453Y-184964757D02*
X201600881Y-185036185D01*
X201600881Y-185036185D02*
X201672310Y-184964757D01*
X201672310Y-184964757D02*
X201600881Y-184893328D01*
X201600881Y-184893328D02*
X201600881Y-185036185D01*
X202315167Y-185393328D02*
X202315167Y-186393328D01*
X202315167Y-185536185D02*
X202386596Y-185464757D01*
X202386596Y-185464757D02*
X202529453Y-185393328D01*
X202529453Y-185393328D02*
X202743739Y-185393328D01*
X202743739Y-185393328D02*
X202886596Y-185464757D01*
X202886596Y-185464757D02*
X202958025Y-185607614D01*
X202958025Y-185607614D02*
X202958025Y-186393328D01*
X204315168Y-186393328D02*
X204315168Y-185607614D01*
X204315168Y-185607614D02*
X204243739Y-185464757D01*
X204243739Y-185464757D02*
X204100882Y-185393328D01*
X204100882Y-185393328D02*
X203815168Y-185393328D01*
X203815168Y-185393328D02*
X203672310Y-185464757D01*
X204315168Y-186321900D02*
X204172310Y-186393328D01*
X204172310Y-186393328D02*
X203815168Y-186393328D01*
X203815168Y-186393328D02*
X203672310Y-186321900D01*
X203672310Y-186321900D02*
X203600882Y-186179042D01*
X203600882Y-186179042D02*
X203600882Y-186036185D01*
X203600882Y-186036185D02*
X203672310Y-185893328D01*
X203672310Y-185893328D02*
X203815168Y-185821900D01*
X203815168Y-185821900D02*
X204172310Y-185821900D01*
X204172310Y-185821900D02*
X204315168Y-185750471D01*
X204815168Y-185393328D02*
X205386596Y-185393328D01*
X205029453Y-184893328D02*
X205029453Y-186179042D01*
X205029453Y-186179042D02*
X205100882Y-186321900D01*
X205100882Y-186321900D02*
X205243739Y-186393328D01*
X205243739Y-186393328D02*
X205386596Y-186393328D01*
X206100882Y-186393328D02*
X205958025Y-186321900D01*
X205958025Y-186321900D02*
X205886596Y-186250471D01*
X205886596Y-186250471D02*
X205815168Y-186107614D01*
X205815168Y-186107614D02*
X205815168Y-185679042D01*
X205815168Y-185679042D02*
X205886596Y-185536185D01*
X205886596Y-185536185D02*
X205958025Y-185464757D01*
X205958025Y-185464757D02*
X206100882Y-185393328D01*
X206100882Y-185393328D02*
X206315168Y-185393328D01*
X206315168Y-185393328D02*
X206458025Y-185464757D01*
X206458025Y-185464757D02*
X206529454Y-185536185D01*
X206529454Y-185536185D02*
X206600882Y-185679042D01*
X206600882Y-185679042D02*
X206600882Y-186107614D01*
X206600882Y-186107614D02*
X206529454Y-186250471D01*
X206529454Y-186250471D02*
X206458025Y-186321900D01*
X206458025Y-186321900D02*
X206315168Y-186393328D01*
X206315168Y-186393328D02*
X206100882Y-186393328D01*
X207243739Y-186393328D02*
X207243739Y-185393328D01*
X207243739Y-185679042D02*
X207315168Y-185536185D01*
X207315168Y-185536185D02*
X207386597Y-185464757D01*
X207386597Y-185464757D02*
X207529454Y-185393328D01*
X207529454Y-185393328D02*
X207672311Y-185393328D01*
X208172310Y-186250471D02*
X208243739Y-186321900D01*
X208243739Y-186321900D02*
X208172310Y-186393328D01*
X208172310Y-186393328D02*
X208100882Y-186321900D01*
X208100882Y-186321900D02*
X208172310Y-186250471D01*
X208172310Y-186250471D02*
X208172310Y-186393328D01*
X208886596Y-186393328D02*
X208886596Y-184893328D01*
X209029454Y-185821900D02*
X209458025Y-186393328D01*
X209458025Y-185393328D02*
X208886596Y-185964757D01*
X210100882Y-186393328D02*
X210100882Y-185393328D01*
X210100882Y-184893328D02*
X210029454Y-184964757D01*
X210029454Y-184964757D02*
X210100882Y-185036185D01*
X210100882Y-185036185D02*
X210172311Y-184964757D01*
X210172311Y-184964757D02*
X210100882Y-184893328D01*
X210100882Y-184893328D02*
X210100882Y-185036185D01*
X211458026Y-186321900D02*
X211315168Y-186393328D01*
X211315168Y-186393328D02*
X211029454Y-186393328D01*
X211029454Y-186393328D02*
X210886597Y-186321900D01*
X210886597Y-186321900D02*
X210815168Y-186250471D01*
X210815168Y-186250471D02*
X210743740Y-186107614D01*
X210743740Y-186107614D02*
X210743740Y-185679042D01*
X210743740Y-185679042D02*
X210815168Y-185536185D01*
X210815168Y-185536185D02*
X210886597Y-185464757D01*
X210886597Y-185464757D02*
X211029454Y-185393328D01*
X211029454Y-185393328D02*
X211315168Y-185393328D01*
X211315168Y-185393328D02*
X211458026Y-185464757D01*
X212743740Y-186393328D02*
X212743740Y-185607614D01*
X212743740Y-185607614D02*
X212672311Y-185464757D01*
X212672311Y-185464757D02*
X212529454Y-185393328D01*
X212529454Y-185393328D02*
X212243740Y-185393328D01*
X212243740Y-185393328D02*
X212100882Y-185464757D01*
X212743740Y-186321900D02*
X212600882Y-186393328D01*
X212600882Y-186393328D02*
X212243740Y-186393328D01*
X212243740Y-186393328D02*
X212100882Y-186321900D01*
X212100882Y-186321900D02*
X212029454Y-186179042D01*
X212029454Y-186179042D02*
X212029454Y-186036185D01*
X212029454Y-186036185D02*
X212100882Y-185893328D01*
X212100882Y-185893328D02*
X212243740Y-185821900D01*
X212243740Y-185821900D02*
X212600882Y-185821900D01*
X212600882Y-185821900D02*
X212743740Y-185750471D01*
X214100883Y-186393328D02*
X214100883Y-184893328D01*
X214100883Y-186321900D02*
X213958025Y-186393328D01*
X213958025Y-186393328D02*
X213672311Y-186393328D01*
X213672311Y-186393328D02*
X213529454Y-186321900D01*
X213529454Y-186321900D02*
X213458025Y-186250471D01*
X213458025Y-186250471D02*
X213386597Y-186107614D01*
X213386597Y-186107614D02*
X213386597Y-185679042D01*
X213386597Y-185679042D02*
X213458025Y-185536185D01*
X213458025Y-185536185D02*
X213529454Y-185464757D01*
X213529454Y-185464757D02*
X213672311Y-185393328D01*
X213672311Y-185393328D02*
X213958025Y-185393328D01*
X213958025Y-185393328D02*
X214100883Y-185464757D01*
X214458026Y-186536185D02*
X215600883Y-186536185D01*
X215958025Y-185393328D02*
X215958025Y-186893328D01*
X215958025Y-185464757D02*
X216100883Y-185393328D01*
X216100883Y-185393328D02*
X216386597Y-185393328D01*
X216386597Y-185393328D02*
X216529454Y-185464757D01*
X216529454Y-185464757D02*
X216600883Y-185536185D01*
X216600883Y-185536185D02*
X216672311Y-185679042D01*
X216672311Y-185679042D02*
X216672311Y-186107614D01*
X216672311Y-186107614D02*
X216600883Y-186250471D01*
X216600883Y-186250471D02*
X216529454Y-186321900D01*
X216529454Y-186321900D02*
X216386597Y-186393328D01*
X216386597Y-186393328D02*
X216100883Y-186393328D01*
X216100883Y-186393328D02*
X215958025Y-186321900D01*
X217958026Y-186321900D02*
X217815168Y-186393328D01*
X217815168Y-186393328D02*
X217529454Y-186393328D01*
X217529454Y-186393328D02*
X217386597Y-186321900D01*
X217386597Y-186321900D02*
X217315168Y-186250471D01*
X217315168Y-186250471D02*
X217243740Y-186107614D01*
X217243740Y-186107614D02*
X217243740Y-185679042D01*
X217243740Y-185679042D02*
X217315168Y-185536185D01*
X217315168Y-185536185D02*
X217386597Y-185464757D01*
X217386597Y-185464757D02*
X217529454Y-185393328D01*
X217529454Y-185393328D02*
X217815168Y-185393328D01*
X217815168Y-185393328D02*
X217958026Y-185464757D01*
X218600882Y-186393328D02*
X218600882Y-184893328D01*
X218600882Y-185464757D02*
X218743740Y-185393328D01*
X218743740Y-185393328D02*
X219029454Y-185393328D01*
X219029454Y-185393328D02*
X219172311Y-185464757D01*
X219172311Y-185464757D02*
X219243740Y-185536185D01*
X219243740Y-185536185D02*
X219315168Y-185679042D01*
X219315168Y-185679042D02*
X219315168Y-186107614D01*
X219315168Y-186107614D02*
X219243740Y-186250471D01*
X219243740Y-186250471D02*
X219172311Y-186321900D01*
X219172311Y-186321900D02*
X219029454Y-186393328D01*
X219029454Y-186393328D02*
X218743740Y-186393328D01*
X218743740Y-186393328D02*
X218600882Y-186321900D01*
D10*
D11*
X177002200Y-181507200D02*
X285002200Y-181507200D01*
D10*
D11*
X178386598Y-183621900D02*
X178600884Y-183693328D01*
X178600884Y-183693328D02*
X178958026Y-183693328D01*
X178958026Y-183693328D02*
X179100884Y-183621900D01*
X179100884Y-183621900D02*
X179172312Y-183550471D01*
X179172312Y-183550471D02*
X179243741Y-183407614D01*
X179243741Y-183407614D02*
X179243741Y-183264757D01*
X179243741Y-183264757D02*
X179172312Y-183121900D01*
X179172312Y-183121900D02*
X179100884Y-183050471D01*
X179100884Y-183050471D02*
X178958026Y-182979042D01*
X178958026Y-182979042D02*
X178672312Y-182907614D01*
X178672312Y-182907614D02*
X178529455Y-182836185D01*
X178529455Y-182836185D02*
X178458026Y-182764757D01*
X178458026Y-182764757D02*
X178386598Y-182621900D01*
X178386598Y-182621900D02*
X178386598Y-182479042D01*
X178386598Y-182479042D02*
X178458026Y-182336185D01*
X178458026Y-182336185D02*
X178529455Y-182264757D01*
X178529455Y-182264757D02*
X178672312Y-182193328D01*
X178672312Y-182193328D02*
X179029455Y-182193328D01*
X179029455Y-182193328D02*
X179243741Y-182264757D01*
X179886597Y-183693328D02*
X179886597Y-182193328D01*
X180529455Y-183693328D02*
X180529455Y-182907614D01*
X180529455Y-182907614D02*
X180458026Y-182764757D01*
X180458026Y-182764757D02*
X180315169Y-182693328D01*
X180315169Y-182693328D02*
X180100883Y-182693328D01*
X180100883Y-182693328D02*
X179958026Y-182764757D01*
X179958026Y-182764757D02*
X179886597Y-182836185D01*
X181815169Y-183621900D02*
X181672312Y-183693328D01*
X181672312Y-183693328D02*
X181386598Y-183693328D01*
X181386598Y-183693328D02*
X181243740Y-183621900D01*
X181243740Y-183621900D02*
X181172312Y-183479042D01*
X181172312Y-183479042D02*
X181172312Y-182907614D01*
X181172312Y-182907614D02*
X181243740Y-182764757D01*
X181243740Y-182764757D02*
X181386598Y-182693328D01*
X181386598Y-182693328D02*
X181672312Y-182693328D01*
X181672312Y-182693328D02*
X181815169Y-182764757D01*
X181815169Y-182764757D02*
X181886598Y-182907614D01*
X181886598Y-182907614D02*
X181886598Y-183050471D01*
X181886598Y-183050471D02*
X181172312Y-183193328D01*
X183100883Y-183621900D02*
X182958026Y-183693328D01*
X182958026Y-183693328D02*
X182672312Y-183693328D01*
X182672312Y-183693328D02*
X182529454Y-183621900D01*
X182529454Y-183621900D02*
X182458026Y-183479042D01*
X182458026Y-183479042D02*
X182458026Y-182907614D01*
X182458026Y-182907614D02*
X182529454Y-182764757D01*
X182529454Y-182764757D02*
X182672312Y-182693328D01*
X182672312Y-182693328D02*
X182958026Y-182693328D01*
X182958026Y-182693328D02*
X183100883Y-182764757D01*
X183100883Y-182764757D02*
X183172312Y-182907614D01*
X183172312Y-182907614D02*
X183172312Y-183050471D01*
X183172312Y-183050471D02*
X182458026Y-183193328D01*
X183600883Y-182693328D02*
X184172311Y-182693328D01*
X183815168Y-182193328D02*
X183815168Y-183479042D01*
X183815168Y-183479042D02*
X183886597Y-183621900D01*
X183886597Y-183621900D02*
X184029454Y-183693328D01*
X184029454Y-183693328D02*
X184172311Y-183693328D01*
X184672311Y-183550471D02*
X184743740Y-183621900D01*
X184743740Y-183621900D02*
X184672311Y-183693328D01*
X184672311Y-183693328D02*
X184600883Y-183621900D01*
X184600883Y-183621900D02*
X184672311Y-183550471D01*
X184672311Y-183550471D02*
X184672311Y-183693328D01*
X184672311Y-182764757D02*
X184743740Y-182836185D01*
X184743740Y-182836185D02*
X184672311Y-182907614D01*
X184672311Y-182907614D02*
X184600883Y-182836185D01*
X184600883Y-182836185D02*
X184672311Y-182764757D01*
X184672311Y-182764757D02*
X184672311Y-182907614D01*
D10*
D11*
X197002200Y-191507200D02*
X197002200Y-194507200D01*
D10*
D11*
X261002200Y-191507200D02*
X261002200Y-198007200D01*
D14*
%TO.C,J3*%
X149010000Y-77640000D02*
X149010000Y-126010000D01*
X151770000Y-74990000D02*
X150390000Y-74990000D01*
X151770000Y-76370000D02*
X151770000Y-74990000D01*
X151770000Y-77640000D02*
X149010000Y-77640000D01*
X151770000Y-77640000D02*
X151770000Y-126010000D01*
X151770000Y-126010000D02*
X149010000Y-126010000D01*
%TO.C,J2*%
X131230000Y-77640000D02*
X131230000Y-126010000D01*
X133990000Y-74990000D02*
X132610000Y-74990000D01*
X133990000Y-76370000D02*
X133990000Y-74990000D01*
X133990000Y-77640000D02*
X131230000Y-77640000D01*
X133990000Y-77640000D02*
X133990000Y-126010000D01*
X133990000Y-126010000D02*
X131230000Y-126010000D01*
D15*
%TO.C,G\u002A\u002A\u002A*%
G36*
X139965879Y-105728378D02*
G01*
X139944426Y-105749830D01*
X139922974Y-105728378D01*
X139944426Y-105706925D01*
X139965879Y-105728378D01*
G37*
G36*
X142111149Y-89681756D02*
G01*
X142089696Y-89703209D01*
X142068244Y-89681756D01*
X142089696Y-89660303D01*
X142111149Y-89681756D01*
G37*
G36*
X143312501Y-89681756D02*
G01*
X143291048Y-89703209D01*
X143269595Y-89681756D01*
X143291048Y-89660303D01*
X143312501Y-89681756D01*
G37*
G36*
X143913176Y-90539864D02*
G01*
X143891724Y-90561317D01*
X143870271Y-90539864D01*
X143891724Y-90518411D01*
X143913176Y-90539864D01*
G37*
G36*
X145028717Y-96718243D02*
G01*
X145007264Y-96739695D01*
X144985811Y-96718243D01*
X145007264Y-96696790D01*
X145028717Y-96718243D01*
G37*
G36*
X145629392Y-96203378D02*
G01*
X145607940Y-96224830D01*
X145586487Y-96203378D01*
X145607940Y-96181925D01*
X145629392Y-96203378D01*
G37*
G36*
X142461565Y-100785043D02*
G01*
X142561656Y-100815709D01*
X142607002Y-100841581D01*
X142583109Y-100852583D01*
X142533031Y-100846375D01*
X142432940Y-100815709D01*
X142387594Y-100789836D01*
X142411487Y-100778835D01*
X142461565Y-100785043D01*
G37*
G36*
X141467463Y-100321997D02*
G01*
X141475722Y-100377446D01*
X141449914Y-100455913D01*
X141439307Y-100467315D01*
X141403797Y-100496624D01*
X141396981Y-100467150D01*
X141413822Y-100366401D01*
X141427487Y-100304025D01*
X141445122Y-100276718D01*
X141467463Y-100321997D01*
G37*
G36*
X141543369Y-99531894D02*
G01*
X141546793Y-99635810D01*
X141546926Y-99745167D01*
X141539727Y-99919242D01*
X141525626Y-100055460D01*
X141520168Y-100087652D01*
X141500223Y-100184350D01*
X141488819Y-100199422D01*
X141486162Y-100135974D01*
X141492454Y-99997113D01*
X141507901Y-99785945D01*
X141519006Y-99653996D01*
X141530610Y-99536607D01*
X141538353Y-99497366D01*
X141543369Y-99531894D01*
G37*
G36*
X141647152Y-100486410D02*
G01*
X141757056Y-100524775D01*
X141894226Y-100575897D01*
X142038988Y-100632221D01*
X142171669Y-100686194D01*
X142272598Y-100730261D01*
X142322101Y-100756869D01*
X142325414Y-100761617D01*
X142295823Y-100772803D01*
X142273899Y-100769057D01*
X142181216Y-100739041D01*
X142046628Y-100687478D01*
X141894557Y-100624633D01*
X141749428Y-100560767D01*
X141635663Y-100506145D01*
X141577686Y-100471029D01*
X141584184Y-100468354D01*
X141647152Y-100486410D01*
G37*
G36*
X142397895Y-88402059D02*
G01*
X142406134Y-88513116D01*
X142382771Y-88604306D01*
X142311386Y-88691670D01*
X142212556Y-88761287D01*
X142048367Y-88805088D01*
X141879891Y-88787942D01*
X141738492Y-88708905D01*
X141688418Y-88648966D01*
X141635366Y-88501918D01*
X141643826Y-88341621D01*
X141675502Y-88265290D01*
X142089696Y-88265290D01*
X142102590Y-88315757D01*
X142168265Y-88365644D01*
X142177797Y-88367280D01*
X142228953Y-88354388D01*
X142232623Y-88280421D01*
X142216713Y-88229874D01*
X142166565Y-88184632D01*
X142114018Y-88195357D01*
X142089696Y-88265290D01*
X141675502Y-88265290D01*
X141706595Y-88190363D01*
X141816471Y-88070436D01*
X141966249Y-88004128D01*
X142108885Y-88015699D01*
X142241196Y-88096505D01*
X142343411Y-88230710D01*
X142359218Y-88280421D01*
X142397895Y-88402059D01*
G37*
G36*
X144704284Y-97627638D02*
G01*
X144649160Y-97717263D01*
X144625342Y-97747651D01*
X144530918Y-97850788D01*
X144400502Y-97979886D01*
X144254844Y-98114065D01*
X144146300Y-98212893D01*
X143991670Y-98371540D01*
X143893680Y-98507290D01*
X143842267Y-98635634D01*
X143827365Y-98772062D01*
X143827343Y-98778322D01*
X143819352Y-98900060D01*
X143801322Y-98988720D01*
X143769151Y-99043568D01*
X143717207Y-99059224D01*
X143673874Y-99008246D01*
X143655744Y-98900670D01*
X143659473Y-98789326D01*
X143683633Y-98642267D01*
X143738442Y-98506965D01*
X143833315Y-98367496D01*
X143977665Y-98207934D01*
X144180907Y-98012356D01*
X144181900Y-98011435D01*
X144381656Y-97830762D01*
X144537109Y-97699943D01*
X144644922Y-97621081D01*
X144701760Y-97596279D01*
X144704284Y-97627638D01*
G37*
G36*
X140262456Y-88915800D02*
G01*
X140386882Y-88992568D01*
X140522545Y-89100604D01*
X140647236Y-89222145D01*
X140738744Y-89339432D01*
X140741954Y-89344647D01*
X140802364Y-89458519D01*
X140808716Y-89510620D01*
X140765466Y-89501767D01*
X140677070Y-89432775D01*
X140547986Y-89304463D01*
X140468803Y-89221674D01*
X140361764Y-89117372D01*
X140301804Y-89069724D01*
X140292411Y-89079646D01*
X140337072Y-89148056D01*
X140439276Y-89275872D01*
X140525771Y-89386615D01*
X140582561Y-89474591D01*
X140594816Y-89517627D01*
X140592576Y-89519362D01*
X140534285Y-89518904D01*
X140437838Y-89488682D01*
X140377631Y-89466046D01*
X140298663Y-89450231D01*
X140286026Y-89470230D01*
X140337948Y-89515620D01*
X140452661Y-89575980D01*
X140524658Y-89610592D01*
X140616462Y-89666010D01*
X140652365Y-89705216D01*
X140636026Y-89733940D01*
X140564733Y-89746306D01*
X140459000Y-89729532D01*
X140343261Y-89690462D01*
X140241950Y-89635937D01*
X140179500Y-89572800D01*
X140166873Y-89546811D01*
X140138940Y-89437014D01*
X140152457Y-89351509D01*
X140204780Y-89317060D01*
X140237459Y-89311011D01*
X140236548Y-89275566D01*
X140183328Y-89192447D01*
X140136545Y-89115960D01*
X140097685Y-89000908D01*
X140110076Y-88919129D01*
X140174236Y-88888006D01*
X140262456Y-88915800D01*
G37*
G36*
X144900001Y-88912569D02*
G01*
X144875224Y-89037916D01*
X144782346Y-89191078D01*
X144638980Y-89321343D01*
X144464742Y-89411860D01*
X144279250Y-89445776D01*
X144213878Y-89449628D01*
X144180211Y-89474541D01*
X144192506Y-89538720D01*
X144248133Y-89660303D01*
X144260106Y-89684585D01*
X144296369Y-89746418D01*
X144342574Y-89787328D01*
X144417514Y-89815287D01*
X144539978Y-89838269D01*
X144728758Y-89864248D01*
X144801041Y-89874318D01*
X145016827Y-89909453D01*
X145219098Y-89948820D01*
X145371960Y-89985646D01*
X145448664Y-90010897D01*
X145681601Y-90115305D01*
X145940281Y-90263249D01*
X146201228Y-90440516D01*
X146440970Y-90632894D01*
X146471407Y-90660652D01*
X146592542Y-90785694D01*
X146715019Y-90930703D01*
X146826886Y-91079114D01*
X146916192Y-91214360D01*
X146917896Y-91217641D01*
X146970987Y-91319877D01*
X146979319Y-91379099D01*
X146978248Y-91380500D01*
X146922047Y-91383320D01*
X146790673Y-91350948D01*
X146583454Y-91283165D01*
X146299718Y-91179752D01*
X145938791Y-91040491D01*
X145809942Y-90991248D01*
X145579968Y-90908794D01*
X145342477Y-90829118D01*
X145115052Y-90757667D01*
X144915274Y-90699887D01*
X144760724Y-90661225D01*
X144668984Y-90647128D01*
X144645889Y-90650778D01*
X144630440Y-90680152D01*
X144643950Y-90753947D01*
X144687784Y-90889824D01*
X144743522Y-91071427D01*
X144767637Y-91217875D01*
X144749487Y-91308661D01*
X144689102Y-91353915D01*
X144685273Y-91354981D01*
X144593392Y-91351921D01*
X144446655Y-91318741D01*
X144266427Y-91261295D01*
X144074071Y-91185435D01*
X144043217Y-91175757D01*
X144014636Y-91191940D01*
X144001897Y-91259989D01*
X143998987Y-91396833D01*
X143998987Y-91640855D01*
X144174747Y-91709895D01*
X144189715Y-91715892D01*
X144298985Y-91774536D01*
X144376123Y-91859516D01*
X144447921Y-91999207D01*
X144480881Y-92072404D01*
X144530154Y-92160055D01*
X144547459Y-92175523D01*
X144590394Y-92213900D01*
X144685741Y-92251964D01*
X144840331Y-92292276D01*
X144923071Y-92314811D01*
X145114192Y-92390030D01*
X145234567Y-92476723D01*
X145280601Y-92569312D01*
X145248700Y-92662221D01*
X145135269Y-92749873D01*
X145062469Y-92798990D01*
X145028717Y-92844311D01*
X145046792Y-92897735D01*
X145095067Y-93004040D01*
X145162958Y-93139661D01*
X145224853Y-93274000D01*
X145286341Y-93445442D01*
X145318340Y-93585148D01*
X145324627Y-93705433D01*
X145299594Y-93796838D01*
X145228954Y-93883224D01*
X145169471Y-93934749D01*
X145064812Y-93981320D01*
X144916168Y-93993749D01*
X144870145Y-93992005D01*
X144786293Y-93979059D01*
X144685121Y-93949445D01*
X144554954Y-93898409D01*
X144384121Y-93821197D01*
X144160948Y-93713055D01*
X143873762Y-93569230D01*
X143560792Y-93413236D01*
X143010053Y-93151284D01*
X142515749Y-92934454D01*
X142069442Y-92759127D01*
X141662690Y-92621687D01*
X141485763Y-92569873D01*
X141173072Y-92487305D01*
X140843813Y-92409366D01*
X140522556Y-92341451D01*
X140233871Y-92288952D01*
X140002329Y-92257262D01*
X139716988Y-92228712D01*
X139688999Y-92394380D01*
X139683541Y-92432118D01*
X139682888Y-92518216D01*
X139706575Y-92610424D01*
X139761876Y-92730819D01*
X139856063Y-92901476D01*
X139966777Y-93101823D01*
X140044682Y-93269615D01*
X140077999Y-93399239D01*
X140068171Y-93508189D01*
X140016646Y-93613962D01*
X139924870Y-93734052D01*
X139745880Y-93947836D01*
X139866606Y-93975095D01*
X139929333Y-93989412D01*
X140114436Y-94034956D01*
X140231057Y-94071337D01*
X140291834Y-94103113D01*
X140309406Y-94134846D01*
X140309291Y-94139622D01*
X140305945Y-94172787D01*
X140301669Y-94215169D01*
X140284453Y-94346590D01*
X140260921Y-94508614D01*
X140212153Y-94830405D01*
X140437222Y-95388175D01*
X140532237Y-95616201D01*
X140650209Y-95885802D01*
X140781099Y-96174312D01*
X140920083Y-96472019D01*
X141062336Y-96769212D01*
X141203034Y-97056181D01*
X141337352Y-97323213D01*
X141460466Y-97560599D01*
X141567552Y-97758627D01*
X141653786Y-97907585D01*
X141714343Y-97997764D01*
X141744398Y-98019451D01*
X141745118Y-98017770D01*
X141745227Y-97962031D01*
X141736865Y-97846351D01*
X141721593Y-97693073D01*
X141701838Y-97548097D01*
X141641100Y-97229272D01*
X141552643Y-96859297D01*
X141440882Y-96455954D01*
X141310235Y-96037025D01*
X141250243Y-95849731D01*
X141203940Y-95683343D01*
X141180189Y-95553375D01*
X141178557Y-95517355D01*
X141248441Y-95517355D01*
X141444678Y-96096346D01*
X141520069Y-96325037D01*
X141687992Y-96901308D01*
X141805311Y-97425030D01*
X141874148Y-97906811D01*
X141896622Y-98357260D01*
X141896608Y-98365723D01*
X141889103Y-98469076D01*
X141883769Y-98542535D01*
X141836288Y-98656917D01*
X141738522Y-98729454D01*
X141574832Y-98780728D01*
X141485094Y-98803536D01*
X141420859Y-98838029D01*
X141415686Y-98899419D01*
X141456201Y-99014003D01*
X141475040Y-99059363D01*
X141519467Y-99147029D01*
X141549161Y-99178843D01*
X141597414Y-99170645D01*
X141714109Y-99154473D01*
X141873569Y-99134004D01*
X142052760Y-99112111D01*
X142147086Y-99101145D01*
X142787574Y-99101145D01*
X142846911Y-99114988D01*
X142981378Y-99093093D01*
X143059306Y-99073809D01*
X143240665Y-99006322D01*
X143357155Y-98924562D01*
X143398311Y-98835007D01*
X143393587Y-98804340D01*
X143359350Y-98697096D01*
X143299244Y-98546998D01*
X143221890Y-98376453D01*
X143045469Y-98008559D01*
X143049888Y-97975323D01*
X143175780Y-97975323D01*
X143324500Y-98290702D01*
X143403378Y-98460099D01*
X143468028Y-98613085D01*
X143501117Y-98726583D01*
X143505962Y-98821281D01*
X143503108Y-98835007D01*
X143485883Y-98917864D01*
X143444196Y-99037021D01*
X143384477Y-99253506D01*
X143355406Y-99551609D01*
X143359562Y-99687420D01*
X143371158Y-99789548D01*
X143387585Y-99828428D01*
X143428771Y-99807599D01*
X143518509Y-99745737D01*
X143634291Y-99657263D01*
X143741002Y-99577159D01*
X143842150Y-99511479D01*
X143900840Y-99486097D01*
X143950449Y-99476041D01*
X144060999Y-99442261D01*
X144200491Y-99392991D01*
X144251542Y-99372623D01*
X144342907Y-99327467D01*
X144439188Y-99265192D01*
X144551331Y-99176884D01*
X144690281Y-99053628D01*
X144866985Y-98886508D01*
X145092388Y-98666612D01*
X145129659Y-98630004D01*
X145333840Y-98431294D01*
X145526895Y-98246264D01*
X145696406Y-98086631D01*
X145829952Y-97964113D01*
X145915114Y-97890427D01*
X145963531Y-97849659D01*
X146127439Y-97670606D01*
X146234589Y-97480935D01*
X146272974Y-97300441D01*
X146262086Y-97165968D01*
X146225479Y-96978566D01*
X146171265Y-96789233D01*
X146107995Y-96627089D01*
X146044216Y-96521257D01*
X146041209Y-96517959D01*
X145957657Y-96438098D01*
X145832533Y-96330721D01*
X145691731Y-96218098D01*
X145432280Y-96018291D01*
X145367693Y-96132287D01*
X145364731Y-96137540D01*
X145328899Y-96218948D01*
X145334341Y-96291757D01*
X145383474Y-96396452D01*
X145457181Y-96495726D01*
X145578007Y-96617360D01*
X145718239Y-96732594D01*
X145864421Y-96844598D01*
X145947306Y-96923218D01*
X145963507Y-96959960D01*
X145969583Y-96973741D01*
X145937809Y-97004279D01*
X145934752Y-97006221D01*
X145896883Y-97059333D01*
X145837410Y-97167313D01*
X145767787Y-97309590D01*
X145733377Y-97381573D01*
X145654413Y-97521848D01*
X145579206Y-97607886D01*
X145491975Y-97659726D01*
X145474776Y-97666742D01*
X145377627Y-97697922D01*
X145322975Y-97701309D01*
X145303176Y-97675459D01*
X145276985Y-97575770D01*
X145263353Y-97427766D01*
X145262947Y-97282415D01*
X145371960Y-97282415D01*
X145372092Y-97315064D01*
X145378826Y-97458147D01*
X145398152Y-97533171D01*
X145433397Y-97554898D01*
X145494974Y-97526232D01*
X145578824Y-97433525D01*
X145663321Y-97295489D01*
X145734644Y-97131547D01*
X145795183Y-96959960D01*
X145650792Y-96849827D01*
X145614456Y-96822590D01*
X145529680Y-96763326D01*
X145486283Y-96739695D01*
X145466896Y-96752450D01*
X145432333Y-96829971D01*
X145401891Y-96958848D01*
X145380217Y-97117017D01*
X145371960Y-97282415D01*
X145262947Y-97282415D01*
X145262870Y-97255028D01*
X145276124Y-97081134D01*
X145303704Y-96929665D01*
X145309171Y-96908893D01*
X145341622Y-96772386D01*
X145348230Y-96680303D01*
X145326747Y-96598539D01*
X145274926Y-96492989D01*
X145240336Y-96430689D01*
X145174471Y-96336628D01*
X145130521Y-96311316D01*
X145121303Y-96339246D01*
X145114528Y-96359774D01*
X145098131Y-96420127D01*
X145037072Y-96532483D01*
X144948788Y-96658105D01*
X144852458Y-96770334D01*
X144767260Y-96842511D01*
X144655544Y-96888390D01*
X144517958Y-96911317D01*
X144474192Y-96909868D01*
X144403576Y-96886586D01*
X144385136Y-96822974D01*
X144394297Y-96772429D01*
X144432629Y-96763983D01*
X144442526Y-96768738D01*
X144462125Y-96745343D01*
X144449070Y-96648526D01*
X144445744Y-96633200D01*
X144422984Y-96537722D01*
X144413801Y-96509014D01*
X144520789Y-96509014D01*
X144539937Y-96616499D01*
X144542597Y-96625478D01*
X144582832Y-96721542D01*
X144624230Y-96769337D01*
X144647282Y-96768584D01*
X144722858Y-96718608D01*
X144820019Y-96612696D01*
X144925395Y-96464386D01*
X145005051Y-96339246D01*
X144793364Y-96368261D01*
X144791693Y-96368490D01*
X144633392Y-96398013D01*
X144547516Y-96440520D01*
X144520789Y-96509014D01*
X144413801Y-96509014D01*
X144408650Y-96492912D01*
X144391263Y-96493232D01*
X144311996Y-96510827D01*
X144192257Y-96544415D01*
X144119671Y-96567955D01*
X143994740Y-96627679D01*
X143931721Y-96703107D01*
X143913833Y-96810260D01*
X143912406Y-96822974D01*
X143904731Y-96891372D01*
X143872848Y-97028510D01*
X143826136Y-97180939D01*
X143773114Y-97323929D01*
X143722300Y-97432752D01*
X143682212Y-97482678D01*
X143670704Y-97485611D01*
X143642291Y-97465164D01*
X143627690Y-97387108D01*
X143623565Y-97237491D01*
X143621376Y-97123109D01*
X143604834Y-96940253D01*
X143580612Y-96849491D01*
X143698649Y-96849491D01*
X143698952Y-96867023D01*
X143713003Y-96959456D01*
X143741555Y-96997128D01*
X143751586Y-96992289D01*
X143775074Y-96931376D01*
X143784460Y-96822974D01*
X143783657Y-96785286D01*
X143769723Y-96694649D01*
X143741555Y-96675337D01*
X143737769Y-96678250D01*
X143710018Y-96742621D01*
X143698649Y-96849491D01*
X143580612Y-96849491D01*
X143573700Y-96823593D01*
X143529922Y-96782601D01*
X143529882Y-96782601D01*
X143474942Y-96806823D01*
X143391003Y-96864951D01*
X143377008Y-96876409D01*
X143335042Y-96922218D01*
X143303928Y-96986966D01*
X143279200Y-97087301D01*
X143256394Y-97239868D01*
X143231046Y-97461312D01*
X143175780Y-97975323D01*
X143049888Y-97975323D01*
X143108427Y-97535023D01*
X143113125Y-97499529D01*
X143139959Y-97284786D01*
X143153475Y-97142961D01*
X143153829Y-97063648D01*
X143141177Y-97036442D01*
X143115674Y-97050936D01*
X143087723Y-97100798D01*
X143054163Y-97236279D01*
X143025801Y-97451322D01*
X143002386Y-97747970D01*
X142983669Y-98128270D01*
X142976855Y-98297887D01*
X142966196Y-98520491D01*
X142954522Y-98680065D01*
X142939651Y-98790827D01*
X142919399Y-98866997D01*
X142891581Y-98922793D01*
X142854014Y-98972435D01*
X142798550Y-99046999D01*
X142787574Y-99101145D01*
X142147086Y-99101145D01*
X142228647Y-99091663D01*
X142378196Y-99075531D01*
X142525040Y-99054332D01*
X142641327Y-99016874D01*
X142728756Y-98953453D01*
X142791595Y-98854103D01*
X142834110Y-98708862D01*
X142860569Y-98507764D01*
X142875237Y-98240845D01*
X142882384Y-97898141D01*
X142885841Y-97713451D01*
X142897848Y-97441549D01*
X142919062Y-97237221D01*
X142951560Y-97088881D01*
X142997415Y-96984942D01*
X143058705Y-96913819D01*
X143193289Y-96820220D01*
X143421912Y-96699969D01*
X143710025Y-96576679D01*
X144043772Y-96455715D01*
X144409295Y-96342445D01*
X144792737Y-96242235D01*
X144793199Y-96242126D01*
X145022415Y-96179052D01*
X145174957Y-96114689D01*
X145259857Y-96043898D01*
X145286149Y-95961539D01*
X145280383Y-95912387D01*
X145242245Y-95887610D01*
X145146707Y-95899005D01*
X145142385Y-95899811D01*
X145041248Y-95912226D01*
X144877602Y-95925956D01*
X144673125Y-95939387D01*
X144449494Y-95950906D01*
X144405447Y-95952867D01*
X144188663Y-95963664D01*
X144033160Y-95976473D01*
X143918006Y-95996059D01*
X143822272Y-96027189D01*
X143725025Y-96074629D01*
X143605337Y-96143145D01*
X143577926Y-96159049D01*
X143438333Y-96236012D01*
X143328531Y-96290170D01*
X143270288Y-96310641D01*
X143254154Y-96312796D01*
X143241493Y-96342820D01*
X143226621Y-96366126D01*
X143153127Y-96381504D01*
X143130663Y-96383272D01*
X142928048Y-96437424D01*
X142758134Y-96548576D01*
X142645442Y-96701281D01*
X142637568Y-96718429D01*
X142570160Y-96833899D01*
X142515348Y-96864825D01*
X142472747Y-96811452D01*
X142467833Y-96793786D01*
X142480169Y-96684135D01*
X142542168Y-96554099D01*
X142640882Y-96432834D01*
X142671122Y-96398552D01*
X142749408Y-96258873D01*
X142764441Y-96214227D01*
X143115453Y-96214227D01*
X143174095Y-96191052D01*
X143301774Y-96127905D01*
X143375177Y-96086592D01*
X143465264Y-96001895D01*
X143472375Y-95914038D01*
X143398311Y-95817229D01*
X143339640Y-95769178D01*
X143316200Y-95781825D01*
X143312501Y-95869087D01*
X143312465Y-95869270D01*
X143292498Y-95972052D01*
X143199386Y-96111716D01*
X143175241Y-96135914D01*
X143118338Y-96196244D01*
X143115453Y-96214227D01*
X142764441Y-96214227D01*
X142794221Y-96125780D01*
X142941716Y-96125780D01*
X142944161Y-96126838D01*
X142991180Y-96106062D01*
X143072306Y-96048859D01*
X143149181Y-95966666D01*
X143175393Y-95869270D01*
X143157999Y-95804263D01*
X143114823Y-95770375D01*
X143058836Y-95813516D01*
X142998168Y-95930862D01*
X142977891Y-95984772D01*
X142947243Y-96081093D01*
X142941716Y-96125780D01*
X142794221Y-96125780D01*
X142811827Y-96073489D01*
X142815908Y-96057956D01*
X142875545Y-95886365D01*
X142963560Y-95687788D01*
X143013876Y-95593322D01*
X143141943Y-95593322D01*
X143142405Y-95601100D01*
X143164113Y-95628137D01*
X143232029Y-95653646D01*
X143365352Y-95685551D01*
X143455721Y-95728739D01*
X143548802Y-95839303D01*
X143554365Y-95849845D01*
X143595703Y-95914038D01*
X143608049Y-95933210D01*
X143648265Y-95967398D01*
X143698017Y-95948638D01*
X143758709Y-95873225D01*
X143784460Y-95772595D01*
X143783908Y-95762517D01*
X143760683Y-95672429D01*
X143711487Y-95546840D01*
X143647630Y-95408887D01*
X143580423Y-95281704D01*
X143521204Y-95188477D01*
X143655647Y-95188477D01*
X143656009Y-95190330D01*
X143683111Y-95237863D01*
X143740061Y-95321719D01*
X143761970Y-95356170D01*
X143826400Y-95490306D01*
X143877676Y-95639407D01*
X143913298Y-95772595D01*
X143930974Y-95838682D01*
X144136602Y-95838682D01*
X144205337Y-95836225D01*
X144305767Y-95820756D01*
X144347593Y-95795776D01*
X144354641Y-95730794D01*
X144355222Y-95509869D01*
X144310210Y-95337935D01*
X144295622Y-95305970D01*
X144258610Y-95246863D01*
X144204345Y-95213856D01*
X144109991Y-95197355D01*
X143952706Y-95187767D01*
X143943051Y-95187316D01*
X143797855Y-95182596D01*
X143694800Y-95183001D01*
X143655647Y-95188477D01*
X143521204Y-95188477D01*
X143521173Y-95188428D01*
X143509858Y-95178174D01*
X144395563Y-95178174D01*
X144407614Y-95248732D01*
X144421704Y-95305476D01*
X144443014Y-95437600D01*
X144450654Y-95509869D01*
X144459335Y-95591976D01*
X144478568Y-95838682D01*
X144667832Y-95838682D01*
X144722075Y-95837326D01*
X144818580Y-95825853D01*
X144856552Y-95806503D01*
X144839792Y-95758235D01*
X144793395Y-95655248D01*
X144727835Y-95521571D01*
X144666223Y-95392846D01*
X144618095Y-95276890D01*
X144599663Y-95210507D01*
X144577198Y-95176620D01*
X144734245Y-95176620D01*
X144763269Y-95311565D01*
X144846369Y-95498471D01*
X144911417Y-95619823D01*
X144971241Y-95697444D01*
X145041790Y-95735921D01*
X145147081Y-95755805D01*
X145175642Y-95760483D01*
X145327374Y-95806503D01*
X145329461Y-95807136D01*
X145458810Y-95875571D01*
X145537281Y-95928884D01*
X145586618Y-95941071D01*
X145613322Y-95904485D01*
X145618103Y-95879699D01*
X145590054Y-95775876D01*
X145504733Y-95640370D01*
X145370761Y-95487984D01*
X145316269Y-95427382D01*
X145214757Y-95297399D01*
X145116627Y-95155467D01*
X145051267Y-95056761D01*
X144989382Y-94970764D01*
X144958376Y-94937668D01*
X144915367Y-94957403D01*
X144834133Y-95006961D01*
X144758937Y-95079259D01*
X144734245Y-95176620D01*
X144577198Y-95176620D01*
X144573916Y-95171669D01*
X144487395Y-95152195D01*
X144440336Y-95154039D01*
X144395563Y-95178174D01*
X143509858Y-95178174D01*
X143481190Y-95152195D01*
X143456359Y-95167403D01*
X143391851Y-95234521D01*
X143310185Y-95334041D01*
X143229330Y-95442593D01*
X143167259Y-95536810D01*
X143141943Y-95593322D01*
X143013876Y-95593322D01*
X143062459Y-95502109D01*
X143086736Y-95461131D01*
X143178902Y-95304100D01*
X143256443Y-95169869D01*
X143304641Y-95083856D01*
X143331922Y-95038178D01*
X143376675Y-95001833D01*
X143451497Y-94995334D01*
X143583527Y-95011655D01*
X143761098Y-95031205D01*
X144009356Y-95040439D01*
X144250991Y-95032077D01*
X144460003Y-95007246D01*
X144610389Y-94967077D01*
X144715709Y-94908787D01*
X144766647Y-94841520D01*
X144739010Y-94784448D01*
X144631842Y-94747353D01*
X144536541Y-94731869D01*
X144378075Y-94706070D01*
X144178998Y-94673627D01*
X143961431Y-94638145D01*
X143961302Y-94638124D01*
X143744594Y-94604603D01*
X143546999Y-94577355D01*
X143390330Y-94559178D01*
X143296397Y-94552868D01*
X143264871Y-94554267D01*
X143192669Y-94571701D01*
X143125945Y-94618612D01*
X143054120Y-94707004D01*
X142966613Y-94848884D01*
X142852847Y-95056260D01*
X142784449Y-95182383D01*
X142674443Y-95370815D01*
X142566843Y-95528099D01*
X142468960Y-95648850D01*
X142440165Y-95684373D01*
X142272921Y-95869779D01*
X142025338Y-96136855D01*
X142025338Y-96524086D01*
X142024309Y-96611279D01*
X142016576Y-96765225D01*
X142002922Y-96871608D01*
X141985324Y-96911317D01*
X141962158Y-96904333D01*
X141927876Y-96848318D01*
X141906563Y-96729879D01*
X141897185Y-96541410D01*
X141898705Y-96275305D01*
X141899512Y-96160291D01*
X141892869Y-95921439D01*
X141877147Y-95694714D01*
X141871944Y-95653886D01*
X142031329Y-95653886D01*
X142051100Y-95750732D01*
X142089696Y-95878776D01*
X142191097Y-95763813D01*
X142292498Y-95648850D01*
X142177689Y-95610580D01*
X142092227Y-95591251D01*
X142037692Y-95597499D01*
X142037211Y-95598012D01*
X142031329Y-95653886D01*
X141871944Y-95653886D01*
X141854487Y-95516891D01*
X141842782Y-95440945D01*
X141824964Y-95233178D01*
X141823527Y-95137449D01*
X141945937Y-95137449D01*
X141948996Y-95309050D01*
X141963801Y-95412479D01*
X141991455Y-95459017D01*
X142013927Y-95468579D01*
X142112729Y-95487115D01*
X142243942Y-95494781D01*
X142374238Y-95485331D01*
X142475714Y-95443102D01*
X142559855Y-95351776D01*
X142648607Y-95195101D01*
X142659707Y-95173931D01*
X142729287Y-95053898D01*
X142826067Y-94898488D01*
X142932666Y-94735805D01*
X142971137Y-94677960D01*
X143057947Y-94541232D01*
X143118273Y-94437046D01*
X143140879Y-94384368D01*
X143128851Y-94341781D01*
X143093501Y-94324950D01*
X143221028Y-94324950D01*
X143244400Y-94342056D01*
X143334823Y-94376228D01*
X143368098Y-94384368D01*
X143463242Y-94407643D01*
X143678342Y-94449346D01*
X143555777Y-94200036D01*
X143489819Y-94080648D01*
X143429476Y-93998634D01*
X143390571Y-93977080D01*
X143370429Y-94005605D01*
X143369120Y-94084462D01*
X143376158Y-94129498D01*
X143362131Y-94150783D01*
X143329789Y-94153970D01*
X143271954Y-94201874D01*
X143226415Y-94270328D01*
X143221028Y-94324950D01*
X143093501Y-94324950D01*
X143065131Y-94311442D01*
X142967591Y-94337885D01*
X142914624Y-94359313D01*
X142787909Y-94400023D01*
X142615749Y-94449305D01*
X142419660Y-94500764D01*
X141960980Y-94615878D01*
X141948549Y-95019893D01*
X141945937Y-95137449D01*
X141823527Y-95137449D01*
X141821659Y-95013000D01*
X141831997Y-94804790D01*
X141855103Y-94632924D01*
X141890106Y-94521781D01*
X141897468Y-94510210D01*
X141975458Y-94458516D01*
X142119325Y-94439263D01*
X142148194Y-94437530D01*
X142293578Y-94415875D01*
X142478257Y-94375376D01*
X142669392Y-94322977D01*
X142745501Y-94299007D01*
X142931380Y-94229737D01*
X143059842Y-94159213D01*
X143151605Y-94076861D01*
X143178848Y-94044820D01*
X143243675Y-93959037D01*
X143269595Y-93908531D01*
X143255798Y-93879240D01*
X143181132Y-93854215D01*
X143060955Y-93859476D01*
X142917278Y-93895818D01*
X142835474Y-93917182D01*
X142669668Y-93944899D01*
X142464823Y-93968104D01*
X142247802Y-93983288D01*
X142048381Y-93995026D01*
X141866865Y-94014113D01*
X141748011Y-94040063D01*
X141679002Y-94074941D01*
X141656541Y-94097077D01*
X141578068Y-94226249D01*
X141497748Y-94434956D01*
X141417215Y-94718417D01*
X141338104Y-95071853D01*
X141248441Y-95517355D01*
X141178557Y-95517355D01*
X141174874Y-95436060D01*
X141183876Y-95307633D01*
X141193452Y-95227578D01*
X141239482Y-94956649D01*
X141304344Y-94672896D01*
X141379927Y-94409138D01*
X141458118Y-94198195D01*
X141473547Y-94164574D01*
X141549625Y-94037951D01*
X141646195Y-93951731D01*
X141779367Y-93898869D01*
X141965254Y-93872318D01*
X142219966Y-93865033D01*
X142447040Y-93857659D01*
X142696628Y-93833070D01*
X142897857Y-93794900D01*
X142915025Y-93790358D01*
X143057338Y-93755987D01*
X143152741Y-93746542D01*
X143233613Y-93762821D01*
X143332332Y-93805626D01*
X143434149Y-93867383D01*
X143539288Y-93975941D01*
X143645955Y-94143918D01*
X143686919Y-94216706D01*
X143781207Y-94369459D01*
X143851889Y-94449346D01*
X143868669Y-94468311D01*
X143972373Y-94528715D01*
X144115387Y-94566127D01*
X144320778Y-94595999D01*
X144547957Y-94630941D01*
X144748445Y-94682358D01*
X144899493Y-94754731D01*
X145020617Y-94857823D01*
X145131335Y-95001395D01*
X145232536Y-95141728D01*
X145365639Y-95311464D01*
X145499242Y-95470144D01*
X145564321Y-95544669D01*
X145650410Y-95652030D01*
X145694151Y-95731566D01*
X145706152Y-95806286D01*
X145698935Y-95879699D01*
X145697018Y-95899198D01*
X145690446Y-95946527D01*
X145690055Y-95961539D01*
X145688366Y-96026312D01*
X145714607Y-96089105D01*
X145782574Y-96157781D01*
X145905675Y-96255213D01*
X146024291Y-96355961D01*
X146138574Y-96472648D01*
X146208399Y-96567655D01*
X146235262Y-96632066D01*
X146279806Y-96792796D01*
X146316894Y-96988203D01*
X146342312Y-97189043D01*
X146348313Y-97300441D01*
X146351848Y-97366074D01*
X146341288Y-97490052D01*
X146294943Y-97583539D01*
X146203667Y-97707033D01*
X146087346Y-97833470D01*
X145786148Y-98126288D01*
X145470981Y-98431457D01*
X145206661Y-98685432D01*
X144987590Y-98893213D01*
X144808173Y-99059800D01*
X144662811Y-99190196D01*
X144545910Y-99289401D01*
X144451872Y-99362414D01*
X144375099Y-99414238D01*
X144309997Y-99449873D01*
X144250968Y-99474319D01*
X144211296Y-99488704D01*
X144104722Y-99535881D01*
X144060472Y-99580178D01*
X144061904Y-99635810D01*
X144063944Y-99643484D01*
X144083109Y-99736582D01*
X144108414Y-99882442D01*
X144134951Y-100053026D01*
X144144258Y-100128263D01*
X144155587Y-100342936D01*
X144153858Y-100398580D01*
X144148851Y-100559780D01*
X144126192Y-100756932D01*
X144089755Y-100912528D01*
X144041681Y-101004704D01*
X144041629Y-101004756D01*
X143969293Y-101030437D01*
X143831364Y-101041813D01*
X143646689Y-101039689D01*
X143434115Y-101024866D01*
X143212489Y-100998149D01*
X143000660Y-100960341D01*
X142832466Y-100921563D01*
X142723203Y-100890101D01*
X142694337Y-100872617D01*
X142743385Y-100870674D01*
X142867868Y-100885834D01*
X143065302Y-100919657D01*
X143108295Y-100927506D01*
X143298537Y-100957931D01*
X143470233Y-100979278D01*
X143590653Y-100987330D01*
X143617502Y-100987256D01*
X143705112Y-100982024D01*
X143724095Y-100960667D01*
X143688738Y-100912246D01*
X143546035Y-100700342D01*
X143427434Y-100425211D01*
X143339112Y-100108212D01*
X143331685Y-100060137D01*
X143407552Y-100060137D01*
X143417713Y-100143494D01*
X143439330Y-100238892D01*
X143518707Y-100448888D01*
X143630952Y-100657897D01*
X143756479Y-100826435D01*
X143772064Y-100842539D01*
X143861167Y-100914988D01*
X143931763Y-100944425D01*
X143986068Y-100911779D01*
X144030349Y-100826435D01*
X144044643Y-100734084D01*
X144053900Y-100583905D01*
X144057756Y-100398580D01*
X144056579Y-100198259D01*
X144050736Y-100003091D01*
X144040595Y-99833226D01*
X144026524Y-99708814D01*
X144008889Y-99650003D01*
X143964827Y-99644111D01*
X143853187Y-99689281D01*
X143679029Y-99793082D01*
X143551445Y-99876849D01*
X143460994Y-99944815D01*
X143417504Y-99999911D01*
X143407552Y-100060137D01*
X143331685Y-100060137D01*
X143286910Y-99770317D01*
X143276669Y-99432498D01*
X143278878Y-99371042D01*
X143281533Y-99211920D01*
X143275084Y-99119518D01*
X143257485Y-99079264D01*
X143226690Y-99076588D01*
X143048968Y-99121402D01*
X142773493Y-99172338D01*
X142485868Y-99208262D01*
X142479906Y-99208817D01*
X142324515Y-99226733D01*
X142230477Y-99250937D01*
X142174152Y-99291447D01*
X142131899Y-99358285D01*
X142128332Y-99365432D01*
X142085368Y-99498433D01*
X142066939Y-99644406D01*
X142062967Y-99741481D01*
X142048947Y-99766829D01*
X142018867Y-99726925D01*
X142016166Y-99722124D01*
X141993804Y-99624985D01*
X142020172Y-99485967D01*
X142027991Y-99459220D01*
X142056651Y-99347157D01*
X142068244Y-99276863D01*
X142034449Y-99245304D01*
X141942581Y-99230289D01*
X141819298Y-99233277D01*
X141691367Y-99253525D01*
X141585558Y-99290287D01*
X141514085Y-99324473D01*
X141475274Y-99323978D01*
X141467568Y-99274024D01*
X141466171Y-99256027D01*
X141442505Y-99163112D01*
X141398540Y-99044135D01*
X141345967Y-98926017D01*
X141296477Y-98835682D01*
X141261760Y-98800053D01*
X141261586Y-98800058D01*
X141208522Y-98805401D01*
X141088220Y-98819049D01*
X140918385Y-98838955D01*
X140716724Y-98863072D01*
X140695304Y-98865601D01*
X140402565Y-98891995D01*
X140059724Y-98910795D01*
X139686150Y-98921998D01*
X139301210Y-98925597D01*
X138924271Y-98921587D01*
X138574701Y-98909962D01*
X138271866Y-98890716D01*
X138035136Y-98863845D01*
X137627534Y-98800426D01*
X137437620Y-99003591D01*
X137344857Y-99101104D01*
X137296728Y-99145110D01*
X137293919Y-99131837D01*
X137330357Y-99064748D01*
X137336991Y-99053556D01*
X137418261Y-98936064D01*
X137498818Y-98845173D01*
X137510998Y-98834417D01*
X137591725Y-98771075D01*
X137678927Y-98711602D01*
X137753508Y-98667474D01*
X137796374Y-98650165D01*
X137788430Y-98671149D01*
X137740135Y-98743444D01*
X137762297Y-98786165D01*
X137863514Y-98799155D01*
X137876855Y-98799010D01*
X137965942Y-98780439D01*
X137991573Y-98724070D01*
X137980248Y-98646615D01*
X137929136Y-98579105D01*
X137822710Y-98532647D01*
X137645724Y-98497241D01*
X137452147Y-98466520D01*
X137304092Y-98439052D01*
X137221697Y-98416550D01*
X137194601Y-98396086D01*
X137212443Y-98374730D01*
X137231346Y-98343915D01*
X137231300Y-98268455D01*
X137207128Y-98137405D01*
X137157204Y-97937897D01*
X137113283Y-97768234D01*
X136996129Y-97268925D01*
X136890081Y-96749683D01*
X136799690Y-96235654D01*
X136729508Y-95751983D01*
X136684085Y-95323817D01*
X136683853Y-95320937D01*
X136667667Y-95139177D01*
X136650097Y-94970779D01*
X136634906Y-94851857D01*
X136631330Y-94826566D01*
X136627017Y-94747268D01*
X136639473Y-94729307D01*
X136654019Y-94761010D01*
X136674244Y-94848961D01*
X136699113Y-94999101D01*
X136729888Y-95219166D01*
X136767829Y-95516891D01*
X136784909Y-95644414D01*
X136823812Y-95899993D01*
X136873736Y-96200423D01*
X136931620Y-96529504D01*
X136994401Y-96871036D01*
X137059019Y-97208820D01*
X137122412Y-97526656D01*
X137181518Y-97808344D01*
X137233276Y-98037685D01*
X137274624Y-98198479D01*
X137307084Y-98293972D01*
X137359335Y-98375230D01*
X137431431Y-98406049D01*
X137468398Y-98410037D01*
X137513826Y-98393256D01*
X137505281Y-98320238D01*
X137498571Y-98294858D01*
X137452557Y-98106147D01*
X137397060Y-97860001D01*
X137336923Y-97579426D01*
X137276988Y-97287422D01*
X137222096Y-97006995D01*
X137177092Y-96761148D01*
X137152474Y-96611485D01*
X137117447Y-96377268D01*
X137080351Y-96109917D01*
X137042729Y-95822557D01*
X137006121Y-95528314D01*
X136972072Y-95240313D01*
X136942122Y-94971680D01*
X136917815Y-94735539D01*
X136900692Y-94545017D01*
X136892296Y-94413237D01*
X136893961Y-94360014D01*
X136941048Y-94360014D01*
X136953229Y-94595209D01*
X136954885Y-94624560D01*
X136972804Y-94840715D01*
X137002516Y-95106901D01*
X137042211Y-95412732D01*
X137090081Y-95747819D01*
X137144314Y-96101776D01*
X137203100Y-96464216D01*
X137264631Y-96824750D01*
X137327096Y-97172991D01*
X137388684Y-97498553D01*
X137447586Y-97791047D01*
X137501993Y-98040086D01*
X137550093Y-98235283D01*
X137590078Y-98366250D01*
X137620136Y-98422600D01*
X137676520Y-98442903D01*
X137780303Y-98455254D01*
X137890166Y-98455911D01*
X137871407Y-97004821D01*
X137867509Y-96500995D01*
X137872241Y-95750917D01*
X137889933Y-95055306D01*
X137920276Y-94421797D01*
X137962963Y-93858023D01*
X138017688Y-93371621D01*
X138037730Y-93234210D01*
X138079399Y-92986560D01*
X138112579Y-92813851D01*
X139365746Y-92813851D01*
X139365842Y-93285810D01*
X139372798Y-93629491D01*
X139409872Y-94216493D01*
X139476318Y-94845518D01*
X139569197Y-95494206D01*
X139685573Y-96140202D01*
X139822507Y-96761148D01*
X139849282Y-96869751D01*
X139907527Y-97096929D01*
X139961345Y-97295474D01*
X140005687Y-97447081D01*
X140035505Y-97533445D01*
X140060972Y-97589697D01*
X140078197Y-97613542D01*
X140077419Y-97568908D01*
X140061068Y-97447634D01*
X140059918Y-97439010D01*
X140054584Y-97370694D01*
X140106945Y-97370694D01*
X140120567Y-97518849D01*
X140147495Y-97704768D01*
X140184520Y-97909921D01*
X140228436Y-98115774D01*
X140276036Y-98303796D01*
X140324111Y-98455455D01*
X140336686Y-98488851D01*
X140411673Y-98666631D01*
X140475850Y-98782072D01*
X140523649Y-98824864D01*
X140594687Y-98824475D01*
X140698930Y-98812401D01*
X140786936Y-98793030D01*
X140823987Y-98772423D01*
X140817656Y-98742109D01*
X140782253Y-98643094D01*
X140721517Y-98495431D01*
X140642061Y-98313271D01*
X140550501Y-98110763D01*
X140453452Y-97902057D01*
X140357527Y-97701304D01*
X140269342Y-97522653D01*
X140195510Y-97380254D01*
X140142647Y-97288257D01*
X140117367Y-97260813D01*
X140109834Y-97278836D01*
X140106945Y-97370694D01*
X140054584Y-97370694D01*
X140050698Y-97320915D01*
X140042976Y-97136166D01*
X140040110Y-97020163D01*
X140085480Y-97020163D01*
X140354822Y-97555689D01*
X140358615Y-97563237D01*
X140473527Y-97796954D01*
X140588297Y-98038799D01*
X140689810Y-98260669D01*
X140764948Y-98434459D01*
X140852478Y-98628833D01*
X140924240Y-98744896D01*
X140962895Y-98772423D01*
X140982850Y-98786633D01*
X141006672Y-98786314D01*
X141108941Y-98770604D01*
X141255653Y-98739130D01*
X141420486Y-98698247D01*
X141577118Y-98654311D01*
X141699225Y-98613676D01*
X141747298Y-98575333D01*
X141775762Y-98469076D01*
X141755978Y-98313694D01*
X141689898Y-98120776D01*
X141579469Y-97901912D01*
X141370019Y-97526192D01*
X141099601Y-97005429D01*
X140833417Y-96456471D01*
X140586110Y-95909723D01*
X140372325Y-95395587D01*
X140370657Y-95391355D01*
X140296711Y-95207639D01*
X140245696Y-95094153D01*
X140211088Y-95040770D01*
X140186361Y-95037360D01*
X140164989Y-95073797D01*
X140160795Y-95088291D01*
X140147560Y-95184571D01*
X140134486Y-95347803D01*
X140122412Y-95563757D01*
X140112180Y-95818201D01*
X140104627Y-96096905D01*
X140085480Y-97020163D01*
X140040110Y-97020163D01*
X140037188Y-96901918D01*
X140033772Y-96635326D01*
X140033166Y-96353547D01*
X140034543Y-96161059D01*
X140043410Y-95781191D01*
X140062328Y-95435665D01*
X140093759Y-95095028D01*
X140140167Y-94729827D01*
X140204014Y-94310608D01*
X140211438Y-94262372D01*
X140215989Y-94172787D01*
X140186391Y-94129458D01*
X140109879Y-94104431D01*
X140104881Y-94103222D01*
X139896360Y-94050860D01*
X139760878Y-94011768D01*
X139687563Y-93982393D01*
X139665541Y-93959180D01*
X139665605Y-93958312D01*
X139694251Y-93910186D01*
X139765024Y-93818352D01*
X139863248Y-93701908D01*
X140060955Y-93475899D01*
X139887733Y-93123422D01*
X139852374Y-93051402D01*
X139765310Y-92876246D01*
X139703416Y-92763940D01*
X139656374Y-92704161D01*
X139613862Y-92686587D01*
X139565560Y-92700896D01*
X139501150Y-92736768D01*
X139365746Y-92813851D01*
X138112579Y-92813851D01*
X138127198Y-92737757D01*
X138177801Y-92502108D01*
X138227882Y-92293919D01*
X138274117Y-92127500D01*
X138313181Y-92017156D01*
X138341748Y-91977195D01*
X138352698Y-91975735D01*
X138361654Y-91941940D01*
X138361547Y-91889778D01*
X138389372Y-91815382D01*
X139210609Y-91815382D01*
X139235186Y-91972363D01*
X139282700Y-92148817D01*
X139662558Y-92148817D01*
X139842365Y-92155267D01*
X140186622Y-92191502D01*
X140578106Y-92255941D01*
X140997548Y-92344366D01*
X141425678Y-92452555D01*
X141843227Y-92576288D01*
X142230925Y-92711345D01*
X142321278Y-92745894D01*
X142527148Y-92826659D01*
X142720088Y-92906279D01*
X142914942Y-92991542D01*
X143126557Y-93089231D01*
X143369777Y-93206133D01*
X143659449Y-93349034D01*
X144010418Y-93524719D01*
X144290773Y-93663297D01*
X144533205Y-93775873D01*
X144721048Y-93851826D01*
X144864724Y-93894168D01*
X144974654Y-93905909D01*
X145061258Y-93890060D01*
X145134959Y-93849633D01*
X145191455Y-93770783D01*
X145206430Y-93624624D01*
X145166597Y-93428036D01*
X145072690Y-93188821D01*
X145009300Y-93047226D01*
X144959519Y-92904234D01*
X144953335Y-92807062D01*
X144990715Y-92739450D01*
X145071622Y-92685134D01*
X145149850Y-92636036D01*
X145194178Y-92572658D01*
X145164981Y-92512574D01*
X145060213Y-92455034D01*
X144877829Y-92399290D01*
X144615782Y-92344589D01*
X144272026Y-92290182D01*
X143844513Y-92235320D01*
X143472861Y-92189505D01*
X143125642Y-92140580D01*
X142838202Y-92091258D01*
X142596875Y-92038511D01*
X142387995Y-91979311D01*
X142197896Y-91910630D01*
X142012914Y-91829439D01*
X141916440Y-91779479D01*
X141725646Y-91637312D01*
X141610121Y-91480265D01*
X141767906Y-91480265D01*
X141768161Y-91484767D01*
X141812998Y-91552389D01*
X141924639Y-91633621D01*
X142088179Y-91720468D01*
X142288714Y-91804935D01*
X142511338Y-91879029D01*
X142582194Y-91897697D01*
X142779047Y-91940325D01*
X143024840Y-91985206D01*
X143295082Y-92028031D01*
X143565280Y-92064490D01*
X143736033Y-92085640D01*
X143962178Y-92114967D01*
X144151033Y-92141003D01*
X144286619Y-92161521D01*
X144352957Y-92174293D01*
X144393077Y-92184707D01*
X144422204Y-92175523D01*
X144410647Y-92121460D01*
X144358970Y-92006885D01*
X144309655Y-91925794D01*
X144218067Y-91848888D01*
X144069359Y-91784077D01*
X143982642Y-91753391D01*
X143862065Y-91710618D01*
X143790235Y-91684995D01*
X143753368Y-91685620D01*
X143754652Y-91745451D01*
X143772295Y-91807704D01*
X143805400Y-91923563D01*
X143817944Y-91980082D01*
X143810316Y-92021635D01*
X143775680Y-92002666D01*
X143724659Y-91931458D01*
X143667877Y-91816300D01*
X143582758Y-91612499D01*
X142814774Y-91359712D01*
X142813259Y-91359214D01*
X142568980Y-91278696D01*
X142351391Y-91206766D01*
X142174200Y-91147974D01*
X142051116Y-91106867D01*
X141995847Y-91087994D01*
X141956275Y-91106160D01*
X141896590Y-91179510D01*
X141835199Y-91283693D01*
X141787254Y-91392636D01*
X141767906Y-91480265D01*
X141610121Y-91480265D01*
X141589736Y-91452554D01*
X141491769Y-91204898D01*
X141449652Y-91019872D01*
X141413267Y-90750060D01*
X141393797Y-90458832D01*
X141393374Y-90180635D01*
X141414128Y-89949915D01*
X141444610Y-89763998D01*
X141656319Y-89763998D01*
X141665802Y-89837149D01*
X141694158Y-89971870D01*
X141737930Y-90152657D01*
X141793665Y-90364008D01*
X141953382Y-90948056D01*
X142364783Y-91075440D01*
X142566311Y-91139001D01*
X142820000Y-91220787D01*
X143090315Y-91309295D01*
X143344680Y-91393937D01*
X143913176Y-91585050D01*
X143913176Y-91358187D01*
X143913176Y-91131324D01*
X143576917Y-90932762D01*
X143554279Y-90919296D01*
X143349583Y-90791272D01*
X143133641Y-90647509D01*
X142949620Y-90516644D01*
X142911119Y-90487939D01*
X142765418Y-90380568D01*
X142641216Y-90290851D01*
X142562007Y-90235811D01*
X142521013Y-90209749D01*
X142485076Y-90199749D01*
X142480967Y-90243481D01*
X142500949Y-90356199D01*
X142505952Y-90383959D01*
X142527846Y-90560409D01*
X142537030Y-90732938D01*
X142537020Y-90744762D01*
X142529720Y-90848600D01*
X142511041Y-90873047D01*
X142483742Y-90822930D01*
X142450583Y-90703076D01*
X142414323Y-90518312D01*
X142389934Y-90378633D01*
X142364320Y-90237967D01*
X142346904Y-90149251D01*
X142312923Y-90093316D01*
X142199195Y-90004317D01*
X142004729Y-89895305D01*
X141948272Y-89867204D01*
X141807740Y-89802544D01*
X141704637Y-89762840D01*
X141658110Y-89755798D01*
X141656319Y-89763998D01*
X141444610Y-89763998D01*
X141454577Y-89703209D01*
X141328781Y-89703209D01*
X141308965Y-89702743D01*
X141230998Y-89683093D01*
X141222541Y-89645891D01*
X141276321Y-89606847D01*
X141385062Y-89581672D01*
X141534155Y-89587735D01*
X141753810Y-89638619D01*
X141997277Y-89728805D01*
X142241776Y-89849625D01*
X142464528Y-89992412D01*
X142765997Y-90213368D01*
X143103467Y-90455038D01*
X143390510Y-90652806D01*
X143636069Y-90812640D01*
X143849090Y-90940505D01*
X144038516Y-91042369D01*
X144203171Y-91122815D01*
X144223100Y-91131324D01*
X144402417Y-91207885D01*
X144538068Y-91242996D01*
X144615236Y-91226153D01*
X144639033Y-91155362D01*
X144614570Y-91028628D01*
X144546960Y-90843954D01*
X144451353Y-90609733D01*
X144171538Y-90540411D01*
X143978175Y-90492140D01*
X143798316Y-90445555D01*
X143679897Y-90411567D01*
X143610583Y-90386169D01*
X143578040Y-90365360D01*
X143569933Y-90345136D01*
X143578257Y-90323684D01*
X143623647Y-90308295D01*
X143716340Y-90312224D01*
X143865106Y-90336645D01*
X144078715Y-90382731D01*
X144365936Y-90451657D01*
X144593770Y-90510597D01*
X144933979Y-90605898D01*
X145294429Y-90713669D01*
X145654405Y-90827326D01*
X145993191Y-90940283D01*
X146290071Y-91045956D01*
X146524329Y-91137759D01*
X146529875Y-91140090D01*
X146668285Y-91193404D01*
X146773076Y-91224959D01*
X146821948Y-91227996D01*
X146822501Y-91217641D01*
X146783160Y-91158318D01*
X146696165Y-91060396D01*
X146574150Y-90935875D01*
X146429751Y-90796757D01*
X146275603Y-90655040D01*
X146124339Y-90522727D01*
X145988596Y-90411816D01*
X145881008Y-90334309D01*
X145686397Y-90226068D01*
X145394460Y-90103505D01*
X145110856Y-90024064D01*
X145047032Y-90011855D01*
X144636770Y-89943303D01*
X144256419Y-89896113D01*
X144101627Y-89877003D01*
X143839742Y-89820131D01*
X143645852Y-89740587D01*
X143525474Y-89641028D01*
X143484122Y-89524108D01*
X143484586Y-89509453D01*
X143509593Y-89452171D01*
X143564265Y-89466666D01*
X143636816Y-89550872D01*
X143705619Y-89618558D01*
X143813511Y-89681945D01*
X143936271Y-89730945D01*
X144051582Y-89758459D01*
X144137133Y-89757391D01*
X144170609Y-89720645D01*
X144143880Y-89679363D01*
X144049615Y-89660303D01*
X144038594Y-89659785D01*
X143934391Y-89625970D01*
X143811230Y-89552781D01*
X143693305Y-89459102D01*
X143604808Y-89363822D01*
X143569933Y-89285827D01*
X143560741Y-89272816D01*
X143516047Y-89304422D01*
X143446203Y-89389179D01*
X143419529Y-89424637D01*
X143279457Y-89566865D01*
X143112621Y-89659228D01*
X142900859Y-89709141D01*
X142626014Y-89724018D01*
X142521172Y-89723384D01*
X142368652Y-89716284D01*
X142257747Y-89695656D01*
X142159366Y-89654611D01*
X142044419Y-89586258D01*
X141954554Y-89524744D01*
X141708882Y-89296318D01*
X141530144Y-89028302D01*
X141423000Y-88732183D01*
X141394548Y-88444117D01*
X141517296Y-88444117D01*
X141547629Y-88693022D01*
X141627830Y-88936270D01*
X141757484Y-89161333D01*
X141936175Y-89355685D01*
X142163486Y-89506798D01*
X142231307Y-89537603D01*
X142484684Y-89607913D01*
X142742094Y-89618837D01*
X142984715Y-89573270D01*
X143193721Y-89474108D01*
X143350290Y-89324245D01*
X143351256Y-89322883D01*
X143450357Y-89118619D01*
X143460134Y-89067968D01*
X143585983Y-89067968D01*
X143592062Y-89146533D01*
X143625000Y-89170872D01*
X143720154Y-89217912D01*
X143851243Y-89271377D01*
X144080821Y-89335309D01*
X144317394Y-89350648D01*
X144519307Y-89309367D01*
X144676271Y-89215573D01*
X144777995Y-89073376D01*
X144814190Y-88886884D01*
X144803980Y-88798020D01*
X144753848Y-88632193D01*
X144674957Y-88459919D01*
X144581989Y-88311493D01*
X144489626Y-88217210D01*
X144472909Y-88206745D01*
X144397759Y-88176813D01*
X144302060Y-88175180D01*
X144155071Y-88200292D01*
X143920620Y-88248963D01*
X143980992Y-88364684D01*
X143981691Y-88366512D01*
X144021007Y-88469393D01*
X144041628Y-88592129D01*
X144032054Y-88652719D01*
X143964777Y-88779420D01*
X143867357Y-88876971D01*
X143854557Y-88889788D01*
X143726863Y-88954501D01*
X143644084Y-88993670D01*
X143585983Y-89067968D01*
X143460134Y-89067968D01*
X143497003Y-88876971D01*
X143484399Y-88632973D01*
X143477802Y-88598772D01*
X143443217Y-88445500D01*
X143405934Y-88352171D01*
X143405476Y-88351688D01*
X143739288Y-88351688D01*
X143748140Y-88375571D01*
X143808588Y-88409418D01*
X143848489Y-88409240D01*
X143860910Y-88366512D01*
X143824232Y-88321068D01*
X143769164Y-88311816D01*
X143739288Y-88351688D01*
X143405476Y-88351688D01*
X143353965Y-88297379D01*
X143275318Y-88259719D01*
X143249144Y-88246256D01*
X143153904Y-88171057D01*
X143035106Y-88052866D01*
X142912411Y-87910597D01*
X142861823Y-87848735D01*
X142748574Y-87720845D01*
X142653955Y-87627814D01*
X142594477Y-87586474D01*
X142541046Y-87572384D01*
X142371589Y-87537984D01*
X142236124Y-87534601D01*
X142098815Y-87560347D01*
X141902977Y-87642448D01*
X141729673Y-87788718D01*
X141607902Y-87979438D01*
X141537248Y-88202079D01*
X141517296Y-88444117D01*
X141394548Y-88444117D01*
X141392112Y-88419450D01*
X141442137Y-88101590D01*
X141472103Y-87993028D01*
X141496212Y-87890903D01*
X141500852Y-87846724D01*
X141511654Y-87820552D01*
X141572722Y-87756974D01*
X141667593Y-87674126D01*
X141776189Y-87588479D01*
X141878438Y-87516507D01*
X141954262Y-87474682D01*
X142001134Y-87460663D01*
X142138183Y-87436099D01*
X142292472Y-87422862D01*
X142515111Y-87414982D01*
X142263279Y-87186122D01*
X142232359Y-87158275D01*
X142113425Y-87055998D01*
X142021405Y-86984296D01*
X141974109Y-86957263D01*
X141965373Y-86956300D01*
X141891119Y-86934473D01*
X141782731Y-86892900D01*
X141698266Y-86852921D01*
X141659949Y-86812601D01*
X141680338Y-86766305D01*
X141705568Y-86746884D01*
X141805957Y-86711134D01*
X141941388Y-86691225D01*
X142150789Y-86678378D01*
X142034432Y-86506372D01*
X142017200Y-86481062D01*
X141904722Y-86320920D01*
X141770835Y-86136484D01*
X141629709Y-85946642D01*
X141495513Y-85770280D01*
X141382416Y-85626283D01*
X141304586Y-85533540D01*
X141219368Y-85462951D01*
X141064573Y-85396971D01*
X140903415Y-85382153D01*
X140767650Y-85424920D01*
X140734042Y-85451181D01*
X140641469Y-85546273D01*
X140548835Y-85664714D01*
X140426438Y-85841333D01*
X140536144Y-86238403D01*
X140669185Y-86787134D01*
X140787791Y-87429502D01*
X140878135Y-88104450D01*
X140936097Y-88785745D01*
X140938927Y-88833660D01*
X140948936Y-89030240D01*
X140950721Y-89158329D01*
X140943074Y-89232177D01*
X140924784Y-89266035D01*
X140894642Y-89274155D01*
X140859205Y-89268959D01*
X140823987Y-89235890D01*
X140823935Y-89234506D01*
X140792439Y-89174295D01*
X140715081Y-89077041D01*
X140609793Y-88961522D01*
X140494508Y-88846516D01*
X140387157Y-88750799D01*
X140305673Y-88693148D01*
X140276179Y-88680105D01*
X140140680Y-88644760D01*
X139990451Y-88630574D01*
X139867085Y-88637971D01*
X139784165Y-88671638D01*
X139720464Y-88746216D01*
X139682879Y-88819497D01*
X139649631Y-89007473D01*
X139680350Y-89217960D01*
X139770900Y-89432329D01*
X139917145Y-89631955D01*
X139960261Y-89676209D01*
X140113512Y-89794731D01*
X140285243Y-89860495D01*
X140495057Y-89878657D01*
X140762554Y-89854375D01*
X140980007Y-89822940D01*
X140982917Y-89966875D01*
X140979193Y-90108406D01*
X140957463Y-90329408D01*
X140921324Y-90558959D01*
X140875949Y-90765609D01*
X140826510Y-90917906D01*
X140778380Y-91015348D01*
X140662903Y-91170776D01*
X140508646Y-91286694D01*
X140304338Y-91368432D01*
X140038709Y-91421325D01*
X139700487Y-91450706D01*
X139621541Y-91454755D01*
X139242021Y-91474220D01*
X139214846Y-91635065D01*
X139211682Y-91657774D01*
X139210609Y-91815382D01*
X138389372Y-91815382D01*
X138394896Y-91800613D01*
X138397494Y-91795558D01*
X138450410Y-91666570D01*
X138479580Y-91545069D01*
X138481431Y-91454755D01*
X138452391Y-91419326D01*
X138434226Y-91423056D01*
X138351460Y-91476949D01*
X138236378Y-91584420D01*
X138100401Y-91731990D01*
X137954953Y-91906177D01*
X137811456Y-92093502D01*
X137681331Y-92280482D01*
X137576002Y-92453639D01*
X137524684Y-92548869D01*
X137402602Y-92792696D01*
X137295560Y-93030052D01*
X137210502Y-93243965D01*
X137154375Y-93417462D01*
X137134122Y-93533568D01*
X137134356Y-93537965D01*
X137171673Y-93616125D01*
X137264757Y-93730971D01*
X137402176Y-93868233D01*
X137451350Y-93914424D01*
X137558459Y-94022107D01*
X137627498Y-94102326D01*
X137645352Y-94140402D01*
X137637914Y-94145165D01*
X137566831Y-94173246D01*
X137440693Y-94214783D01*
X137280761Y-94262647D01*
X136941048Y-94360014D01*
X136893961Y-94360014D01*
X136894170Y-94353327D01*
X136898032Y-94347562D01*
X136961139Y-94311814D01*
X137081878Y-94268684D01*
X137238361Y-94226256D01*
X137259970Y-94221062D01*
X137416995Y-94176143D01*
X137523775Y-94132426D01*
X137563176Y-94096743D01*
X137561069Y-94078755D01*
X137524545Y-94029504D01*
X137523237Y-94028959D01*
X137471683Y-93991293D01*
X137378596Y-93911501D01*
X137263174Y-93805998D01*
X137040434Y-93596794D01*
X137179245Y-93205322D01*
X137331913Y-92812690D01*
X137543218Y-92378912D01*
X137779964Y-92007984D01*
X138049215Y-91687584D01*
X138114471Y-91618292D01*
X138172304Y-91546922D01*
X138177628Y-91513517D01*
X138136597Y-91505236D01*
X138111683Y-91506215D01*
X137952111Y-91537247D01*
X137744169Y-91605684D01*
X137507028Y-91703127D01*
X137259855Y-91821177D01*
X137021820Y-91951438D01*
X136812091Y-92085511D01*
X136434276Y-92387549D01*
X136076819Y-92759906D01*
X135764483Y-93188669D01*
X135493503Y-93679830D01*
X135260117Y-94239380D01*
X135060560Y-94873310D01*
X135022822Y-95013786D01*
X134956598Y-95276264D01*
X134896844Y-95539767D01*
X134839192Y-95825315D01*
X134779272Y-96153926D01*
X134712714Y-96546621D01*
X134667761Y-96836389D01*
X134583887Y-97488870D01*
X134510572Y-98221479D01*
X134447999Y-99030818D01*
X134396354Y-99913490D01*
X134355820Y-100866099D01*
X134326582Y-101885246D01*
X134308824Y-102967533D01*
X134302729Y-104109564D01*
X134302365Y-106223521D01*
X134606655Y-106420365D01*
X134917387Y-106605814D01*
X135491559Y-106882411D01*
X136114555Y-107108156D01*
X136769426Y-107276343D01*
X136932644Y-107305451D01*
X137192409Y-107338391D01*
X137473746Y-107361716D01*
X137763293Y-107375508D01*
X138047684Y-107379852D01*
X138313554Y-107374832D01*
X138547540Y-107360532D01*
X138736276Y-107337035D01*
X138866397Y-107304427D01*
X138924540Y-107262791D01*
X138928072Y-107238946D01*
X138924064Y-107138493D01*
X138906832Y-106987339D01*
X138878648Y-106807986D01*
X138861836Y-106712969D01*
X138826288Y-106512060D01*
X138780854Y-106255268D01*
X138728562Y-105959711D01*
X138672441Y-105642508D01*
X138615520Y-105320776D01*
X138501785Y-104668279D01*
X138372883Y-103898358D01*
X138366262Y-103856430D01*
X139202626Y-103856430D01*
X139343399Y-104341897D01*
X139403121Y-104545381D01*
X139468267Y-104756829D01*
X139531394Y-104944552D01*
X139601628Y-105134123D01*
X139688097Y-105351119D01*
X139799928Y-105621114D01*
X139970381Y-106028716D01*
X140472268Y-106035401D01*
X140644929Y-106039222D01*
X140869703Y-106048210D01*
X141066479Y-106060320D01*
X141206352Y-106074029D01*
X141438547Y-106105970D01*
X141410112Y-104994708D01*
X141403847Y-104765125D01*
X141393975Y-104448019D01*
X141383413Y-104151558D01*
X141372794Y-103892029D01*
X141362752Y-103685719D01*
X141353919Y-103548913D01*
X141334506Y-103314949D01*
X141404910Y-103314949D01*
X141411958Y-103375541D01*
X141431530Y-103594994D01*
X141450683Y-103877706D01*
X141468714Y-104207118D01*
X141484922Y-104566669D01*
X141498608Y-104939802D01*
X141509069Y-105309954D01*
X141515605Y-105660568D01*
X141517516Y-105975084D01*
X141517740Y-106105970D01*
X141517965Y-106236880D01*
X141522217Y-106531408D01*
X141530721Y-106741131D01*
X141543501Y-106866578D01*
X141560582Y-106908276D01*
X141576985Y-106901831D01*
X141648656Y-106849836D01*
X141756805Y-106756999D01*
X141885099Y-106636976D01*
X142164508Y-106365676D01*
X142114652Y-106004122D01*
X142108325Y-105957886D01*
X142081919Y-105760616D01*
X142049456Y-105513465D01*
X142014467Y-105243436D01*
X141980481Y-104977533D01*
X141966587Y-104868051D01*
X141935669Y-104625158D01*
X141907617Y-104405716D01*
X141885062Y-104230284D01*
X141870637Y-104119425D01*
X141860292Y-104040353D01*
X141837017Y-103859147D01*
X141814360Y-103679463D01*
X141794605Y-103559718D01*
X141745030Y-103417887D01*
X141660468Y-103304041D01*
X141549753Y-103207811D01*
X141462074Y-103174027D01*
X141411470Y-103209839D01*
X141404910Y-103314949D01*
X141334506Y-103314949D01*
X141326161Y-103214381D01*
X141193064Y-103240988D01*
X141075801Y-103268149D01*
X140890940Y-103316223D01*
X140665085Y-103378102D01*
X140418899Y-103447842D01*
X140173044Y-103519498D01*
X139948182Y-103587129D01*
X139764976Y-103644789D01*
X139644088Y-103686538D01*
X139567576Y-103715928D01*
X139423148Y-103771455D01*
X139316094Y-103812672D01*
X139202626Y-103856430D01*
X138366262Y-103856430D01*
X138262719Y-103200739D01*
X138170391Y-102569196D01*
X138094999Y-101997506D01*
X138035642Y-101479443D01*
X137991418Y-101008783D01*
X137984911Y-100930395D01*
X137967213Y-100724181D01*
X137952021Y-100557037D01*
X137940778Y-100444450D01*
X137934926Y-100401913D01*
X137923329Y-100397815D01*
X137845604Y-100374058D01*
X137707143Y-100333056D01*
X137522379Y-100279066D01*
X137305744Y-100216345D01*
X137001745Y-100125359D01*
X136702021Y-100028589D01*
X136439382Y-99936412D01*
X136225320Y-99853073D01*
X136071328Y-99782816D01*
X135988899Y-99729888D01*
X135964738Y-99686187D01*
X135925322Y-99562914D01*
X135881034Y-99379235D01*
X135834706Y-99149487D01*
X135789169Y-98888007D01*
X135747257Y-98609131D01*
X135711801Y-98327195D01*
X135705052Y-98257582D01*
X135691756Y-98053258D01*
X135681000Y-97792771D01*
X135672779Y-97489024D01*
X135667093Y-97154921D01*
X135663938Y-96803364D01*
X135663311Y-96447258D01*
X135665210Y-96099506D01*
X135669633Y-95773011D01*
X135676575Y-95480676D01*
X135686036Y-95235405D01*
X135698012Y-95050101D01*
X135712501Y-94937668D01*
X135712921Y-94935774D01*
X135725661Y-94905017D01*
X135734476Y-94945843D01*
X135739423Y-95061084D01*
X135740559Y-95253568D01*
X135737941Y-95526126D01*
X135731628Y-95881587D01*
X135727552Y-96126100D01*
X135729244Y-96937033D01*
X135756474Y-97687476D01*
X135810086Y-98394367D01*
X135890925Y-99074642D01*
X135902386Y-99156115D01*
X135931237Y-99362228D01*
X135954498Y-99529859D01*
X135970025Y-99643512D01*
X135975676Y-99687694D01*
X135976108Y-99689478D01*
X136023204Y-99718936D01*
X136139789Y-99767551D01*
X136314016Y-99831450D01*
X136534037Y-99906761D01*
X136788007Y-99989608D01*
X137064077Y-100076121D01*
X137350400Y-100162424D01*
X137635130Y-100244646D01*
X137906419Y-100318913D01*
X138155296Y-100383131D01*
X138483998Y-100464102D01*
X138835195Y-100547188D01*
X139197126Y-100629883D01*
X139558032Y-100709682D01*
X139906154Y-100784079D01*
X140229731Y-100850568D01*
X140517005Y-100906643D01*
X140756216Y-100949799D01*
X140935605Y-100977530D01*
X141043411Y-100987330D01*
X141125054Y-100983377D01*
X141185984Y-100957656D01*
X141232997Y-100890452D01*
X141287418Y-100762077D01*
X141328562Y-100668322D01*
X141364532Y-100611379D01*
X141379726Y-100622634D01*
X141395413Y-100663351D01*
X141456867Y-100766330D01*
X141556523Y-100913361D01*
X141685500Y-101091466D01*
X141834915Y-101287668D01*
X142092756Y-101612431D01*
X142697735Y-102331895D01*
X143321263Y-103017700D01*
X143953849Y-103660420D01*
X144585998Y-104250629D01*
X145208217Y-104778899D01*
X145811012Y-105235804D01*
X145890194Y-105293363D01*
X146024611Y-105398513D01*
X146121932Y-105484687D01*
X146165129Y-105537385D01*
X146168645Y-105591070D01*
X146150038Y-105717253D01*
X146104919Y-105911420D01*
X146032475Y-106176696D01*
X145931896Y-106516206D01*
X145802368Y-106933076D01*
X145771039Y-107033573D01*
X145685965Y-107318246D01*
X145603820Y-107608165D01*
X145532654Y-107874438D01*
X145480517Y-108088175D01*
X145453235Y-108214184D01*
X145369198Y-108658829D01*
X145289768Y-109161005D01*
X145217659Y-109699264D01*
X145155581Y-110252161D01*
X145106246Y-110798248D01*
X145072366Y-111316079D01*
X145071348Y-111335917D01*
X145052417Y-111641755D01*
X145031641Y-111863187D01*
X145008864Y-112001527D01*
X144983929Y-112058088D01*
X144965206Y-112066327D01*
X144871839Y-112094137D01*
X144726339Y-112129813D01*
X144551092Y-112167685D01*
X144465555Y-112185724D01*
X144314226Y-112221525D01*
X144209646Y-112251731D01*
X144170609Y-112271225D01*
X144176330Y-112284104D01*
X144225987Y-112344796D01*
X144310051Y-112430032D01*
X144400692Y-112507884D01*
X144621970Y-112646976D01*
X144896121Y-112759210D01*
X145230916Y-112846858D01*
X145634122Y-112912192D01*
X146113510Y-112957484D01*
X146317184Y-112971733D01*
X146717105Y-113000967D01*
X147048450Y-113027605D01*
X147323051Y-113053046D01*
X147552741Y-113078690D01*
X147749352Y-113105937D01*
X147924715Y-113136187D01*
X148090662Y-113170840D01*
X148259025Y-113211294D01*
X148378330Y-113242664D01*
X148684346Y-113337178D01*
X148925675Y-113434367D01*
X149098224Y-113531578D01*
X149197899Y-113626157D01*
X149220607Y-113715450D01*
X149162253Y-113796805D01*
X149129777Y-113819263D01*
X148967285Y-113901349D01*
X148737887Y-113987390D01*
X148455892Y-114073606D01*
X148135613Y-114156217D01*
X147791360Y-114231444D01*
X147437444Y-114295507D01*
X147088176Y-114344624D01*
X147004603Y-114349525D01*
X146822895Y-114347250D01*
X146589938Y-114335042D01*
X146325805Y-114314534D01*
X146050566Y-114287353D01*
X145784293Y-114255130D01*
X145547059Y-114219494D01*
X145535700Y-114217551D01*
X145400149Y-114192903D01*
X145259903Y-114164089D01*
X145103869Y-114128254D01*
X144920956Y-114082543D01*
X144700070Y-114024103D01*
X144430118Y-113950079D01*
X144100009Y-113857616D01*
X143698649Y-113743861D01*
X143539033Y-113702869D01*
X143362823Y-113669378D01*
X143161921Y-113644413D01*
X142915958Y-113625482D01*
X142604561Y-113610094D01*
X141875169Y-113580067D01*
X141882680Y-113466218D01*
X141896219Y-113393908D01*
X141950566Y-113236892D01*
X142037318Y-113042149D01*
X142147151Y-112829992D01*
X142270743Y-112620735D01*
X142337082Y-112507435D01*
X142382297Y-112410743D01*
X142389420Y-112363303D01*
X142387657Y-112361658D01*
X142327175Y-112328829D01*
X142226060Y-112289337D01*
X142150226Y-112256635D01*
X142096917Y-112194915D01*
X142076145Y-112081585D01*
X142074652Y-112055148D01*
X142084571Y-111877173D01*
X142121145Y-111633852D01*
X142181001Y-111337525D01*
X142260768Y-111000534D01*
X142357073Y-110635219D01*
X142466542Y-110253921D01*
X142585805Y-109868981D01*
X142711489Y-109492740D01*
X142840220Y-109137539D01*
X142968626Y-108815719D01*
X143065247Y-108596225D01*
X143226829Y-108254184D01*
X143409145Y-107890047D01*
X143599041Y-107529254D01*
X143783364Y-107197249D01*
X143948961Y-106919472D01*
X144003084Y-106830139D01*
X144089170Y-106673311D01*
X144148503Y-106545011D01*
X144170609Y-106466639D01*
X144162877Y-106419803D01*
X144118591Y-106303496D01*
X144048104Y-106174137D01*
X144009543Y-106109688D01*
X143950913Y-105969049D01*
X143945538Y-105845124D01*
X143945568Y-105844920D01*
X143947420Y-105765229D01*
X143920905Y-105684801D01*
X143855729Y-105583188D01*
X143741602Y-105439943D01*
X143720231Y-105414459D01*
X143593557Y-105269170D01*
X143434153Y-105093365D01*
X143250316Y-104895522D01*
X143050341Y-104684121D01*
X142842525Y-104467640D01*
X142635165Y-104254558D01*
X142436557Y-104053354D01*
X142254997Y-103872507D01*
X142098782Y-103720495D01*
X141976208Y-103605798D01*
X141895572Y-103536893D01*
X141865171Y-103522261D01*
X141865442Y-103541524D01*
X141874364Y-103637606D01*
X141893218Y-103802394D01*
X141920669Y-104025190D01*
X141955384Y-104295294D01*
X141996028Y-104602006D01*
X142041267Y-104934628D01*
X142082999Y-105243692D01*
X142130639Y-105617501D01*
X142165752Y-105922139D01*
X142187934Y-106153738D01*
X142196782Y-106308433D01*
X142192998Y-106365676D01*
X142191896Y-106382356D01*
X142138173Y-106476249D01*
X142035917Y-106605659D01*
X141909652Y-106741040D01*
X141782035Y-106858218D01*
X141675725Y-106933023D01*
X141640490Y-106950926D01*
X141541218Y-106991924D01*
X141478089Y-106988771D01*
X141443014Y-106931075D01*
X141427902Y-106808439D01*
X141424663Y-106610471D01*
X141423772Y-106529672D01*
X141416121Y-106369489D01*
X141402330Y-106253301D01*
X141384454Y-106202004D01*
X141358282Y-106190539D01*
X141245597Y-106164713D01*
X141078871Y-106141773D01*
X140880365Y-106123532D01*
X140672339Y-106111800D01*
X140477055Y-106108390D01*
X140316773Y-106115114D01*
X140158970Y-106132081D01*
X140065335Y-106151066D01*
X140027344Y-106176744D01*
X140029698Y-106214405D01*
X140047476Y-106250379D01*
X140104601Y-106353916D01*
X140192246Y-106507206D01*
X140302471Y-106696404D01*
X140427335Y-106907669D01*
X140508824Y-107045244D01*
X140636841Y-107263862D01*
X140750648Y-107461128D01*
X140840241Y-107619648D01*
X140895617Y-107722025D01*
X140908187Y-107746120D01*
X140939623Y-107805598D01*
X140959307Y-107856391D01*
X140962250Y-107908152D01*
X140943464Y-107970529D01*
X140897960Y-108053173D01*
X140820749Y-108165734D01*
X140706844Y-108317862D01*
X140551254Y-108519208D01*
X140348993Y-108779420D01*
X140276708Y-108872826D01*
X139991188Y-109248392D01*
X139752814Y-109575063D01*
X139553386Y-109865110D01*
X139384703Y-110130805D01*
X139238562Y-110384422D01*
X139106762Y-110638231D01*
X138882578Y-111118883D01*
X138638635Y-111736047D01*
X138457356Y-112332418D01*
X138334094Y-112923929D01*
X138264200Y-113526513D01*
X138236802Y-113902013D01*
X138060884Y-113946959D01*
X137922598Y-113983182D01*
X137827960Y-114017867D01*
X137804079Y-114056693D01*
X137844341Y-114113977D01*
X137942133Y-114204039D01*
X137943361Y-114205136D01*
X138106290Y-114330213D01*
X138291851Y-114430131D01*
X138510438Y-114507129D01*
X138772448Y-114563447D01*
X139088277Y-114601324D01*
X139468320Y-114622999D01*
X139922974Y-114630711D01*
X140033305Y-114631556D01*
X140612139Y-114654703D01*
X141130642Y-114708448D01*
X141583523Y-114791861D01*
X141965491Y-114904010D01*
X142271255Y-115043964D01*
X142362294Y-115101083D01*
X142476674Y-115203334D01*
X142511366Y-115300329D01*
X142465124Y-115396865D01*
X142336701Y-115497739D01*
X142124853Y-115607750D01*
X142100105Y-115618830D01*
X141871728Y-115706985D01*
X141586096Y-115798810D01*
X141267734Y-115887416D01*
X140941165Y-115965915D01*
X140630913Y-116027416D01*
X140419087Y-116054199D01*
X140138995Y-116073359D01*
X139830997Y-116082431D01*
X139523331Y-116081093D01*
X139244239Y-116069019D01*
X139021960Y-116045885D01*
X138817739Y-116010070D01*
X138338285Y-115901418D01*
X137799262Y-115749821D01*
X137209129Y-115557762D01*
X136576352Y-115327728D01*
X136491580Y-115295651D01*
X136206976Y-115190548D01*
X135911114Y-115084538D01*
X135634364Y-114988396D01*
X135407097Y-114912897D01*
X135396845Y-114909609D01*
X135202493Y-114844612D01*
X135039979Y-114785469D01*
X134926048Y-114738581D01*
X134877443Y-114710352D01*
X134877231Y-114710004D01*
X134884217Y-114643292D01*
X134947387Y-114528248D01*
X135059746Y-114374454D01*
X135214299Y-114191492D01*
X135404052Y-113988945D01*
X135503473Y-113887209D01*
X135614475Y-113772707D01*
X135690223Y-113693425D01*
X135718244Y-113662327D01*
X135712428Y-113656805D01*
X135656394Y-113612626D01*
X135553611Y-113534454D01*
X135419786Y-113434288D01*
X135386775Y-113409385D01*
X135229729Y-113282393D01*
X135089004Y-113156293D01*
X134991697Y-113055088D01*
X134862067Y-112897824D01*
X134973570Y-112702628D01*
X134988339Y-112676956D01*
X135152630Y-112407453D01*
X135358049Y-112092739D01*
X135591779Y-111751204D01*
X135841004Y-111401239D01*
X136092909Y-111061233D01*
X136334676Y-110749576D01*
X136446917Y-110611973D01*
X136724224Y-110290008D01*
X137052466Y-109928786D01*
X137421704Y-109539117D01*
X137822002Y-109131808D01*
X138794899Y-108158887D01*
X138726081Y-107892949D01*
X138711914Y-107837939D01*
X138683521Y-107715235D01*
X138679399Y-107644407D01*
X138701339Y-107601991D01*
X138751128Y-107564524D01*
X138767905Y-107552886D01*
X138831431Y-107485975D01*
X138817388Y-107439633D01*
X138731782Y-107418671D01*
X138580618Y-107427901D01*
X138180929Y-107461989D01*
X137668188Y-107453554D01*
X137123815Y-107395829D01*
X136566446Y-107291662D01*
X136014719Y-107143898D01*
X135487270Y-106955385D01*
X135414788Y-106924665D01*
X135179958Y-106814258D01*
X134924933Y-106681709D01*
X134674561Y-106540812D01*
X134453691Y-106405362D01*
X134287170Y-106289153D01*
X134284353Y-106286906D01*
X134268612Y-106270532D01*
X134255282Y-106244986D01*
X134244230Y-106203883D01*
X134235322Y-106140836D01*
X134228425Y-106049460D01*
X134223406Y-105923366D01*
X134220132Y-105756171D01*
X134218469Y-105541486D01*
X134218284Y-105272925D01*
X134219445Y-104944103D01*
X134221818Y-104548633D01*
X134225269Y-104080129D01*
X134229665Y-103532204D01*
X134236901Y-102836031D01*
X134253632Y-101837688D01*
X134277707Y-100915828D01*
X134309695Y-100064956D01*
X134350164Y-99279573D01*
X134399683Y-98554183D01*
X134458820Y-97883288D01*
X134528146Y-97261393D01*
X134608228Y-96683001D01*
X134699634Y-96142614D01*
X134802934Y-95634735D01*
X134918697Y-95153868D01*
X135047491Y-94694516D01*
X135189884Y-94251182D01*
X135258348Y-94056340D01*
X135366179Y-93779787D01*
X135476926Y-93542147D01*
X135604196Y-93315339D01*
X135761594Y-93071283D01*
X135921899Y-92851553D01*
X136284969Y-92449557D01*
X136697694Y-92099822D01*
X137147931Y-91810735D01*
X137623534Y-91590680D01*
X138112360Y-91448044D01*
X138121413Y-91446160D01*
X138288778Y-91404437D01*
X138431650Y-91357184D01*
X138519962Y-91314269D01*
X138535618Y-91302787D01*
X138641527Y-91225424D01*
X138760146Y-91139116D01*
X138801446Y-91111888D01*
X138985490Y-91043378D01*
X139174114Y-91043768D01*
X139345236Y-91109982D01*
X139476773Y-91238944D01*
X139502250Y-91275512D01*
X139544042Y-91313447D01*
X139606487Y-91330596D01*
X139711187Y-91331297D01*
X139879743Y-91319889D01*
X139991240Y-91309202D01*
X140289796Y-91252463D01*
X140510117Y-91160553D01*
X140652236Y-91033458D01*
X140692626Y-90962516D01*
X140757415Y-90792604D01*
X140812729Y-90583477D01*
X140851400Y-90364257D01*
X140866258Y-90164067D01*
X140866892Y-89959892D01*
X140636677Y-89986949D01*
X140627355Y-89988013D01*
X140363396Y-89985336D01*
X140132196Y-89909618D01*
X139914258Y-89754589D01*
X139771855Y-89600407D01*
X139640399Y-89386784D01*
X139563475Y-89164601D01*
X139546974Y-88952167D01*
X139596786Y-88767792D01*
X139680320Y-88647767D01*
X139813526Y-88564563D01*
X140000321Y-88538016D01*
X140113650Y-88543881D01*
X140272848Y-88585632D01*
X140430832Y-88677076D01*
X140611305Y-88829526D01*
X140615789Y-88833713D01*
X140723488Y-88930134D01*
X140803599Y-88994290D01*
X140839073Y-89012486D01*
X140843271Y-88984021D01*
X140841439Y-88882013D01*
X140831740Y-88722285D01*
X140815607Y-88520963D01*
X140794476Y-88294176D01*
X140769780Y-88058051D01*
X140742955Y-87828715D01*
X140715433Y-87622297D01*
X140712934Y-87605166D01*
X140676042Y-87376100D01*
X140629375Y-87118314D01*
X140576894Y-86850705D01*
X140522557Y-86592171D01*
X140470327Y-86361609D01*
X140424162Y-86177916D01*
X140388023Y-86059989D01*
X140370548Y-86021327D01*
X140332958Y-85989831D01*
X140288499Y-86025438D01*
X140232457Y-86133514D01*
X140160121Y-86319423D01*
X140159618Y-86320812D01*
X140104910Y-86457754D01*
X140056307Y-86555353D01*
X140024275Y-86592561D01*
X140022566Y-86592548D01*
X139936112Y-86578541D01*
X139810860Y-86544023D01*
X139671123Y-86497633D01*
X139541211Y-86448009D01*
X139445436Y-86403790D01*
X139408109Y-86373614D01*
X139408919Y-86362421D01*
X139439902Y-86264913D01*
X139507315Y-86121798D01*
X139599517Y-85953404D01*
X139704868Y-85780060D01*
X139811728Y-85622091D01*
X139908457Y-85499827D01*
X139913162Y-85494582D01*
X140007391Y-85383712D01*
X140069292Y-85299828D01*
X140085673Y-85260728D01*
X140064697Y-85254087D01*
X139981074Y-85277200D01*
X139855129Y-85340886D01*
X139702371Y-85435222D01*
X139538310Y-85550285D01*
X139378455Y-85676150D01*
X139238317Y-85802894D01*
X138935414Y-86102807D01*
X138889092Y-85982991D01*
X138847637Y-85851818D01*
X138803270Y-85673735D01*
X138763144Y-85481939D01*
X138733947Y-85308435D01*
X138722367Y-85185226D01*
X138724742Y-85151015D01*
X138752126Y-85085793D01*
X138819180Y-85029397D01*
X138937149Y-84976120D01*
X139117284Y-84920253D01*
X139370830Y-84856085D01*
X139426500Y-84842572D01*
X139579879Y-84802883D01*
X139691814Y-84770236D01*
X139741194Y-84750642D01*
X139745075Y-84729541D01*
X139696345Y-84669748D01*
X139585542Y-84587908D01*
X139423435Y-84491524D01*
X139220793Y-84388100D01*
X139086281Y-84323084D01*
X138979774Y-84265932D01*
X138930309Y-84225726D01*
X138926185Y-84192176D01*
X138955699Y-84154991D01*
X138957812Y-84152936D01*
X139052416Y-84103117D01*
X139176547Y-84082601D01*
X139266634Y-84090903D01*
X139444861Y-84129929D01*
X139646357Y-84191829D01*
X139839432Y-84266460D01*
X139992396Y-84343683D01*
X140064269Y-84385121D01*
X140160113Y-84420203D01*
X140209643Y-84395034D01*
X140224254Y-84307854D01*
X140240626Y-84193750D01*
X140312669Y-84001913D01*
X140430052Y-83800903D01*
X140579564Y-83616429D01*
X140764414Y-83460837D01*
X141028283Y-83302985D01*
X141334947Y-83168870D01*
X141661956Y-83069828D01*
X141977657Y-82995403D01*
X142160934Y-83116689D01*
X142344211Y-83237976D01*
X142088238Y-83309268D01*
X141743830Y-83433793D01*
X141415390Y-83626876D01*
X141152147Y-83875479D01*
X140953750Y-84179871D01*
X140952544Y-84182286D01*
X140889733Y-84314267D01*
X140848872Y-84412153D01*
X140838753Y-84454911D01*
X140848154Y-84456359D01*
X140915212Y-84439145D01*
X141021200Y-84398502D01*
X141371146Y-84277618D01*
X141789884Y-84186085D01*
X142230469Y-84137693D01*
X142335453Y-84131738D01*
X142489549Y-84126325D01*
X142608314Y-84135348D01*
X142706613Y-84167532D01*
X142799313Y-84231605D01*
X142901281Y-84336294D01*
X143027383Y-84490326D01*
X143192485Y-84702427D01*
X143271872Y-84805848D01*
X143428411Y-85019612D01*
X143538012Y-85185299D01*
X143597301Y-85297573D01*
X143602899Y-85351098D01*
X143602586Y-85351356D01*
X143556737Y-85341553D01*
X143455838Y-85302289D01*
X143321136Y-85241804D01*
X143313910Y-85238396D01*
X142854786Y-85053571D01*
X142394503Y-84927592D01*
X141956990Y-84867033D01*
X141882952Y-84863040D01*
X141683470Y-84859378D01*
X141547947Y-84868096D01*
X141480751Y-84886955D01*
X141486251Y-84913713D01*
X141568817Y-84946132D01*
X141732816Y-84981972D01*
X141777712Y-84990237D01*
X141995644Y-85036168D01*
X142221103Y-85091573D01*
X142435769Y-85151126D01*
X142621321Y-85209502D01*
X142759437Y-85261375D01*
X142831795Y-85301419D01*
X142851847Y-85327319D01*
X142903367Y-85442587D01*
X142954357Y-85616115D01*
X142999658Y-85828545D01*
X143034111Y-86060517D01*
X143038970Y-86102333D01*
X143049194Y-86214992D01*
X143041268Y-86279883D01*
X143004523Y-86297071D01*
X142928287Y-86266621D01*
X142801890Y-86188597D01*
X142614661Y-86063064D01*
X142464706Y-85966270D01*
X142268848Y-85849423D01*
X142066508Y-85736917D01*
X141871031Y-85635385D01*
X141695763Y-85551460D01*
X141554049Y-85491773D01*
X141459233Y-85462958D01*
X141424663Y-85471647D01*
X141429093Y-85481094D01*
X141471873Y-85546991D01*
X141552828Y-85663760D01*
X141663004Y-85818606D01*
X141793446Y-85998731D01*
X141834284Y-86054891D01*
X141973092Y-86248850D01*
X142097620Y-86427262D01*
X142195578Y-86572340D01*
X142254680Y-86666300D01*
X142278629Y-86705588D01*
X142352430Y-86801583D01*
X142414105Y-86850363D01*
X142514157Y-86914771D01*
X142646137Y-87050953D01*
X142804812Y-87252992D01*
X142985154Y-87515033D01*
X143055670Y-87622857D01*
X143175357Y-87804224D01*
X143260627Y-87928998D01*
X143319746Y-88007711D01*
X143360978Y-88050895D01*
X143392588Y-88069082D01*
X143422840Y-88072803D01*
X143475285Y-88035947D01*
X143512703Y-87940626D01*
X143517579Y-87917915D01*
X143543879Y-87850807D01*
X143574203Y-87865185D01*
X143590356Y-87923283D01*
X143583278Y-88025473D01*
X143572182Y-88074167D01*
X143576706Y-88102508D01*
X143610002Y-88107819D01*
X143684986Y-88088378D01*
X143814569Y-88042464D01*
X144011665Y-87968354D01*
X144072969Y-87946215D01*
X144368209Y-87873480D01*
X144623129Y-87873914D01*
X144842472Y-87948112D01*
X145030988Y-88096673D01*
X145056804Y-88125171D01*
X145090511Y-88177123D01*
X145067982Y-88197957D01*
X144980475Y-88190125D01*
X144819254Y-88156077D01*
X144764520Y-88144598D01*
X144660526Y-88130303D01*
X144609174Y-88134801D01*
X144607416Y-88148575D01*
X144634246Y-88217534D01*
X144693345Y-88318637D01*
X144748058Y-88408217D01*
X144861068Y-88668053D01*
X144895911Y-88886884D01*
X144900001Y-88912569D01*
G37*
%TD*%
M02*
