%TF.GenerationSoftware,KiCad,Pcbnew,9.0.6*%
%TF.CreationDate,2026-02-11T11:47:54-05:00*%
%TF.ProjectId,microcontrollerinator,6d696372-6f63-46f6-9e74-726f6c6c6572,rev?*%
%TF.SameCoordinates,Original*%
%TF.FileFunction,Legend,Top*%
%TF.FilePolarity,Positive*%
%FSLAX46Y46*%
G04 Gerber Fmt 4.6, Leading zero omitted, Abs format (unit mm)*
G04 Created by KiCad (PCBNEW 9.0.6) date 2026-02-11 11:47:54*
%MOMM*%
%LPD*%
G01*
G04 APERTURE LIST*
%ADD10C,0.100000*%
%ADD11C,0.150000*%
%ADD12C,0.300000*%
%ADD13C,0.400000*%
%ADD14C,0.200000*%
%ADD15C,0.120000*%
G04 APERTURE END LIST*
D10*
D11*
X177002200Y-166007200D02*
X285002200Y-166007200D01*
X285002200Y-198007200D01*
X177002200Y-198007200D01*
X177002200Y-166007200D01*
D10*
D11*
X10000000Y-10000000D02*
X287002200Y-10000000D01*
X287002200Y-200007200D01*
X10000000Y-200007200D01*
X10000000Y-10000000D01*
D10*
D11*
X12000000Y-12000000D02*
X285002200Y-12000000D01*
X285002200Y-198007200D01*
X12000000Y-198007200D01*
X12000000Y-12000000D01*
D10*
D11*
X60000000Y-12000000D02*
X60000000Y-10000000D01*
D10*
D11*
X110000000Y-12000000D02*
X110000000Y-10000000D01*
D10*
D11*
X160000000Y-12000000D02*
X160000000Y-10000000D01*
D10*
D11*
X210000000Y-12000000D02*
X210000000Y-10000000D01*
D10*
D11*
X260000000Y-12000000D02*
X260000000Y-10000000D01*
D10*
D11*
X36089160Y-11593604D02*
X35346303Y-11593604D01*
X35717731Y-11593604D02*
X35717731Y-10293604D01*
X35717731Y-10293604D02*
X35593922Y-10479319D01*
X35593922Y-10479319D02*
X35470112Y-10603128D01*
X35470112Y-10603128D02*
X35346303Y-10665033D01*
D10*
D11*
X85346303Y-10417414D02*
X85408207Y-10355509D01*
X85408207Y-10355509D02*
X85532017Y-10293604D01*
X85532017Y-10293604D02*
X85841541Y-10293604D01*
X85841541Y-10293604D02*
X85965350Y-10355509D01*
X85965350Y-10355509D02*
X86027255Y-10417414D01*
X86027255Y-10417414D02*
X86089160Y-10541223D01*
X86089160Y-10541223D02*
X86089160Y-10665033D01*
X86089160Y-10665033D02*
X86027255Y-10850747D01*
X86027255Y-10850747D02*
X85284398Y-11593604D01*
X85284398Y-11593604D02*
X86089160Y-11593604D01*
D10*
D11*
X135284398Y-10293604D02*
X136089160Y-10293604D01*
X136089160Y-10293604D02*
X135655826Y-10788842D01*
X135655826Y-10788842D02*
X135841541Y-10788842D01*
X135841541Y-10788842D02*
X135965350Y-10850747D01*
X135965350Y-10850747D02*
X136027255Y-10912652D01*
X136027255Y-10912652D02*
X136089160Y-11036461D01*
X136089160Y-11036461D02*
X136089160Y-11345985D01*
X136089160Y-11345985D02*
X136027255Y-11469795D01*
X136027255Y-11469795D02*
X135965350Y-11531700D01*
X135965350Y-11531700D02*
X135841541Y-11593604D01*
X135841541Y-11593604D02*
X135470112Y-11593604D01*
X135470112Y-11593604D02*
X135346303Y-11531700D01*
X135346303Y-11531700D02*
X135284398Y-11469795D01*
D10*
D11*
X185965350Y-10726938D02*
X185965350Y-11593604D01*
X185655826Y-10231700D02*
X185346303Y-11160271D01*
X185346303Y-11160271D02*
X186151064Y-11160271D01*
D10*
D11*
X236027255Y-10293604D02*
X235408207Y-10293604D01*
X235408207Y-10293604D02*
X235346303Y-10912652D01*
X235346303Y-10912652D02*
X235408207Y-10850747D01*
X235408207Y-10850747D02*
X235532017Y-10788842D01*
X235532017Y-10788842D02*
X235841541Y-10788842D01*
X235841541Y-10788842D02*
X235965350Y-10850747D01*
X235965350Y-10850747D02*
X236027255Y-10912652D01*
X236027255Y-10912652D02*
X236089160Y-11036461D01*
X236089160Y-11036461D02*
X236089160Y-11345985D01*
X236089160Y-11345985D02*
X236027255Y-11469795D01*
X236027255Y-11469795D02*
X235965350Y-11531700D01*
X235965350Y-11531700D02*
X235841541Y-11593604D01*
X235841541Y-11593604D02*
X235532017Y-11593604D01*
X235532017Y-11593604D02*
X235408207Y-11531700D01*
X235408207Y-11531700D02*
X235346303Y-11469795D01*
D10*
D11*
X285965350Y-10293604D02*
X285717731Y-10293604D01*
X285717731Y-10293604D02*
X285593922Y-10355509D01*
X285593922Y-10355509D02*
X285532017Y-10417414D01*
X285532017Y-10417414D02*
X285408207Y-10603128D01*
X285408207Y-10603128D02*
X285346303Y-10850747D01*
X285346303Y-10850747D02*
X285346303Y-11345985D01*
X285346303Y-11345985D02*
X285408207Y-11469795D01*
X285408207Y-11469795D02*
X285470112Y-11531700D01*
X285470112Y-11531700D02*
X285593922Y-11593604D01*
X285593922Y-11593604D02*
X285841541Y-11593604D01*
X285841541Y-11593604D02*
X285965350Y-11531700D01*
X285965350Y-11531700D02*
X286027255Y-11469795D01*
X286027255Y-11469795D02*
X286089160Y-11345985D01*
X286089160Y-11345985D02*
X286089160Y-11036461D01*
X286089160Y-11036461D02*
X286027255Y-10912652D01*
X286027255Y-10912652D02*
X285965350Y-10850747D01*
X285965350Y-10850747D02*
X285841541Y-10788842D01*
X285841541Y-10788842D02*
X285593922Y-10788842D01*
X285593922Y-10788842D02*
X285470112Y-10850747D01*
X285470112Y-10850747D02*
X285408207Y-10912652D01*
X285408207Y-10912652D02*
X285346303Y-11036461D01*
D10*
D11*
X60000000Y-198007200D02*
X60000000Y-200007200D01*
D10*
D11*
X110000000Y-198007200D02*
X110000000Y-200007200D01*
D10*
D11*
X160000000Y-198007200D02*
X160000000Y-200007200D01*
D10*
D11*
X210000000Y-198007200D02*
X210000000Y-200007200D01*
D10*
D11*
X260000000Y-198007200D02*
X260000000Y-200007200D01*
D10*
D11*
X36089160Y-199600804D02*
X35346303Y-199600804D01*
X35717731Y-199600804D02*
X35717731Y-198300804D01*
X35717731Y-198300804D02*
X35593922Y-198486519D01*
X35593922Y-198486519D02*
X35470112Y-198610328D01*
X35470112Y-198610328D02*
X35346303Y-198672233D01*
D10*
D11*
X85346303Y-198424614D02*
X85408207Y-198362709D01*
X85408207Y-198362709D02*
X85532017Y-198300804D01*
X85532017Y-198300804D02*
X85841541Y-198300804D01*
X85841541Y-198300804D02*
X85965350Y-198362709D01*
X85965350Y-198362709D02*
X86027255Y-198424614D01*
X86027255Y-198424614D02*
X86089160Y-198548423D01*
X86089160Y-198548423D02*
X86089160Y-198672233D01*
X86089160Y-198672233D02*
X86027255Y-198857947D01*
X86027255Y-198857947D02*
X85284398Y-199600804D01*
X85284398Y-199600804D02*
X86089160Y-199600804D01*
D10*
D11*
X135284398Y-198300804D02*
X136089160Y-198300804D01*
X136089160Y-198300804D02*
X135655826Y-198796042D01*
X135655826Y-198796042D02*
X135841541Y-198796042D01*
X135841541Y-198796042D02*
X135965350Y-198857947D01*
X135965350Y-198857947D02*
X136027255Y-198919852D01*
X136027255Y-198919852D02*
X136089160Y-199043661D01*
X136089160Y-199043661D02*
X136089160Y-199353185D01*
X136089160Y-199353185D02*
X136027255Y-199476995D01*
X136027255Y-199476995D02*
X135965350Y-199538900D01*
X135965350Y-199538900D02*
X135841541Y-199600804D01*
X135841541Y-199600804D02*
X135470112Y-199600804D01*
X135470112Y-199600804D02*
X135346303Y-199538900D01*
X135346303Y-199538900D02*
X135284398Y-199476995D01*
D10*
D11*
X185965350Y-198734138D02*
X185965350Y-199600804D01*
X185655826Y-198238900D02*
X185346303Y-199167471D01*
X185346303Y-199167471D02*
X186151064Y-199167471D01*
D10*
D11*
X236027255Y-198300804D02*
X235408207Y-198300804D01*
X235408207Y-198300804D02*
X235346303Y-198919852D01*
X235346303Y-198919852D02*
X235408207Y-198857947D01*
X235408207Y-198857947D02*
X235532017Y-198796042D01*
X235532017Y-198796042D02*
X235841541Y-198796042D01*
X235841541Y-198796042D02*
X235965350Y-198857947D01*
X235965350Y-198857947D02*
X236027255Y-198919852D01*
X236027255Y-198919852D02*
X236089160Y-199043661D01*
X236089160Y-199043661D02*
X236089160Y-199353185D01*
X236089160Y-199353185D02*
X236027255Y-199476995D01*
X236027255Y-199476995D02*
X235965350Y-199538900D01*
X235965350Y-199538900D02*
X235841541Y-199600804D01*
X235841541Y-199600804D02*
X235532017Y-199600804D01*
X235532017Y-199600804D02*
X235408207Y-199538900D01*
X235408207Y-199538900D02*
X235346303Y-199476995D01*
D10*
D11*
X285965350Y-198300804D02*
X285717731Y-198300804D01*
X285717731Y-198300804D02*
X285593922Y-198362709D01*
X285593922Y-198362709D02*
X285532017Y-198424614D01*
X285532017Y-198424614D02*
X285408207Y-198610328D01*
X285408207Y-198610328D02*
X285346303Y-198857947D01*
X285346303Y-198857947D02*
X285346303Y-199353185D01*
X285346303Y-199353185D02*
X285408207Y-199476995D01*
X285408207Y-199476995D02*
X285470112Y-199538900D01*
X285470112Y-199538900D02*
X285593922Y-199600804D01*
X285593922Y-199600804D02*
X285841541Y-199600804D01*
X285841541Y-199600804D02*
X285965350Y-199538900D01*
X285965350Y-199538900D02*
X286027255Y-199476995D01*
X286027255Y-199476995D02*
X286089160Y-199353185D01*
X286089160Y-199353185D02*
X286089160Y-199043661D01*
X286089160Y-199043661D02*
X286027255Y-198919852D01*
X286027255Y-198919852D02*
X285965350Y-198857947D01*
X285965350Y-198857947D02*
X285841541Y-198796042D01*
X285841541Y-198796042D02*
X285593922Y-198796042D01*
X285593922Y-198796042D02*
X285470112Y-198857947D01*
X285470112Y-198857947D02*
X285408207Y-198919852D01*
X285408207Y-198919852D02*
X285346303Y-199043661D01*
D10*
D11*
X10000000Y-60000000D02*
X12000000Y-60000000D01*
D10*
D11*
X10000000Y-110000000D02*
X12000000Y-110000000D01*
D10*
D11*
X10000000Y-160000000D02*
X12000000Y-160000000D01*
D10*
D11*
X10690476Y-35222176D02*
X11309523Y-35222176D01*
X10566666Y-35593604D02*
X10999999Y-34293604D01*
X10999999Y-34293604D02*
X11433333Y-35593604D01*
D10*
D11*
X11092857Y-84912652D02*
X11278571Y-84974557D01*
X11278571Y-84974557D02*
X11340476Y-85036461D01*
X11340476Y-85036461D02*
X11402380Y-85160271D01*
X11402380Y-85160271D02*
X11402380Y-85345985D01*
X11402380Y-85345985D02*
X11340476Y-85469795D01*
X11340476Y-85469795D02*
X11278571Y-85531700D01*
X11278571Y-85531700D02*
X11154761Y-85593604D01*
X11154761Y-85593604D02*
X10659523Y-85593604D01*
X10659523Y-85593604D02*
X10659523Y-84293604D01*
X10659523Y-84293604D02*
X11092857Y-84293604D01*
X11092857Y-84293604D02*
X11216666Y-84355509D01*
X11216666Y-84355509D02*
X11278571Y-84417414D01*
X11278571Y-84417414D02*
X11340476Y-84541223D01*
X11340476Y-84541223D02*
X11340476Y-84665033D01*
X11340476Y-84665033D02*
X11278571Y-84788842D01*
X11278571Y-84788842D02*
X11216666Y-84850747D01*
X11216666Y-84850747D02*
X11092857Y-84912652D01*
X11092857Y-84912652D02*
X10659523Y-84912652D01*
D10*
D11*
X11402380Y-135469795D02*
X11340476Y-135531700D01*
X11340476Y-135531700D02*
X11154761Y-135593604D01*
X11154761Y-135593604D02*
X11030952Y-135593604D01*
X11030952Y-135593604D02*
X10845238Y-135531700D01*
X10845238Y-135531700D02*
X10721428Y-135407890D01*
X10721428Y-135407890D02*
X10659523Y-135284080D01*
X10659523Y-135284080D02*
X10597619Y-135036461D01*
X10597619Y-135036461D02*
X10597619Y-134850747D01*
X10597619Y-134850747D02*
X10659523Y-134603128D01*
X10659523Y-134603128D02*
X10721428Y-134479319D01*
X10721428Y-134479319D02*
X10845238Y-134355509D01*
X10845238Y-134355509D02*
X11030952Y-134293604D01*
X11030952Y-134293604D02*
X11154761Y-134293604D01*
X11154761Y-134293604D02*
X11340476Y-134355509D01*
X11340476Y-134355509D02*
X11402380Y-134417414D01*
D10*
D11*
X10659523Y-185593604D02*
X10659523Y-184293604D01*
X10659523Y-184293604D02*
X10969047Y-184293604D01*
X10969047Y-184293604D02*
X11154761Y-184355509D01*
X11154761Y-184355509D02*
X11278571Y-184479319D01*
X11278571Y-184479319D02*
X11340476Y-184603128D01*
X11340476Y-184603128D02*
X11402380Y-184850747D01*
X11402380Y-184850747D02*
X11402380Y-185036461D01*
X11402380Y-185036461D02*
X11340476Y-185284080D01*
X11340476Y-185284080D02*
X11278571Y-185407890D01*
X11278571Y-185407890D02*
X11154761Y-185531700D01*
X11154761Y-185531700D02*
X10969047Y-185593604D01*
X10969047Y-185593604D02*
X10659523Y-185593604D01*
D10*
D11*
X287002200Y-60000000D02*
X285002200Y-60000000D01*
D10*
D11*
X287002200Y-110000000D02*
X285002200Y-110000000D01*
D10*
D11*
X287002200Y-160000000D02*
X285002200Y-160000000D01*
D10*
D11*
X285692676Y-35222176D02*
X286311723Y-35222176D01*
X285568866Y-35593604D02*
X286002199Y-34293604D01*
X286002199Y-34293604D02*
X286435533Y-35593604D01*
D10*
D11*
X286095057Y-84912652D02*
X286280771Y-84974557D01*
X286280771Y-84974557D02*
X286342676Y-85036461D01*
X286342676Y-85036461D02*
X286404580Y-85160271D01*
X286404580Y-85160271D02*
X286404580Y-85345985D01*
X286404580Y-85345985D02*
X286342676Y-85469795D01*
X286342676Y-85469795D02*
X286280771Y-85531700D01*
X286280771Y-85531700D02*
X286156961Y-85593604D01*
X286156961Y-85593604D02*
X285661723Y-85593604D01*
X285661723Y-85593604D02*
X285661723Y-84293604D01*
X285661723Y-84293604D02*
X286095057Y-84293604D01*
X286095057Y-84293604D02*
X286218866Y-84355509D01*
X286218866Y-84355509D02*
X286280771Y-84417414D01*
X286280771Y-84417414D02*
X286342676Y-84541223D01*
X286342676Y-84541223D02*
X286342676Y-84665033D01*
X286342676Y-84665033D02*
X286280771Y-84788842D01*
X286280771Y-84788842D02*
X286218866Y-84850747D01*
X286218866Y-84850747D02*
X286095057Y-84912652D01*
X286095057Y-84912652D02*
X285661723Y-84912652D01*
D10*
D11*
X286404580Y-135469795D02*
X286342676Y-135531700D01*
X286342676Y-135531700D02*
X286156961Y-135593604D01*
X286156961Y-135593604D02*
X286033152Y-135593604D01*
X286033152Y-135593604D02*
X285847438Y-135531700D01*
X285847438Y-135531700D02*
X285723628Y-135407890D01*
X285723628Y-135407890D02*
X285661723Y-135284080D01*
X285661723Y-135284080D02*
X285599819Y-135036461D01*
X285599819Y-135036461D02*
X285599819Y-134850747D01*
X285599819Y-134850747D02*
X285661723Y-134603128D01*
X285661723Y-134603128D02*
X285723628Y-134479319D01*
X285723628Y-134479319D02*
X285847438Y-134355509D01*
X285847438Y-134355509D02*
X286033152Y-134293604D01*
X286033152Y-134293604D02*
X286156961Y-134293604D01*
X286156961Y-134293604D02*
X286342676Y-134355509D01*
X286342676Y-134355509D02*
X286404580Y-134417414D01*
D10*
D11*
X285661723Y-185593604D02*
X285661723Y-184293604D01*
X285661723Y-184293604D02*
X285971247Y-184293604D01*
X285971247Y-184293604D02*
X286156961Y-184355509D01*
X286156961Y-184355509D02*
X286280771Y-184479319D01*
X286280771Y-184479319D02*
X286342676Y-184603128D01*
X286342676Y-184603128D02*
X286404580Y-184850747D01*
X286404580Y-184850747D02*
X286404580Y-185036461D01*
X286404580Y-185036461D02*
X286342676Y-185284080D01*
X286342676Y-185284080D02*
X286280771Y-185407890D01*
X286280771Y-185407890D02*
X286156961Y-185531700D01*
X286156961Y-185531700D02*
X285971247Y-185593604D01*
X285971247Y-185593604D02*
X285661723Y-185593604D01*
D10*
D11*
X200458026Y-193793328D02*
X200458026Y-192293328D01*
X200458026Y-192293328D02*
X200815169Y-192293328D01*
X200815169Y-192293328D02*
X201029455Y-192364757D01*
X201029455Y-192364757D02*
X201172312Y-192507614D01*
X201172312Y-192507614D02*
X201243741Y-192650471D01*
X201243741Y-192650471D02*
X201315169Y-192936185D01*
X201315169Y-192936185D02*
X201315169Y-193150471D01*
X201315169Y-193150471D02*
X201243741Y-193436185D01*
X201243741Y-193436185D02*
X201172312Y-193579042D01*
X201172312Y-193579042D02*
X201029455Y-193721900D01*
X201029455Y-193721900D02*
X200815169Y-193793328D01*
X200815169Y-193793328D02*
X200458026Y-193793328D01*
X202600884Y-193793328D02*
X202600884Y-193007614D01*
X202600884Y-193007614D02*
X202529455Y-192864757D01*
X202529455Y-192864757D02*
X202386598Y-192793328D01*
X202386598Y-192793328D02*
X202100884Y-192793328D01*
X202100884Y-192793328D02*
X201958026Y-192864757D01*
X202600884Y-193721900D02*
X202458026Y-193793328D01*
X202458026Y-193793328D02*
X202100884Y-193793328D01*
X202100884Y-193793328D02*
X201958026Y-193721900D01*
X201958026Y-193721900D02*
X201886598Y-193579042D01*
X201886598Y-193579042D02*
X201886598Y-193436185D01*
X201886598Y-193436185D02*
X201958026Y-193293328D01*
X201958026Y-193293328D02*
X202100884Y-193221900D01*
X202100884Y-193221900D02*
X202458026Y-193221900D01*
X202458026Y-193221900D02*
X202600884Y-193150471D01*
X203100884Y-192793328D02*
X203672312Y-192793328D01*
X203315169Y-192293328D02*
X203315169Y-193579042D01*
X203315169Y-193579042D02*
X203386598Y-193721900D01*
X203386598Y-193721900D02*
X203529455Y-193793328D01*
X203529455Y-193793328D02*
X203672312Y-193793328D01*
X204743741Y-193721900D02*
X204600884Y-193793328D01*
X204600884Y-193793328D02*
X204315170Y-193793328D01*
X204315170Y-193793328D02*
X204172312Y-193721900D01*
X204172312Y-193721900D02*
X204100884Y-193579042D01*
X204100884Y-193579042D02*
X204100884Y-193007614D01*
X204100884Y-193007614D02*
X204172312Y-192864757D01*
X204172312Y-192864757D02*
X204315170Y-192793328D01*
X204315170Y-192793328D02*
X204600884Y-192793328D01*
X204600884Y-192793328D02*
X204743741Y-192864757D01*
X204743741Y-192864757D02*
X204815170Y-193007614D01*
X204815170Y-193007614D02*
X204815170Y-193150471D01*
X204815170Y-193150471D02*
X204100884Y-193293328D01*
X205458026Y-193650471D02*
X205529455Y-193721900D01*
X205529455Y-193721900D02*
X205458026Y-193793328D01*
X205458026Y-193793328D02*
X205386598Y-193721900D01*
X205386598Y-193721900D02*
X205458026Y-193650471D01*
X205458026Y-193650471D02*
X205458026Y-193793328D01*
X205458026Y-192864757D02*
X205529455Y-192936185D01*
X205529455Y-192936185D02*
X205458026Y-193007614D01*
X205458026Y-193007614D02*
X205386598Y-192936185D01*
X205386598Y-192936185D02*
X205458026Y-192864757D01*
X205458026Y-192864757D02*
X205458026Y-193007614D01*
D10*
D11*
X177002200Y-194507200D02*
X285002200Y-194507200D01*
D10*
D11*
X178458026Y-196593328D02*
X178458026Y-195093328D01*
X179315169Y-196593328D02*
X178672312Y-195736185D01*
X179315169Y-195093328D02*
X178458026Y-195950471D01*
X179958026Y-196593328D02*
X179958026Y-195593328D01*
X179958026Y-195093328D02*
X179886598Y-195164757D01*
X179886598Y-195164757D02*
X179958026Y-195236185D01*
X179958026Y-195236185D02*
X180029455Y-195164757D01*
X180029455Y-195164757D02*
X179958026Y-195093328D01*
X179958026Y-195093328D02*
X179958026Y-195236185D01*
X181529455Y-196450471D02*
X181458027Y-196521900D01*
X181458027Y-196521900D02*
X181243741Y-196593328D01*
X181243741Y-196593328D02*
X181100884Y-196593328D01*
X181100884Y-196593328D02*
X180886598Y-196521900D01*
X180886598Y-196521900D02*
X180743741Y-196379042D01*
X180743741Y-196379042D02*
X180672312Y-196236185D01*
X180672312Y-196236185D02*
X180600884Y-195950471D01*
X180600884Y-195950471D02*
X180600884Y-195736185D01*
X180600884Y-195736185D02*
X180672312Y-195450471D01*
X180672312Y-195450471D02*
X180743741Y-195307614D01*
X180743741Y-195307614D02*
X180886598Y-195164757D01*
X180886598Y-195164757D02*
X181100884Y-195093328D01*
X181100884Y-195093328D02*
X181243741Y-195093328D01*
X181243741Y-195093328D02*
X181458027Y-195164757D01*
X181458027Y-195164757D02*
X181529455Y-195236185D01*
X182815170Y-196593328D02*
X182815170Y-195807614D01*
X182815170Y-195807614D02*
X182743741Y-195664757D01*
X182743741Y-195664757D02*
X182600884Y-195593328D01*
X182600884Y-195593328D02*
X182315170Y-195593328D01*
X182315170Y-195593328D02*
X182172312Y-195664757D01*
X182815170Y-196521900D02*
X182672312Y-196593328D01*
X182672312Y-196593328D02*
X182315170Y-196593328D01*
X182315170Y-196593328D02*
X182172312Y-196521900D01*
X182172312Y-196521900D02*
X182100884Y-196379042D01*
X182100884Y-196379042D02*
X182100884Y-196236185D01*
X182100884Y-196236185D02*
X182172312Y-196093328D01*
X182172312Y-196093328D02*
X182315170Y-196021900D01*
X182315170Y-196021900D02*
X182672312Y-196021900D01*
X182672312Y-196021900D02*
X182815170Y-195950471D01*
X184172313Y-196593328D02*
X184172313Y-195093328D01*
X184172313Y-196521900D02*
X184029455Y-196593328D01*
X184029455Y-196593328D02*
X183743741Y-196593328D01*
X183743741Y-196593328D02*
X183600884Y-196521900D01*
X183600884Y-196521900D02*
X183529455Y-196450471D01*
X183529455Y-196450471D02*
X183458027Y-196307614D01*
X183458027Y-196307614D02*
X183458027Y-195879042D01*
X183458027Y-195879042D02*
X183529455Y-195736185D01*
X183529455Y-195736185D02*
X183600884Y-195664757D01*
X183600884Y-195664757D02*
X183743741Y-195593328D01*
X183743741Y-195593328D02*
X184029455Y-195593328D01*
X184029455Y-195593328D02*
X184172313Y-195664757D01*
X186029455Y-195807614D02*
X186529455Y-195807614D01*
X186743741Y-196593328D02*
X186029455Y-196593328D01*
X186029455Y-196593328D02*
X186029455Y-195093328D01*
X186029455Y-195093328D02*
X186743741Y-195093328D01*
X187386598Y-196450471D02*
X187458027Y-196521900D01*
X187458027Y-196521900D02*
X187386598Y-196593328D01*
X187386598Y-196593328D02*
X187315170Y-196521900D01*
X187315170Y-196521900D02*
X187386598Y-196450471D01*
X187386598Y-196450471D02*
X187386598Y-196593328D01*
X188100884Y-196593328D02*
X188100884Y-195093328D01*
X188100884Y-195093328D02*
X188458027Y-195093328D01*
X188458027Y-195093328D02*
X188672313Y-195164757D01*
X188672313Y-195164757D02*
X188815170Y-195307614D01*
X188815170Y-195307614D02*
X188886599Y-195450471D01*
X188886599Y-195450471D02*
X188958027Y-195736185D01*
X188958027Y-195736185D02*
X188958027Y-195950471D01*
X188958027Y-195950471D02*
X188886599Y-196236185D01*
X188886599Y-196236185D02*
X188815170Y-196379042D01*
X188815170Y-196379042D02*
X188672313Y-196521900D01*
X188672313Y-196521900D02*
X188458027Y-196593328D01*
X188458027Y-196593328D02*
X188100884Y-196593328D01*
X189600884Y-196450471D02*
X189672313Y-196521900D01*
X189672313Y-196521900D02*
X189600884Y-196593328D01*
X189600884Y-196593328D02*
X189529456Y-196521900D01*
X189529456Y-196521900D02*
X189600884Y-196450471D01*
X189600884Y-196450471D02*
X189600884Y-196593328D01*
X190243742Y-196164757D02*
X190958028Y-196164757D01*
X190100885Y-196593328D02*
X190600885Y-195093328D01*
X190600885Y-195093328D02*
X191100885Y-196593328D01*
X191600884Y-196450471D02*
X191672313Y-196521900D01*
X191672313Y-196521900D02*
X191600884Y-196593328D01*
X191600884Y-196593328D02*
X191529456Y-196521900D01*
X191529456Y-196521900D02*
X191600884Y-196450471D01*
X191600884Y-196450471D02*
X191600884Y-196593328D01*
X193529456Y-196593328D02*
X193815170Y-196593328D01*
X193815170Y-196593328D02*
X193958027Y-196521900D01*
X193958027Y-196521900D02*
X194029456Y-196450471D01*
X194029456Y-196450471D02*
X194172313Y-196236185D01*
X194172313Y-196236185D02*
X194243742Y-195950471D01*
X194243742Y-195950471D02*
X194243742Y-195379042D01*
X194243742Y-195379042D02*
X194172313Y-195236185D01*
X194172313Y-195236185D02*
X194100885Y-195164757D01*
X194100885Y-195164757D02*
X193958027Y-195093328D01*
X193958027Y-195093328D02*
X193672313Y-195093328D01*
X193672313Y-195093328D02*
X193529456Y-195164757D01*
X193529456Y-195164757D02*
X193458027Y-195236185D01*
X193458027Y-195236185D02*
X193386599Y-195379042D01*
X193386599Y-195379042D02*
X193386599Y-195736185D01*
X193386599Y-195736185D02*
X193458027Y-195879042D01*
X193458027Y-195879042D02*
X193529456Y-195950471D01*
X193529456Y-195950471D02*
X193672313Y-196021900D01*
X193672313Y-196021900D02*
X193958027Y-196021900D01*
X193958027Y-196021900D02*
X194100885Y-195950471D01*
X194100885Y-195950471D02*
X194172313Y-195879042D01*
X194172313Y-195879042D02*
X194243742Y-195736185D01*
X194886598Y-196450471D02*
X194958027Y-196521900D01*
X194958027Y-196521900D02*
X194886598Y-196593328D01*
X194886598Y-196593328D02*
X194815170Y-196521900D01*
X194815170Y-196521900D02*
X194886598Y-196450471D01*
X194886598Y-196450471D02*
X194886598Y-196593328D01*
X195886599Y-195093328D02*
X196029456Y-195093328D01*
X196029456Y-195093328D02*
X196172313Y-195164757D01*
X196172313Y-195164757D02*
X196243742Y-195236185D01*
X196243742Y-195236185D02*
X196315170Y-195379042D01*
X196315170Y-195379042D02*
X196386599Y-195664757D01*
X196386599Y-195664757D02*
X196386599Y-196021900D01*
X196386599Y-196021900D02*
X196315170Y-196307614D01*
X196315170Y-196307614D02*
X196243742Y-196450471D01*
X196243742Y-196450471D02*
X196172313Y-196521900D01*
X196172313Y-196521900D02*
X196029456Y-196593328D01*
X196029456Y-196593328D02*
X195886599Y-196593328D01*
X195886599Y-196593328D02*
X195743742Y-196521900D01*
X195743742Y-196521900D02*
X195672313Y-196450471D01*
X195672313Y-196450471D02*
X195600884Y-196307614D01*
X195600884Y-196307614D02*
X195529456Y-196021900D01*
X195529456Y-196021900D02*
X195529456Y-195664757D01*
X195529456Y-195664757D02*
X195600884Y-195379042D01*
X195600884Y-195379042D02*
X195672313Y-195236185D01*
X195672313Y-195236185D02*
X195743742Y-195164757D01*
X195743742Y-195164757D02*
X195886599Y-195093328D01*
X197029455Y-196450471D02*
X197100884Y-196521900D01*
X197100884Y-196521900D02*
X197029455Y-196593328D01*
X197029455Y-196593328D02*
X196958027Y-196521900D01*
X196958027Y-196521900D02*
X197029455Y-196450471D01*
X197029455Y-196450471D02*
X197029455Y-196593328D01*
X198386599Y-195093328D02*
X198100884Y-195093328D01*
X198100884Y-195093328D02*
X197958027Y-195164757D01*
X197958027Y-195164757D02*
X197886599Y-195236185D01*
X197886599Y-195236185D02*
X197743741Y-195450471D01*
X197743741Y-195450471D02*
X197672313Y-195736185D01*
X197672313Y-195736185D02*
X197672313Y-196307614D01*
X197672313Y-196307614D02*
X197743741Y-196450471D01*
X197743741Y-196450471D02*
X197815170Y-196521900D01*
X197815170Y-196521900D02*
X197958027Y-196593328D01*
X197958027Y-196593328D02*
X198243741Y-196593328D01*
X198243741Y-196593328D02*
X198386599Y-196521900D01*
X198386599Y-196521900D02*
X198458027Y-196450471D01*
X198458027Y-196450471D02*
X198529456Y-196307614D01*
X198529456Y-196307614D02*
X198529456Y-195950471D01*
X198529456Y-195950471D02*
X198458027Y-195807614D01*
X198458027Y-195807614D02*
X198386599Y-195736185D01*
X198386599Y-195736185D02*
X198243741Y-195664757D01*
X198243741Y-195664757D02*
X197958027Y-195664757D01*
X197958027Y-195664757D02*
X197815170Y-195736185D01*
X197815170Y-195736185D02*
X197743741Y-195807614D01*
X197743741Y-195807614D02*
X197672313Y-195950471D01*
D10*
D11*
X177002200Y-191507200D02*
X285002200Y-191507200D01*
D10*
D12*
X264413853Y-193785528D02*
X263913853Y-193071242D01*
X263556710Y-193785528D02*
X263556710Y-192285528D01*
X263556710Y-192285528D02*
X264128139Y-192285528D01*
X264128139Y-192285528D02*
X264270996Y-192356957D01*
X264270996Y-192356957D02*
X264342425Y-192428385D01*
X264342425Y-192428385D02*
X264413853Y-192571242D01*
X264413853Y-192571242D02*
X264413853Y-192785528D01*
X264413853Y-192785528D02*
X264342425Y-192928385D01*
X264342425Y-192928385D02*
X264270996Y-192999814D01*
X264270996Y-192999814D02*
X264128139Y-193071242D01*
X264128139Y-193071242D02*
X263556710Y-193071242D01*
X265628139Y-193714100D02*
X265485282Y-193785528D01*
X265485282Y-193785528D02*
X265199568Y-193785528D01*
X265199568Y-193785528D02*
X265056710Y-193714100D01*
X265056710Y-193714100D02*
X264985282Y-193571242D01*
X264985282Y-193571242D02*
X264985282Y-192999814D01*
X264985282Y-192999814D02*
X265056710Y-192856957D01*
X265056710Y-192856957D02*
X265199568Y-192785528D01*
X265199568Y-192785528D02*
X265485282Y-192785528D01*
X265485282Y-192785528D02*
X265628139Y-192856957D01*
X265628139Y-192856957D02*
X265699568Y-192999814D01*
X265699568Y-192999814D02*
X265699568Y-193142671D01*
X265699568Y-193142671D02*
X264985282Y-193285528D01*
X266199567Y-192785528D02*
X266556710Y-193785528D01*
X266556710Y-193785528D02*
X266913853Y-192785528D01*
X267485281Y-193642671D02*
X267556710Y-193714100D01*
X267556710Y-193714100D02*
X267485281Y-193785528D01*
X267485281Y-193785528D02*
X267413853Y-193714100D01*
X267413853Y-193714100D02*
X267485281Y-193642671D01*
X267485281Y-193642671D02*
X267485281Y-193785528D01*
X267485281Y-192856957D02*
X267556710Y-192928385D01*
X267556710Y-192928385D02*
X267485281Y-192999814D01*
X267485281Y-192999814D02*
X267413853Y-192928385D01*
X267413853Y-192928385D02*
X267485281Y-192856957D01*
X267485281Y-192856957D02*
X267485281Y-192999814D01*
D10*
D11*
X178386598Y-193721900D02*
X178600884Y-193793328D01*
X178600884Y-193793328D02*
X178958026Y-193793328D01*
X178958026Y-193793328D02*
X179100884Y-193721900D01*
X179100884Y-193721900D02*
X179172312Y-193650471D01*
X179172312Y-193650471D02*
X179243741Y-193507614D01*
X179243741Y-193507614D02*
X179243741Y-193364757D01*
X179243741Y-193364757D02*
X179172312Y-193221900D01*
X179172312Y-193221900D02*
X179100884Y-193150471D01*
X179100884Y-193150471D02*
X178958026Y-193079042D01*
X178958026Y-193079042D02*
X178672312Y-193007614D01*
X178672312Y-193007614D02*
X178529455Y-192936185D01*
X178529455Y-192936185D02*
X178458026Y-192864757D01*
X178458026Y-192864757D02*
X178386598Y-192721900D01*
X178386598Y-192721900D02*
X178386598Y-192579042D01*
X178386598Y-192579042D02*
X178458026Y-192436185D01*
X178458026Y-192436185D02*
X178529455Y-192364757D01*
X178529455Y-192364757D02*
X178672312Y-192293328D01*
X178672312Y-192293328D02*
X179029455Y-192293328D01*
X179029455Y-192293328D02*
X179243741Y-192364757D01*
X179886597Y-193793328D02*
X179886597Y-192793328D01*
X179886597Y-192293328D02*
X179815169Y-192364757D01*
X179815169Y-192364757D02*
X179886597Y-192436185D01*
X179886597Y-192436185D02*
X179958026Y-192364757D01*
X179958026Y-192364757D02*
X179886597Y-192293328D01*
X179886597Y-192293328D02*
X179886597Y-192436185D01*
X180458026Y-192793328D02*
X181243741Y-192793328D01*
X181243741Y-192793328D02*
X180458026Y-193793328D01*
X180458026Y-193793328D02*
X181243741Y-193793328D01*
X182386598Y-193721900D02*
X182243741Y-193793328D01*
X182243741Y-193793328D02*
X181958027Y-193793328D01*
X181958027Y-193793328D02*
X181815169Y-193721900D01*
X181815169Y-193721900D02*
X181743741Y-193579042D01*
X181743741Y-193579042D02*
X181743741Y-193007614D01*
X181743741Y-193007614D02*
X181815169Y-192864757D01*
X181815169Y-192864757D02*
X181958027Y-192793328D01*
X181958027Y-192793328D02*
X182243741Y-192793328D01*
X182243741Y-192793328D02*
X182386598Y-192864757D01*
X182386598Y-192864757D02*
X182458027Y-193007614D01*
X182458027Y-193007614D02*
X182458027Y-193150471D01*
X182458027Y-193150471D02*
X181743741Y-193293328D01*
X183100883Y-193650471D02*
X183172312Y-193721900D01*
X183172312Y-193721900D02*
X183100883Y-193793328D01*
X183100883Y-193793328D02*
X183029455Y-193721900D01*
X183029455Y-193721900D02*
X183100883Y-193650471D01*
X183100883Y-193650471D02*
X183100883Y-193793328D01*
X183100883Y-192864757D02*
X183172312Y-192936185D01*
X183172312Y-192936185D02*
X183100883Y-193007614D01*
X183100883Y-193007614D02*
X183029455Y-192936185D01*
X183029455Y-192936185D02*
X183100883Y-192864757D01*
X183100883Y-192864757D02*
X183100883Y-193007614D01*
X184886598Y-193364757D02*
X185600884Y-193364757D01*
X184743741Y-193793328D02*
X185243741Y-192293328D01*
X185243741Y-192293328D02*
X185743741Y-193793328D01*
X186886598Y-192793328D02*
X186886598Y-193793328D01*
X186529455Y-192221900D02*
X186172312Y-193293328D01*
X186172312Y-193293328D02*
X187100883Y-193293328D01*
D10*
D11*
X263458026Y-196593328D02*
X263458026Y-195093328D01*
X264815170Y-196593328D02*
X264815170Y-195093328D01*
X264815170Y-196521900D02*
X264672312Y-196593328D01*
X264672312Y-196593328D02*
X264386598Y-196593328D01*
X264386598Y-196593328D02*
X264243741Y-196521900D01*
X264243741Y-196521900D02*
X264172312Y-196450471D01*
X264172312Y-196450471D02*
X264100884Y-196307614D01*
X264100884Y-196307614D02*
X264100884Y-195879042D01*
X264100884Y-195879042D02*
X264172312Y-195736185D01*
X264172312Y-195736185D02*
X264243741Y-195664757D01*
X264243741Y-195664757D02*
X264386598Y-195593328D01*
X264386598Y-195593328D02*
X264672312Y-195593328D01*
X264672312Y-195593328D02*
X264815170Y-195664757D01*
X265529455Y-196450471D02*
X265600884Y-196521900D01*
X265600884Y-196521900D02*
X265529455Y-196593328D01*
X265529455Y-196593328D02*
X265458027Y-196521900D01*
X265458027Y-196521900D02*
X265529455Y-196450471D01*
X265529455Y-196450471D02*
X265529455Y-196593328D01*
X265529455Y-195664757D02*
X265600884Y-195736185D01*
X265600884Y-195736185D02*
X265529455Y-195807614D01*
X265529455Y-195807614D02*
X265458027Y-195736185D01*
X265458027Y-195736185D02*
X265529455Y-195664757D01*
X265529455Y-195664757D02*
X265529455Y-195807614D01*
X268100884Y-195093328D02*
X267386598Y-195093328D01*
X267386598Y-195093328D02*
X267315170Y-195807614D01*
X267315170Y-195807614D02*
X267386598Y-195736185D01*
X267386598Y-195736185D02*
X267529456Y-195664757D01*
X267529456Y-195664757D02*
X267886598Y-195664757D01*
X267886598Y-195664757D02*
X268029456Y-195736185D01*
X268029456Y-195736185D02*
X268100884Y-195807614D01*
X268100884Y-195807614D02*
X268172313Y-195950471D01*
X268172313Y-195950471D02*
X268172313Y-196307614D01*
X268172313Y-196307614D02*
X268100884Y-196450471D01*
X268100884Y-196450471D02*
X268029456Y-196521900D01*
X268029456Y-196521900D02*
X267886598Y-196593328D01*
X267886598Y-196593328D02*
X267529456Y-196593328D01*
X267529456Y-196593328D02*
X267386598Y-196521900D01*
X267386598Y-196521900D02*
X267315170Y-196450471D01*
X269886598Y-195021900D02*
X268600884Y-196950471D01*
X270458027Y-196593328D02*
X270743741Y-196593328D01*
X270743741Y-196593328D02*
X270886598Y-196521900D01*
X270886598Y-196521900D02*
X270958027Y-196450471D01*
X270958027Y-196450471D02*
X271100884Y-196236185D01*
X271100884Y-196236185D02*
X271172313Y-195950471D01*
X271172313Y-195950471D02*
X271172313Y-195379042D01*
X271172313Y-195379042D02*
X271100884Y-195236185D01*
X271100884Y-195236185D02*
X271029456Y-195164757D01*
X271029456Y-195164757D02*
X270886598Y-195093328D01*
X270886598Y-195093328D02*
X270600884Y-195093328D01*
X270600884Y-195093328D02*
X270458027Y-195164757D01*
X270458027Y-195164757D02*
X270386598Y-195236185D01*
X270386598Y-195236185D02*
X270315170Y-195379042D01*
X270315170Y-195379042D02*
X270315170Y-195736185D01*
X270315170Y-195736185D02*
X270386598Y-195879042D01*
X270386598Y-195879042D02*
X270458027Y-195950471D01*
X270458027Y-195950471D02*
X270600884Y-196021900D01*
X270600884Y-196021900D02*
X270886598Y-196021900D01*
X270886598Y-196021900D02*
X271029456Y-195950471D01*
X271029456Y-195950471D02*
X271100884Y-195879042D01*
X271100884Y-195879042D02*
X271172313Y-195736185D01*
D10*
D11*
X177002200Y-187507200D02*
X285002200Y-187507200D01*
D10*
D13*
X178693928Y-188211638D02*
X179836785Y-188211638D01*
X179015357Y-190211638D02*
X179265357Y-188211638D01*
X180253452Y-190211638D02*
X180420119Y-188878304D01*
X180503452Y-188211638D02*
X180396309Y-188306876D01*
X180396309Y-188306876D02*
X180479643Y-188402114D01*
X180479643Y-188402114D02*
X180586786Y-188306876D01*
X180586786Y-188306876D02*
X180503452Y-188211638D01*
X180503452Y-188211638D02*
X180479643Y-188402114D01*
X181086786Y-188878304D02*
X181848690Y-188878304D01*
X181455833Y-188211638D02*
X181241548Y-189925923D01*
X181241548Y-189925923D02*
X181312976Y-190116400D01*
X181312976Y-190116400D02*
X181491548Y-190211638D01*
X181491548Y-190211638D02*
X181682024Y-190211638D01*
X182634405Y-190211638D02*
X182455833Y-190116400D01*
X182455833Y-190116400D02*
X182384405Y-189925923D01*
X182384405Y-189925923D02*
X182598690Y-188211638D01*
X184170119Y-190116400D02*
X183967738Y-190211638D01*
X183967738Y-190211638D02*
X183586785Y-190211638D01*
X183586785Y-190211638D02*
X183408214Y-190116400D01*
X183408214Y-190116400D02*
X183336785Y-189925923D01*
X183336785Y-189925923D02*
X183432024Y-189164019D01*
X183432024Y-189164019D02*
X183551071Y-188973542D01*
X183551071Y-188973542D02*
X183753452Y-188878304D01*
X183753452Y-188878304D02*
X184134404Y-188878304D01*
X184134404Y-188878304D02*
X184312976Y-188973542D01*
X184312976Y-188973542D02*
X184384404Y-189164019D01*
X184384404Y-189164019D02*
X184360595Y-189354495D01*
X184360595Y-189354495D02*
X183384404Y-189544971D01*
X185134405Y-190021161D02*
X185217738Y-190116400D01*
X185217738Y-190116400D02*
X185110595Y-190211638D01*
X185110595Y-190211638D02*
X185027262Y-190116400D01*
X185027262Y-190116400D02*
X185134405Y-190021161D01*
X185134405Y-190021161D02*
X185110595Y-190211638D01*
X185265357Y-188973542D02*
X185348690Y-189068780D01*
X185348690Y-189068780D02*
X185241548Y-189164019D01*
X185241548Y-189164019D02*
X185158214Y-189068780D01*
X185158214Y-189068780D02*
X185265357Y-188973542D01*
X185265357Y-188973542D02*
X185241548Y-189164019D01*
D10*
D11*
X178958026Y-185607614D02*
X178458026Y-185607614D01*
X178458026Y-186393328D02*
X178458026Y-184893328D01*
X178458026Y-184893328D02*
X179172312Y-184893328D01*
X179743740Y-186393328D02*
X179743740Y-185393328D01*
X179743740Y-184893328D02*
X179672312Y-184964757D01*
X179672312Y-184964757D02*
X179743740Y-185036185D01*
X179743740Y-185036185D02*
X179815169Y-184964757D01*
X179815169Y-184964757D02*
X179743740Y-184893328D01*
X179743740Y-184893328D02*
X179743740Y-185036185D01*
X180672312Y-186393328D02*
X180529455Y-186321900D01*
X180529455Y-186321900D02*
X180458026Y-186179042D01*
X180458026Y-186179042D02*
X180458026Y-184893328D01*
X181815169Y-186321900D02*
X181672312Y-186393328D01*
X181672312Y-186393328D02*
X181386598Y-186393328D01*
X181386598Y-186393328D02*
X181243740Y-186321900D01*
X181243740Y-186321900D02*
X181172312Y-186179042D01*
X181172312Y-186179042D02*
X181172312Y-185607614D01*
X181172312Y-185607614D02*
X181243740Y-185464757D01*
X181243740Y-185464757D02*
X181386598Y-185393328D01*
X181386598Y-185393328D02*
X181672312Y-185393328D01*
X181672312Y-185393328D02*
X181815169Y-185464757D01*
X181815169Y-185464757D02*
X181886598Y-185607614D01*
X181886598Y-185607614D02*
X181886598Y-185750471D01*
X181886598Y-185750471D02*
X181172312Y-185893328D01*
X182529454Y-186250471D02*
X182600883Y-186321900D01*
X182600883Y-186321900D02*
X182529454Y-186393328D01*
X182529454Y-186393328D02*
X182458026Y-186321900D01*
X182458026Y-186321900D02*
X182529454Y-186250471D01*
X182529454Y-186250471D02*
X182529454Y-186393328D01*
X182529454Y-185464757D02*
X182600883Y-185536185D01*
X182600883Y-185536185D02*
X182529454Y-185607614D01*
X182529454Y-185607614D02*
X182458026Y-185536185D01*
X182458026Y-185536185D02*
X182529454Y-185464757D01*
X182529454Y-185464757D02*
X182529454Y-185607614D01*
X184386597Y-186393328D02*
X184386597Y-185393328D01*
X184386597Y-185536185D02*
X184458026Y-185464757D01*
X184458026Y-185464757D02*
X184600883Y-185393328D01*
X184600883Y-185393328D02*
X184815169Y-185393328D01*
X184815169Y-185393328D02*
X184958026Y-185464757D01*
X184958026Y-185464757D02*
X185029455Y-185607614D01*
X185029455Y-185607614D02*
X185029455Y-186393328D01*
X185029455Y-185607614D02*
X185100883Y-185464757D01*
X185100883Y-185464757D02*
X185243740Y-185393328D01*
X185243740Y-185393328D02*
X185458026Y-185393328D01*
X185458026Y-185393328D02*
X185600883Y-185464757D01*
X185600883Y-185464757D02*
X185672312Y-185607614D01*
X185672312Y-185607614D02*
X185672312Y-186393328D01*
X186386597Y-186393328D02*
X186386597Y-185393328D01*
X186386597Y-184893328D02*
X186315169Y-184964757D01*
X186315169Y-184964757D02*
X186386597Y-185036185D01*
X186386597Y-185036185D02*
X186458026Y-184964757D01*
X186458026Y-184964757D02*
X186386597Y-184893328D01*
X186386597Y-184893328D02*
X186386597Y-185036185D01*
X187743741Y-186321900D02*
X187600883Y-186393328D01*
X187600883Y-186393328D02*
X187315169Y-186393328D01*
X187315169Y-186393328D02*
X187172312Y-186321900D01*
X187172312Y-186321900D02*
X187100883Y-186250471D01*
X187100883Y-186250471D02*
X187029455Y-186107614D01*
X187029455Y-186107614D02*
X187029455Y-185679042D01*
X187029455Y-185679042D02*
X187100883Y-185536185D01*
X187100883Y-185536185D02*
X187172312Y-185464757D01*
X187172312Y-185464757D02*
X187315169Y-185393328D01*
X187315169Y-185393328D02*
X187600883Y-185393328D01*
X187600883Y-185393328D02*
X187743741Y-185464757D01*
X188386597Y-186393328D02*
X188386597Y-185393328D01*
X188386597Y-185679042D02*
X188458026Y-185536185D01*
X188458026Y-185536185D02*
X188529455Y-185464757D01*
X188529455Y-185464757D02*
X188672312Y-185393328D01*
X188672312Y-185393328D02*
X188815169Y-185393328D01*
X189529454Y-186393328D02*
X189386597Y-186321900D01*
X189386597Y-186321900D02*
X189315168Y-186250471D01*
X189315168Y-186250471D02*
X189243740Y-186107614D01*
X189243740Y-186107614D02*
X189243740Y-185679042D01*
X189243740Y-185679042D02*
X189315168Y-185536185D01*
X189315168Y-185536185D02*
X189386597Y-185464757D01*
X189386597Y-185464757D02*
X189529454Y-185393328D01*
X189529454Y-185393328D02*
X189743740Y-185393328D01*
X189743740Y-185393328D02*
X189886597Y-185464757D01*
X189886597Y-185464757D02*
X189958026Y-185536185D01*
X189958026Y-185536185D02*
X190029454Y-185679042D01*
X190029454Y-185679042D02*
X190029454Y-186107614D01*
X190029454Y-186107614D02*
X189958026Y-186250471D01*
X189958026Y-186250471D02*
X189886597Y-186321900D01*
X189886597Y-186321900D02*
X189743740Y-186393328D01*
X189743740Y-186393328D02*
X189529454Y-186393328D01*
X191315169Y-186321900D02*
X191172311Y-186393328D01*
X191172311Y-186393328D02*
X190886597Y-186393328D01*
X190886597Y-186393328D02*
X190743740Y-186321900D01*
X190743740Y-186321900D02*
X190672311Y-186250471D01*
X190672311Y-186250471D02*
X190600883Y-186107614D01*
X190600883Y-186107614D02*
X190600883Y-185679042D01*
X190600883Y-185679042D02*
X190672311Y-185536185D01*
X190672311Y-185536185D02*
X190743740Y-185464757D01*
X190743740Y-185464757D02*
X190886597Y-185393328D01*
X190886597Y-185393328D02*
X191172311Y-185393328D01*
X191172311Y-185393328D02*
X191315169Y-185464757D01*
X192172311Y-186393328D02*
X192029454Y-186321900D01*
X192029454Y-186321900D02*
X191958025Y-186250471D01*
X191958025Y-186250471D02*
X191886597Y-186107614D01*
X191886597Y-186107614D02*
X191886597Y-185679042D01*
X191886597Y-185679042D02*
X191958025Y-185536185D01*
X191958025Y-185536185D02*
X192029454Y-185464757D01*
X192029454Y-185464757D02*
X192172311Y-185393328D01*
X192172311Y-185393328D02*
X192386597Y-185393328D01*
X192386597Y-185393328D02*
X192529454Y-185464757D01*
X192529454Y-185464757D02*
X192600883Y-185536185D01*
X192600883Y-185536185D02*
X192672311Y-185679042D01*
X192672311Y-185679042D02*
X192672311Y-186107614D01*
X192672311Y-186107614D02*
X192600883Y-186250471D01*
X192600883Y-186250471D02*
X192529454Y-186321900D01*
X192529454Y-186321900D02*
X192386597Y-186393328D01*
X192386597Y-186393328D02*
X192172311Y-186393328D01*
X193315168Y-185393328D02*
X193315168Y-186393328D01*
X193315168Y-185536185D02*
X193386597Y-185464757D01*
X193386597Y-185464757D02*
X193529454Y-185393328D01*
X193529454Y-185393328D02*
X193743740Y-185393328D01*
X193743740Y-185393328D02*
X193886597Y-185464757D01*
X193886597Y-185464757D02*
X193958026Y-185607614D01*
X193958026Y-185607614D02*
X193958026Y-186393328D01*
X194458026Y-185393328D02*
X195029454Y-185393328D01*
X194672311Y-184893328D02*
X194672311Y-186179042D01*
X194672311Y-186179042D02*
X194743740Y-186321900D01*
X194743740Y-186321900D02*
X194886597Y-186393328D01*
X194886597Y-186393328D02*
X195029454Y-186393328D01*
X195529454Y-186393328D02*
X195529454Y-185393328D01*
X195529454Y-185679042D02*
X195600883Y-185536185D01*
X195600883Y-185536185D02*
X195672312Y-185464757D01*
X195672312Y-185464757D02*
X195815169Y-185393328D01*
X195815169Y-185393328D02*
X195958026Y-185393328D01*
X196672311Y-186393328D02*
X196529454Y-186321900D01*
X196529454Y-186321900D02*
X196458025Y-186250471D01*
X196458025Y-186250471D02*
X196386597Y-186107614D01*
X196386597Y-186107614D02*
X196386597Y-185679042D01*
X196386597Y-185679042D02*
X196458025Y-185536185D01*
X196458025Y-185536185D02*
X196529454Y-185464757D01*
X196529454Y-185464757D02*
X196672311Y-185393328D01*
X196672311Y-185393328D02*
X196886597Y-185393328D01*
X196886597Y-185393328D02*
X197029454Y-185464757D01*
X197029454Y-185464757D02*
X197100883Y-185536185D01*
X197100883Y-185536185D02*
X197172311Y-185679042D01*
X197172311Y-185679042D02*
X197172311Y-186107614D01*
X197172311Y-186107614D02*
X197100883Y-186250471D01*
X197100883Y-186250471D02*
X197029454Y-186321900D01*
X197029454Y-186321900D02*
X196886597Y-186393328D01*
X196886597Y-186393328D02*
X196672311Y-186393328D01*
X198029454Y-186393328D02*
X197886597Y-186321900D01*
X197886597Y-186321900D02*
X197815168Y-186179042D01*
X197815168Y-186179042D02*
X197815168Y-184893328D01*
X198815168Y-186393328D02*
X198672311Y-186321900D01*
X198672311Y-186321900D02*
X198600882Y-186179042D01*
X198600882Y-186179042D02*
X198600882Y-184893328D01*
X199958025Y-186321900D02*
X199815168Y-186393328D01*
X199815168Y-186393328D02*
X199529454Y-186393328D01*
X199529454Y-186393328D02*
X199386596Y-186321900D01*
X199386596Y-186321900D02*
X199315168Y-186179042D01*
X199315168Y-186179042D02*
X199315168Y-185607614D01*
X199315168Y-185607614D02*
X199386596Y-185464757D01*
X199386596Y-185464757D02*
X199529454Y-185393328D01*
X199529454Y-185393328D02*
X199815168Y-185393328D01*
X199815168Y-185393328D02*
X199958025Y-185464757D01*
X199958025Y-185464757D02*
X200029454Y-185607614D01*
X200029454Y-185607614D02*
X200029454Y-185750471D01*
X200029454Y-185750471D02*
X199315168Y-185893328D01*
X200672310Y-186393328D02*
X200672310Y-185393328D01*
X200672310Y-185679042D02*
X200743739Y-185536185D01*
X200743739Y-185536185D02*
X200815168Y-185464757D01*
X200815168Y-185464757D02*
X200958025Y-185393328D01*
X200958025Y-185393328D02*
X201100882Y-185393328D01*
X201600881Y-186393328D02*
X201600881Y-185393328D01*
X201600881Y-184893328D02*
X201529453Y-184964757D01*
X201529453Y-184964757D02*
X201600881Y-185036185D01*
X201600881Y-185036185D02*
X201672310Y-184964757D01*
X201672310Y-184964757D02*
X201600881Y-184893328D01*
X201600881Y-184893328D02*
X201600881Y-185036185D01*
X202315167Y-185393328D02*
X202315167Y-186393328D01*
X202315167Y-185536185D02*
X202386596Y-185464757D01*
X202386596Y-185464757D02*
X202529453Y-185393328D01*
X202529453Y-185393328D02*
X202743739Y-185393328D01*
X202743739Y-185393328D02*
X202886596Y-185464757D01*
X202886596Y-185464757D02*
X202958025Y-185607614D01*
X202958025Y-185607614D02*
X202958025Y-186393328D01*
X204315168Y-186393328D02*
X204315168Y-185607614D01*
X204315168Y-185607614D02*
X204243739Y-185464757D01*
X204243739Y-185464757D02*
X204100882Y-185393328D01*
X204100882Y-185393328D02*
X203815168Y-185393328D01*
X203815168Y-185393328D02*
X203672310Y-185464757D01*
X204315168Y-186321900D02*
X204172310Y-186393328D01*
X204172310Y-186393328D02*
X203815168Y-186393328D01*
X203815168Y-186393328D02*
X203672310Y-186321900D01*
X203672310Y-186321900D02*
X203600882Y-186179042D01*
X203600882Y-186179042D02*
X203600882Y-186036185D01*
X203600882Y-186036185D02*
X203672310Y-185893328D01*
X203672310Y-185893328D02*
X203815168Y-185821900D01*
X203815168Y-185821900D02*
X204172310Y-185821900D01*
X204172310Y-185821900D02*
X204315168Y-185750471D01*
X204815168Y-185393328D02*
X205386596Y-185393328D01*
X205029453Y-184893328D02*
X205029453Y-186179042D01*
X205029453Y-186179042D02*
X205100882Y-186321900D01*
X205100882Y-186321900D02*
X205243739Y-186393328D01*
X205243739Y-186393328D02*
X205386596Y-186393328D01*
X206100882Y-186393328D02*
X205958025Y-186321900D01*
X205958025Y-186321900D02*
X205886596Y-186250471D01*
X205886596Y-186250471D02*
X205815168Y-186107614D01*
X205815168Y-186107614D02*
X205815168Y-185679042D01*
X205815168Y-185679042D02*
X205886596Y-185536185D01*
X205886596Y-185536185D02*
X205958025Y-185464757D01*
X205958025Y-185464757D02*
X206100882Y-185393328D01*
X206100882Y-185393328D02*
X206315168Y-185393328D01*
X206315168Y-185393328D02*
X206458025Y-185464757D01*
X206458025Y-185464757D02*
X206529454Y-185536185D01*
X206529454Y-185536185D02*
X206600882Y-185679042D01*
X206600882Y-185679042D02*
X206600882Y-186107614D01*
X206600882Y-186107614D02*
X206529454Y-186250471D01*
X206529454Y-186250471D02*
X206458025Y-186321900D01*
X206458025Y-186321900D02*
X206315168Y-186393328D01*
X206315168Y-186393328D02*
X206100882Y-186393328D01*
X207243739Y-186393328D02*
X207243739Y-185393328D01*
X207243739Y-185679042D02*
X207315168Y-185536185D01*
X207315168Y-185536185D02*
X207386597Y-185464757D01*
X207386597Y-185464757D02*
X207529454Y-185393328D01*
X207529454Y-185393328D02*
X207672311Y-185393328D01*
X208172310Y-186250471D02*
X208243739Y-186321900D01*
X208243739Y-186321900D02*
X208172310Y-186393328D01*
X208172310Y-186393328D02*
X208100882Y-186321900D01*
X208100882Y-186321900D02*
X208172310Y-186250471D01*
X208172310Y-186250471D02*
X208172310Y-186393328D01*
X208886596Y-186393328D02*
X208886596Y-184893328D01*
X209029454Y-185821900D02*
X209458025Y-186393328D01*
X209458025Y-185393328D02*
X208886596Y-185964757D01*
X210100882Y-186393328D02*
X210100882Y-185393328D01*
X210100882Y-184893328D02*
X210029454Y-184964757D01*
X210029454Y-184964757D02*
X210100882Y-185036185D01*
X210100882Y-185036185D02*
X210172311Y-184964757D01*
X210172311Y-184964757D02*
X210100882Y-184893328D01*
X210100882Y-184893328D02*
X210100882Y-185036185D01*
X211458026Y-186321900D02*
X211315168Y-186393328D01*
X211315168Y-186393328D02*
X211029454Y-186393328D01*
X211029454Y-186393328D02*
X210886597Y-186321900D01*
X210886597Y-186321900D02*
X210815168Y-186250471D01*
X210815168Y-186250471D02*
X210743740Y-186107614D01*
X210743740Y-186107614D02*
X210743740Y-185679042D01*
X210743740Y-185679042D02*
X210815168Y-185536185D01*
X210815168Y-185536185D02*
X210886597Y-185464757D01*
X210886597Y-185464757D02*
X211029454Y-185393328D01*
X211029454Y-185393328D02*
X211315168Y-185393328D01*
X211315168Y-185393328D02*
X211458026Y-185464757D01*
X212743740Y-186393328D02*
X212743740Y-185607614D01*
X212743740Y-185607614D02*
X212672311Y-185464757D01*
X212672311Y-185464757D02*
X212529454Y-185393328D01*
X212529454Y-185393328D02*
X212243740Y-185393328D01*
X212243740Y-185393328D02*
X212100882Y-185464757D01*
X212743740Y-186321900D02*
X212600882Y-186393328D01*
X212600882Y-186393328D02*
X212243740Y-186393328D01*
X212243740Y-186393328D02*
X212100882Y-186321900D01*
X212100882Y-186321900D02*
X212029454Y-186179042D01*
X212029454Y-186179042D02*
X212029454Y-186036185D01*
X212029454Y-186036185D02*
X212100882Y-185893328D01*
X212100882Y-185893328D02*
X212243740Y-185821900D01*
X212243740Y-185821900D02*
X212600882Y-185821900D01*
X212600882Y-185821900D02*
X212743740Y-185750471D01*
X214100883Y-186393328D02*
X214100883Y-184893328D01*
X214100883Y-186321900D02*
X213958025Y-186393328D01*
X213958025Y-186393328D02*
X213672311Y-186393328D01*
X213672311Y-186393328D02*
X213529454Y-186321900D01*
X213529454Y-186321900D02*
X213458025Y-186250471D01*
X213458025Y-186250471D02*
X213386597Y-186107614D01*
X213386597Y-186107614D02*
X213386597Y-185679042D01*
X213386597Y-185679042D02*
X213458025Y-185536185D01*
X213458025Y-185536185D02*
X213529454Y-185464757D01*
X213529454Y-185464757D02*
X213672311Y-185393328D01*
X213672311Y-185393328D02*
X213958025Y-185393328D01*
X213958025Y-185393328D02*
X214100883Y-185464757D01*
X214458026Y-186536185D02*
X215600883Y-186536185D01*
X215958025Y-185393328D02*
X215958025Y-186893328D01*
X215958025Y-185464757D02*
X216100883Y-185393328D01*
X216100883Y-185393328D02*
X216386597Y-185393328D01*
X216386597Y-185393328D02*
X216529454Y-185464757D01*
X216529454Y-185464757D02*
X216600883Y-185536185D01*
X216600883Y-185536185D02*
X216672311Y-185679042D01*
X216672311Y-185679042D02*
X216672311Y-186107614D01*
X216672311Y-186107614D02*
X216600883Y-186250471D01*
X216600883Y-186250471D02*
X216529454Y-186321900D01*
X216529454Y-186321900D02*
X216386597Y-186393328D01*
X216386597Y-186393328D02*
X216100883Y-186393328D01*
X216100883Y-186393328D02*
X215958025Y-186321900D01*
X217958026Y-186321900D02*
X217815168Y-186393328D01*
X217815168Y-186393328D02*
X217529454Y-186393328D01*
X217529454Y-186393328D02*
X217386597Y-186321900D01*
X217386597Y-186321900D02*
X217315168Y-186250471D01*
X217315168Y-186250471D02*
X217243740Y-186107614D01*
X217243740Y-186107614D02*
X217243740Y-185679042D01*
X217243740Y-185679042D02*
X217315168Y-185536185D01*
X217315168Y-185536185D02*
X217386597Y-185464757D01*
X217386597Y-185464757D02*
X217529454Y-185393328D01*
X217529454Y-185393328D02*
X217815168Y-185393328D01*
X217815168Y-185393328D02*
X217958026Y-185464757D01*
X218600882Y-186393328D02*
X218600882Y-184893328D01*
X218600882Y-185464757D02*
X218743740Y-185393328D01*
X218743740Y-185393328D02*
X219029454Y-185393328D01*
X219029454Y-185393328D02*
X219172311Y-185464757D01*
X219172311Y-185464757D02*
X219243740Y-185536185D01*
X219243740Y-185536185D02*
X219315168Y-185679042D01*
X219315168Y-185679042D02*
X219315168Y-186107614D01*
X219315168Y-186107614D02*
X219243740Y-186250471D01*
X219243740Y-186250471D02*
X219172311Y-186321900D01*
X219172311Y-186321900D02*
X219029454Y-186393328D01*
X219029454Y-186393328D02*
X218743740Y-186393328D01*
X218743740Y-186393328D02*
X218600882Y-186321900D01*
D10*
D11*
X177002200Y-181507200D02*
X285002200Y-181507200D01*
D10*
D11*
X178386598Y-183621900D02*
X178600884Y-183693328D01*
X178600884Y-183693328D02*
X178958026Y-183693328D01*
X178958026Y-183693328D02*
X179100884Y-183621900D01*
X179100884Y-183621900D02*
X179172312Y-183550471D01*
X179172312Y-183550471D02*
X179243741Y-183407614D01*
X179243741Y-183407614D02*
X179243741Y-183264757D01*
X179243741Y-183264757D02*
X179172312Y-183121900D01*
X179172312Y-183121900D02*
X179100884Y-183050471D01*
X179100884Y-183050471D02*
X178958026Y-182979042D01*
X178958026Y-182979042D02*
X178672312Y-182907614D01*
X178672312Y-182907614D02*
X178529455Y-182836185D01*
X178529455Y-182836185D02*
X178458026Y-182764757D01*
X178458026Y-182764757D02*
X178386598Y-182621900D01*
X178386598Y-182621900D02*
X178386598Y-182479042D01*
X178386598Y-182479042D02*
X178458026Y-182336185D01*
X178458026Y-182336185D02*
X178529455Y-182264757D01*
X178529455Y-182264757D02*
X178672312Y-182193328D01*
X178672312Y-182193328D02*
X179029455Y-182193328D01*
X179029455Y-182193328D02*
X179243741Y-182264757D01*
X179886597Y-183693328D02*
X179886597Y-182193328D01*
X180529455Y-183693328D02*
X180529455Y-182907614D01*
X180529455Y-182907614D02*
X180458026Y-182764757D01*
X180458026Y-182764757D02*
X180315169Y-182693328D01*
X180315169Y-182693328D02*
X180100883Y-182693328D01*
X180100883Y-182693328D02*
X179958026Y-182764757D01*
X179958026Y-182764757D02*
X179886597Y-182836185D01*
X181815169Y-183621900D02*
X181672312Y-183693328D01*
X181672312Y-183693328D02*
X181386598Y-183693328D01*
X181386598Y-183693328D02*
X181243740Y-183621900D01*
X181243740Y-183621900D02*
X181172312Y-183479042D01*
X181172312Y-183479042D02*
X181172312Y-182907614D01*
X181172312Y-182907614D02*
X181243740Y-182764757D01*
X181243740Y-182764757D02*
X181386598Y-182693328D01*
X181386598Y-182693328D02*
X181672312Y-182693328D01*
X181672312Y-182693328D02*
X181815169Y-182764757D01*
X181815169Y-182764757D02*
X181886598Y-182907614D01*
X181886598Y-182907614D02*
X181886598Y-183050471D01*
X181886598Y-183050471D02*
X181172312Y-183193328D01*
X183100883Y-183621900D02*
X182958026Y-183693328D01*
X182958026Y-183693328D02*
X182672312Y-183693328D01*
X182672312Y-183693328D02*
X182529454Y-183621900D01*
X182529454Y-183621900D02*
X182458026Y-183479042D01*
X182458026Y-183479042D02*
X182458026Y-182907614D01*
X182458026Y-182907614D02*
X182529454Y-182764757D01*
X182529454Y-182764757D02*
X182672312Y-182693328D01*
X182672312Y-182693328D02*
X182958026Y-182693328D01*
X182958026Y-182693328D02*
X183100883Y-182764757D01*
X183100883Y-182764757D02*
X183172312Y-182907614D01*
X183172312Y-182907614D02*
X183172312Y-183050471D01*
X183172312Y-183050471D02*
X182458026Y-183193328D01*
X183600883Y-182693328D02*
X184172311Y-182693328D01*
X183815168Y-182193328D02*
X183815168Y-183479042D01*
X183815168Y-183479042D02*
X183886597Y-183621900D01*
X183886597Y-183621900D02*
X184029454Y-183693328D01*
X184029454Y-183693328D02*
X184172311Y-183693328D01*
X184672311Y-183550471D02*
X184743740Y-183621900D01*
X184743740Y-183621900D02*
X184672311Y-183693328D01*
X184672311Y-183693328D02*
X184600883Y-183621900D01*
X184600883Y-183621900D02*
X184672311Y-183550471D01*
X184672311Y-183550471D02*
X184672311Y-183693328D01*
X184672311Y-182764757D02*
X184743740Y-182836185D01*
X184743740Y-182836185D02*
X184672311Y-182907614D01*
X184672311Y-182907614D02*
X184600883Y-182836185D01*
X184600883Y-182836185D02*
X184672311Y-182764757D01*
X184672311Y-182764757D02*
X184672311Y-182907614D01*
D10*
D11*
X197002200Y-191507200D02*
X197002200Y-194507200D01*
D10*
D11*
X261002200Y-191507200D02*
X261002200Y-198007200D01*
X135055826Y-95825247D02*
X135170112Y-95863342D01*
X135170112Y-95863342D02*
X135208207Y-95901438D01*
X135208207Y-95901438D02*
X135246303Y-95977628D01*
X135246303Y-95977628D02*
X135246303Y-96091914D01*
X135246303Y-96091914D02*
X135208207Y-96168104D01*
X135208207Y-96168104D02*
X135170112Y-96206200D01*
X135170112Y-96206200D02*
X135093922Y-96244295D01*
X135093922Y-96244295D02*
X134789160Y-96244295D01*
X134789160Y-96244295D02*
X134789160Y-95444295D01*
X134789160Y-95444295D02*
X135055826Y-95444295D01*
X135055826Y-95444295D02*
X135132017Y-95482390D01*
X135132017Y-95482390D02*
X135170112Y-95520485D01*
X135170112Y-95520485D02*
X135208207Y-95596676D01*
X135208207Y-95596676D02*
X135208207Y-95672866D01*
X135208207Y-95672866D02*
X135170112Y-95749057D01*
X135170112Y-95749057D02*
X135132017Y-95787152D01*
X135132017Y-95787152D02*
X135055826Y-95825247D01*
X135055826Y-95825247D02*
X134789160Y-95825247D01*
X135741541Y-95444295D02*
X135893922Y-95444295D01*
X135893922Y-95444295D02*
X135970112Y-95482390D01*
X135970112Y-95482390D02*
X136046303Y-95558580D01*
X136046303Y-95558580D02*
X136084398Y-95710961D01*
X136084398Y-95710961D02*
X136084398Y-95977628D01*
X136084398Y-95977628D02*
X136046303Y-96130009D01*
X136046303Y-96130009D02*
X135970112Y-96206200D01*
X135970112Y-96206200D02*
X135893922Y-96244295D01*
X135893922Y-96244295D02*
X135741541Y-96244295D01*
X135741541Y-96244295D02*
X135665350Y-96206200D01*
X135665350Y-96206200D02*
X135589160Y-96130009D01*
X135589160Y-96130009D02*
X135551064Y-95977628D01*
X135551064Y-95977628D02*
X135551064Y-95710961D01*
X135551064Y-95710961D02*
X135589160Y-95558580D01*
X135589160Y-95558580D02*
X135665350Y-95482390D01*
X135665350Y-95482390D02*
X135741541Y-95444295D01*
X136579636Y-95444295D02*
X136732017Y-95444295D01*
X136732017Y-95444295D02*
X136808207Y-95482390D01*
X136808207Y-95482390D02*
X136884398Y-95558580D01*
X136884398Y-95558580D02*
X136922493Y-95710961D01*
X136922493Y-95710961D02*
X136922493Y-95977628D01*
X136922493Y-95977628D02*
X136884398Y-96130009D01*
X136884398Y-96130009D02*
X136808207Y-96206200D01*
X136808207Y-96206200D02*
X136732017Y-96244295D01*
X136732017Y-96244295D02*
X136579636Y-96244295D01*
X136579636Y-96244295D02*
X136503445Y-96206200D01*
X136503445Y-96206200D02*
X136427255Y-96130009D01*
X136427255Y-96130009D02*
X136389159Y-95977628D01*
X136389159Y-95977628D02*
X136389159Y-95710961D01*
X136389159Y-95710961D02*
X136427255Y-95558580D01*
X136427255Y-95558580D02*
X136503445Y-95482390D01*
X136503445Y-95482390D02*
X136579636Y-95444295D01*
X137151064Y-95444295D02*
X137608207Y-95444295D01*
X137379635Y-96244295D02*
X137379635Y-95444295D01*
D10*
X145878884Y-94241466D02*
X146640789Y-94241466D01*
X146259836Y-94622419D02*
X146259836Y-93860514D01*
D14*
X148456028Y-104386279D02*
X146956028Y-104386279D01*
X146956028Y-104386279D02*
X148027457Y-103886279D01*
X148027457Y-103886279D02*
X146956028Y-103386279D01*
X146956028Y-103386279D02*
X148456028Y-103386279D01*
X148456028Y-102671993D02*
X147456028Y-102671993D01*
X146956028Y-102671993D02*
X147027457Y-102743421D01*
X147027457Y-102743421D02*
X147098885Y-102671993D01*
X147098885Y-102671993D02*
X147027457Y-102600564D01*
X147027457Y-102600564D02*
X146956028Y-102671993D01*
X146956028Y-102671993D02*
X147098885Y-102671993D01*
X148384600Y-101314850D02*
X148456028Y-101457707D01*
X148456028Y-101457707D02*
X148456028Y-101743421D01*
X148456028Y-101743421D02*
X148384600Y-101886278D01*
X148384600Y-101886278D02*
X148313171Y-101957707D01*
X148313171Y-101957707D02*
X148170314Y-102029135D01*
X148170314Y-102029135D02*
X147741742Y-102029135D01*
X147741742Y-102029135D02*
X147598885Y-101957707D01*
X147598885Y-101957707D02*
X147527457Y-101886278D01*
X147527457Y-101886278D02*
X147456028Y-101743421D01*
X147456028Y-101743421D02*
X147456028Y-101457707D01*
X147456028Y-101457707D02*
X147527457Y-101314850D01*
X148456028Y-100671993D02*
X147456028Y-100671993D01*
X147741742Y-100671993D02*
X147598885Y-100600564D01*
X147598885Y-100600564D02*
X147527457Y-100529136D01*
X147527457Y-100529136D02*
X147456028Y-100386278D01*
X147456028Y-100386278D02*
X147456028Y-100243421D01*
X148456028Y-99529136D02*
X148384600Y-99671993D01*
X148384600Y-99671993D02*
X148313171Y-99743422D01*
X148313171Y-99743422D02*
X148170314Y-99814850D01*
X148170314Y-99814850D02*
X147741742Y-99814850D01*
X147741742Y-99814850D02*
X147598885Y-99743422D01*
X147598885Y-99743422D02*
X147527457Y-99671993D01*
X147527457Y-99671993D02*
X147456028Y-99529136D01*
X147456028Y-99529136D02*
X147456028Y-99314850D01*
X147456028Y-99314850D02*
X147527457Y-99171993D01*
X147527457Y-99171993D02*
X147598885Y-99100565D01*
X147598885Y-99100565D02*
X147741742Y-99029136D01*
X147741742Y-99029136D02*
X148170314Y-99029136D01*
X148170314Y-99029136D02*
X148313171Y-99100565D01*
X148313171Y-99100565D02*
X148384600Y-99171993D01*
X148384600Y-99171993D02*
X148456028Y-99314850D01*
X148456028Y-99314850D02*
X148456028Y-99529136D01*
X148384600Y-97743422D02*
X148456028Y-97886279D01*
X148456028Y-97886279D02*
X148456028Y-98171993D01*
X148456028Y-98171993D02*
X148384600Y-98314850D01*
X148384600Y-98314850D02*
X148313171Y-98386279D01*
X148313171Y-98386279D02*
X148170314Y-98457707D01*
X148170314Y-98457707D02*
X147741742Y-98457707D01*
X147741742Y-98457707D02*
X147598885Y-98386279D01*
X147598885Y-98386279D02*
X147527457Y-98314850D01*
X147527457Y-98314850D02*
X147456028Y-98171993D01*
X147456028Y-98171993D02*
X147456028Y-97886279D01*
X147456028Y-97886279D02*
X147527457Y-97743422D01*
X148456028Y-96886279D02*
X148384600Y-97029136D01*
X148384600Y-97029136D02*
X148313171Y-97100565D01*
X148313171Y-97100565D02*
X148170314Y-97171993D01*
X148170314Y-97171993D02*
X147741742Y-97171993D01*
X147741742Y-97171993D02*
X147598885Y-97100565D01*
X147598885Y-97100565D02*
X147527457Y-97029136D01*
X147527457Y-97029136D02*
X147456028Y-96886279D01*
X147456028Y-96886279D02*
X147456028Y-96671993D01*
X147456028Y-96671993D02*
X147527457Y-96529136D01*
X147527457Y-96529136D02*
X147598885Y-96457708D01*
X147598885Y-96457708D02*
X147741742Y-96386279D01*
X147741742Y-96386279D02*
X148170314Y-96386279D01*
X148170314Y-96386279D02*
X148313171Y-96457708D01*
X148313171Y-96457708D02*
X148384600Y-96529136D01*
X148384600Y-96529136D02*
X148456028Y-96671993D01*
X148456028Y-96671993D02*
X148456028Y-96886279D01*
X147456028Y-95743422D02*
X148456028Y-95743422D01*
X147598885Y-95743422D02*
X147527457Y-95671993D01*
X147527457Y-95671993D02*
X147456028Y-95529136D01*
X147456028Y-95529136D02*
X147456028Y-95314850D01*
X147456028Y-95314850D02*
X147527457Y-95171993D01*
X147527457Y-95171993D02*
X147670314Y-95100565D01*
X147670314Y-95100565D02*
X148456028Y-95100565D01*
X147456028Y-94600564D02*
X147456028Y-94029136D01*
X146956028Y-94386279D02*
X148241742Y-94386279D01*
X148241742Y-94386279D02*
X148384600Y-94314850D01*
X148384600Y-94314850D02*
X148456028Y-94171993D01*
X148456028Y-94171993D02*
X148456028Y-94029136D01*
X148456028Y-93529136D02*
X147456028Y-93529136D01*
X147741742Y-93529136D02*
X147598885Y-93457707D01*
X147598885Y-93457707D02*
X147527457Y-93386279D01*
X147527457Y-93386279D02*
X147456028Y-93243421D01*
X147456028Y-93243421D02*
X147456028Y-93100564D01*
X148456028Y-92386279D02*
X148384600Y-92529136D01*
X148384600Y-92529136D02*
X148313171Y-92600565D01*
X148313171Y-92600565D02*
X148170314Y-92671993D01*
X148170314Y-92671993D02*
X147741742Y-92671993D01*
X147741742Y-92671993D02*
X147598885Y-92600565D01*
X147598885Y-92600565D02*
X147527457Y-92529136D01*
X147527457Y-92529136D02*
X147456028Y-92386279D01*
X147456028Y-92386279D02*
X147456028Y-92171993D01*
X147456028Y-92171993D02*
X147527457Y-92029136D01*
X147527457Y-92029136D02*
X147598885Y-91957708D01*
X147598885Y-91957708D02*
X147741742Y-91886279D01*
X147741742Y-91886279D02*
X148170314Y-91886279D01*
X148170314Y-91886279D02*
X148313171Y-91957708D01*
X148313171Y-91957708D02*
X148384600Y-92029136D01*
X148384600Y-92029136D02*
X148456028Y-92171993D01*
X148456028Y-92171993D02*
X148456028Y-92386279D01*
X148456028Y-91029136D02*
X148384600Y-91171993D01*
X148384600Y-91171993D02*
X148241742Y-91243422D01*
X148241742Y-91243422D02*
X146956028Y-91243422D01*
X148456028Y-90243422D02*
X148384600Y-90386279D01*
X148384600Y-90386279D02*
X148241742Y-90457708D01*
X148241742Y-90457708D02*
X146956028Y-90457708D01*
X148384600Y-89100565D02*
X148456028Y-89243422D01*
X148456028Y-89243422D02*
X148456028Y-89529137D01*
X148456028Y-89529137D02*
X148384600Y-89671994D01*
X148384600Y-89671994D02*
X148241742Y-89743422D01*
X148241742Y-89743422D02*
X147670314Y-89743422D01*
X147670314Y-89743422D02*
X147527457Y-89671994D01*
X147527457Y-89671994D02*
X147456028Y-89529137D01*
X147456028Y-89529137D02*
X147456028Y-89243422D01*
X147456028Y-89243422D02*
X147527457Y-89100565D01*
X147527457Y-89100565D02*
X147670314Y-89029137D01*
X147670314Y-89029137D02*
X147813171Y-89029137D01*
X147813171Y-89029137D02*
X147956028Y-89743422D01*
X148456028Y-88386280D02*
X147456028Y-88386280D01*
X147741742Y-88386280D02*
X147598885Y-88314851D01*
X147598885Y-88314851D02*
X147527457Y-88243423D01*
X147527457Y-88243423D02*
X147456028Y-88100565D01*
X147456028Y-88100565D02*
X147456028Y-87957708D01*
X148456028Y-87457709D02*
X147456028Y-87457709D01*
X146956028Y-87457709D02*
X147027457Y-87529137D01*
X147027457Y-87529137D02*
X147098885Y-87457709D01*
X147098885Y-87457709D02*
X147027457Y-87386280D01*
X147027457Y-87386280D02*
X146956028Y-87457709D01*
X146956028Y-87457709D02*
X147098885Y-87457709D01*
X147456028Y-86743423D02*
X148456028Y-86743423D01*
X147598885Y-86743423D02*
X147527457Y-86671994D01*
X147527457Y-86671994D02*
X147456028Y-86529137D01*
X147456028Y-86529137D02*
X147456028Y-86314851D01*
X147456028Y-86314851D02*
X147527457Y-86171994D01*
X147527457Y-86171994D02*
X147670314Y-86100566D01*
X147670314Y-86100566D02*
X148456028Y-86100566D01*
X148456028Y-84743423D02*
X147670314Y-84743423D01*
X147670314Y-84743423D02*
X147527457Y-84814851D01*
X147527457Y-84814851D02*
X147456028Y-84957708D01*
X147456028Y-84957708D02*
X147456028Y-85243423D01*
X147456028Y-85243423D02*
X147527457Y-85386280D01*
X148384600Y-84743423D02*
X148456028Y-84886280D01*
X148456028Y-84886280D02*
X148456028Y-85243423D01*
X148456028Y-85243423D02*
X148384600Y-85386280D01*
X148384600Y-85386280D02*
X148241742Y-85457708D01*
X148241742Y-85457708D02*
X148098885Y-85457708D01*
X148098885Y-85457708D02*
X147956028Y-85386280D01*
X147956028Y-85386280D02*
X147884600Y-85243423D01*
X147884600Y-85243423D02*
X147884600Y-84886280D01*
X147884600Y-84886280D02*
X147813171Y-84743423D01*
X147456028Y-84243422D02*
X147456028Y-83671994D01*
X146956028Y-84029137D02*
X148241742Y-84029137D01*
X148241742Y-84029137D02*
X148384600Y-83957708D01*
X148384600Y-83957708D02*
X148456028Y-83814851D01*
X148456028Y-83814851D02*
X148456028Y-83671994D01*
X148456028Y-82957708D02*
X148384600Y-83100565D01*
X148384600Y-83100565D02*
X148313171Y-83171994D01*
X148313171Y-83171994D02*
X148170314Y-83243422D01*
X148170314Y-83243422D02*
X147741742Y-83243422D01*
X147741742Y-83243422D02*
X147598885Y-83171994D01*
X147598885Y-83171994D02*
X147527457Y-83100565D01*
X147527457Y-83100565D02*
X147456028Y-82957708D01*
X147456028Y-82957708D02*
X147456028Y-82743422D01*
X147456028Y-82743422D02*
X147527457Y-82600565D01*
X147527457Y-82600565D02*
X147598885Y-82529137D01*
X147598885Y-82529137D02*
X147741742Y-82457708D01*
X147741742Y-82457708D02*
X148170314Y-82457708D01*
X148170314Y-82457708D02*
X148313171Y-82529137D01*
X148313171Y-82529137D02*
X148384600Y-82600565D01*
X148384600Y-82600565D02*
X148456028Y-82743422D01*
X148456028Y-82743422D02*
X148456028Y-82957708D01*
X148456028Y-81814851D02*
X147456028Y-81814851D01*
X147741742Y-81814851D02*
X147598885Y-81743422D01*
X147598885Y-81743422D02*
X147527457Y-81671994D01*
X147527457Y-81671994D02*
X147456028Y-81529136D01*
X147456028Y-81529136D02*
X147456028Y-81386279D01*
D10*
X136528884Y-94216466D02*
X137290789Y-94216466D01*
D11*
X140673809Y-120778628D02*
X140673809Y-121254819D01*
X140340476Y-120254819D02*
X140673809Y-120778628D01*
X140673809Y-120778628D02*
X141007142Y-120254819D01*
X141864285Y-121254819D02*
X141292857Y-121254819D01*
X141578571Y-121254819D02*
X141578571Y-120254819D01*
X141578571Y-120254819D02*
X141483333Y-120397676D01*
X141483333Y-120397676D02*
X141388095Y-120492914D01*
X141388095Y-120492914D02*
X141292857Y-120540533D01*
X134613095Y-87479819D02*
X134613095Y-88289342D01*
X134613095Y-88289342D02*
X134660714Y-88384580D01*
X134660714Y-88384580D02*
X134708333Y-88432200D01*
X134708333Y-88432200D02*
X134803571Y-88479819D01*
X134803571Y-88479819D02*
X134994047Y-88479819D01*
X134994047Y-88479819D02*
X135089285Y-88432200D01*
X135089285Y-88432200D02*
X135136904Y-88384580D01*
X135136904Y-88384580D02*
X135184523Y-88289342D01*
X135184523Y-88289342D02*
X135184523Y-87479819D01*
X135613095Y-87575057D02*
X135660714Y-87527438D01*
X135660714Y-87527438D02*
X135755952Y-87479819D01*
X135755952Y-87479819D02*
X135994047Y-87479819D01*
X135994047Y-87479819D02*
X136089285Y-87527438D01*
X136089285Y-87527438D02*
X136136904Y-87575057D01*
X136136904Y-87575057D02*
X136184523Y-87670295D01*
X136184523Y-87670295D02*
X136184523Y-87765533D01*
X136184523Y-87765533D02*
X136136904Y-87908390D01*
X136136904Y-87908390D02*
X135565476Y-88479819D01*
X135565476Y-88479819D02*
X136184523Y-88479819D01*
X137188095Y-104954819D02*
X137188095Y-105764342D01*
X137188095Y-105764342D02*
X137235714Y-105859580D01*
X137235714Y-105859580D02*
X137283333Y-105907200D01*
X137283333Y-105907200D02*
X137378571Y-105954819D01*
X137378571Y-105954819D02*
X137569047Y-105954819D01*
X137569047Y-105954819D02*
X137664285Y-105907200D01*
X137664285Y-105907200D02*
X137711904Y-105859580D01*
X137711904Y-105859580D02*
X137759523Y-105764342D01*
X137759523Y-105764342D02*
X137759523Y-104954819D01*
X138140476Y-104954819D02*
X138759523Y-104954819D01*
X138759523Y-104954819D02*
X138426190Y-105335771D01*
X138426190Y-105335771D02*
X138569047Y-105335771D01*
X138569047Y-105335771D02*
X138664285Y-105383390D01*
X138664285Y-105383390D02*
X138711904Y-105431009D01*
X138711904Y-105431009D02*
X138759523Y-105526247D01*
X138759523Y-105526247D02*
X138759523Y-105764342D01*
X138759523Y-105764342D02*
X138711904Y-105859580D01*
X138711904Y-105859580D02*
X138664285Y-105907200D01*
X138664285Y-105907200D02*
X138569047Y-105954819D01*
X138569047Y-105954819D02*
X138283333Y-105954819D01*
X138283333Y-105954819D02*
X138188095Y-105907200D01*
X138188095Y-105907200D02*
X138140476Y-105859580D01*
X138288095Y-91704819D02*
X138288095Y-92514342D01*
X138288095Y-92514342D02*
X138335714Y-92609580D01*
X138335714Y-92609580D02*
X138383333Y-92657200D01*
X138383333Y-92657200D02*
X138478571Y-92704819D01*
X138478571Y-92704819D02*
X138669047Y-92704819D01*
X138669047Y-92704819D02*
X138764285Y-92657200D01*
X138764285Y-92657200D02*
X138811904Y-92609580D01*
X138811904Y-92609580D02*
X138859523Y-92514342D01*
X138859523Y-92514342D02*
X138859523Y-91704819D01*
X139764285Y-92038152D02*
X139764285Y-92704819D01*
X139526190Y-91657200D02*
X139288095Y-92371485D01*
X139288095Y-92371485D02*
X139907142Y-92371485D01*
X139788095Y-104954819D02*
X139788095Y-105764342D01*
X139788095Y-105764342D02*
X139835714Y-105859580D01*
X139835714Y-105859580D02*
X139883333Y-105907200D01*
X139883333Y-105907200D02*
X139978571Y-105954819D01*
X139978571Y-105954819D02*
X140169047Y-105954819D01*
X140169047Y-105954819D02*
X140264285Y-105907200D01*
X140264285Y-105907200D02*
X140311904Y-105859580D01*
X140311904Y-105859580D02*
X140359523Y-105764342D01*
X140359523Y-105764342D02*
X140359523Y-104954819D01*
X141359523Y-105954819D02*
X140788095Y-105954819D01*
X141073809Y-105954819D02*
X141073809Y-104954819D01*
X141073809Y-104954819D02*
X140978571Y-105097676D01*
X140978571Y-105097676D02*
X140883333Y-105192914D01*
X140883333Y-105192914D02*
X140788095Y-105240533D01*
D15*
%TO.C,Y1*%
X143210000Y-116640000D02*
X139090000Y-116640000D01*
X143210000Y-120060000D02*
X143210000Y-116640000D01*
%TO.C,SW1*%
X136430000Y-97180000D02*
X136730000Y-97180000D01*
X136430000Y-101320000D02*
X136430000Y-97180000D01*
X136730000Y-101320000D02*
X136430000Y-101320000D01*
X139270000Y-97180000D02*
X139570000Y-97180000D01*
X139570000Y-97180000D02*
X139570000Y-101320000D01*
X139570000Y-101320000D02*
X139270000Y-101320000D01*
%TO.C,C16*%
X143390000Y-118412164D02*
X143390000Y-118627836D01*
X144110000Y-118412164D02*
X144110000Y-118627836D01*
%TO.C,C5*%
X144840000Y-105007836D02*
X144840000Y-104792164D01*
X145560000Y-105007836D02*
X145560000Y-104792164D01*
%TO.C,C3*%
X142708601Y-101032282D02*
X142861104Y-100879779D01*
X143217718Y-101541399D02*
X143370221Y-101388896D01*
%TO.C,J4*%
X137580000Y-125770000D02*
X137580000Y-124390000D01*
X138960000Y-125770000D02*
X137580000Y-125770000D01*
X140230000Y-123010000D02*
X145420000Y-123010000D01*
X140230000Y-125770000D02*
X140230000Y-123010000D01*
X140230000Y-125770000D02*
X145420000Y-125770000D01*
X145420000Y-125770000D02*
X145420000Y-123010000D01*
%TO.C,C4*%
X146019190Y-105671693D02*
X146171693Y-105519190D01*
X146528307Y-106180810D02*
X146680810Y-106028307D01*
%TO.C,C8*%
X143490000Y-116422164D02*
X143490000Y-116637836D01*
X144210000Y-116422164D02*
X144210000Y-116637836D01*
%TO.C,R6*%
X135270000Y-100981359D02*
X135270000Y-101288641D01*
X136030000Y-100981359D02*
X136030000Y-101288641D01*
%TO.C,R11*%
X144470000Y-97386359D02*
X144470000Y-97693641D01*
X145230000Y-97386359D02*
X145230000Y-97693641D01*
%TO.C,R2*%
X135245000Y-77018641D02*
X135245000Y-76711359D01*
X136005000Y-77018641D02*
X136005000Y-76711359D01*
%TO.C,C2*%
X143358601Y-101682282D02*
X143511104Y-101529779D01*
X143867718Y-102191399D02*
X144020221Y-102038896D01*
%TO.C,U2*%
X136440000Y-87442500D02*
X137440000Y-87442500D01*
X136440000Y-88962500D02*
X136440000Y-87442500D01*
X136490000Y-88962500D02*
X136440000Y-88962500D01*
X138390000Y-88962500D02*
X137610000Y-88962500D01*
X138560000Y-87442500D02*
X139560000Y-87442500D01*
X139560000Y-87442500D02*
X139560000Y-88962500D01*
X139560000Y-88962500D02*
X139510000Y-88962500D01*
X137950000Y-89742500D02*
X137620000Y-89502500D01*
X137950000Y-89262500D01*
X137950000Y-89742500D01*
G36*
X137950000Y-89742500D02*
G01*
X137620000Y-89502500D01*
X137950000Y-89262500D01*
X137950000Y-89742500D01*
G37*
%TO.C,R1*%
X146970000Y-76993641D02*
X146970000Y-76686359D01*
X147730000Y-76993641D02*
X147730000Y-76686359D01*
%TO.C,C11*%
X140840000Y-102887836D02*
X140840000Y-102672164D01*
X141560000Y-102887836D02*
X141560000Y-102672164D01*
%TO.C,C14*%
X138165580Y-90505000D02*
X137884420Y-90505000D01*
X138165580Y-91525000D02*
X137884420Y-91525000D01*
%TO.C,C10*%
X144490000Y-116412164D02*
X144490000Y-116627836D01*
X145210000Y-116412164D02*
X145210000Y-116627836D01*
%TO.C,J1*%
X136800000Y-75500000D02*
X136800000Y-73600000D01*
X136800000Y-79400000D02*
X136800000Y-77400000D01*
X146200000Y-73600000D02*
X136800000Y-73600000D01*
X146200000Y-75500000D02*
X146200000Y-73600000D01*
X146200000Y-79400000D02*
X146200000Y-77400000D01*
%TO.C,U3*%
X136889432Y-102365000D02*
X139685000Y-102365000D01*
X139685000Y-104635000D02*
X136465000Y-104635000D01*
X136595000Y-102360000D02*
X136455000Y-102170000D01*
X136735000Y-102170000D01*
X136595000Y-102360000D01*
G36*
X136595000Y-102360000D02*
G01*
X136455000Y-102170000D01*
X136735000Y-102170000D01*
X136595000Y-102360000D01*
G37*
%TO.C,D2*%
X143265000Y-89912500D02*
X143265000Y-92197500D01*
X143265000Y-92197500D02*
X144735000Y-92197500D01*
X144735000Y-92197500D02*
X144735000Y-89912500D01*
%TO.C,C9*%
X135437836Y-111140000D02*
X135222164Y-111140000D01*
X135437836Y-111860000D02*
X135222164Y-111860000D01*
%TO.C,U4*%
X139940000Y-89090000D02*
X139990000Y-89090000D01*
X139940000Y-90910000D02*
X139940000Y-89090000D01*
X139990000Y-90910000D02*
X139940000Y-90910000D01*
X143010000Y-89090000D02*
X143060000Y-89090000D01*
X143060000Y-89090000D02*
X143060000Y-90910000D01*
X143060000Y-90910000D02*
X143010000Y-90910000D01*
X139990000Y-91450000D02*
X139660000Y-91690000D01*
X139660000Y-91210000D01*
X139990000Y-91450000D01*
G36*
X139990000Y-91450000D02*
G01*
X139660000Y-91690000D01*
X139660000Y-91210000D01*
X139990000Y-91450000D01*
G37*
%TO.C,R9*%
X144096359Y-88120000D02*
X144403641Y-88120000D01*
X144096359Y-88880000D02*
X144403641Y-88880000D01*
%TO.C,C13*%
X135990000Y-85905580D02*
X135990000Y-85624420D01*
X137010000Y-85905580D02*
X137010000Y-85624420D01*
%TO.C,R8*%
X144920000Y-91343641D02*
X144920000Y-91036359D01*
X145680000Y-91343641D02*
X145680000Y-91036359D01*
%TO.C,R12*%
X145520000Y-97683641D02*
X145520000Y-97376359D01*
X146280000Y-97683641D02*
X146280000Y-97376359D01*
%TO.C,U1*%
X137890000Y-106890000D02*
X138540000Y-106890000D01*
X137890000Y-107540000D02*
X137890000Y-106890000D01*
X137890000Y-114110000D02*
X137890000Y-113460000D01*
X138540000Y-114110000D02*
X137890000Y-114110000D01*
X144460000Y-106890000D02*
X145110000Y-106890000D01*
X145110000Y-106890000D02*
X145110000Y-107540000D01*
X145110000Y-113460000D02*
X145110000Y-114110000D01*
X145110000Y-114110000D02*
X144460000Y-114110000D01*
X137360000Y-107900000D02*
X137030000Y-108140000D01*
X137030000Y-107660000D01*
X137360000Y-107900000D01*
G36*
X137360000Y-107900000D02*
G01*
X137030000Y-108140000D01*
X137030000Y-107660000D01*
X137360000Y-107900000D01*
G37*
%TO.C,C1*%
X135515000Y-106882836D02*
X135515000Y-106667164D01*
X136235000Y-106882836D02*
X136235000Y-106667164D01*
%TO.C,JP1*%
X140100000Y-97800000D02*
X140100000Y-97200000D01*
X140800000Y-96500000D02*
X142200000Y-96500000D01*
X142200000Y-98500000D02*
X140800000Y-98500000D01*
X142900000Y-97200000D02*
X142900000Y-97800000D01*
X140100000Y-97200000D02*
G75*
G02*
X140800000Y-96500000I700000J0D01*
G01*
X140800000Y-98500000D02*
G75*
G02*
X140100000Y-97800000I0J700000D01*
G01*
X142200000Y-96500000D02*
G75*
G02*
X142900000Y-97200000I1J-699999D01*
G01*
X142900000Y-97800000D02*
G75*
G02*
X142200000Y-98500000I-699999J-1D01*
G01*
%TO.C,C12*%
X143840000Y-105087836D02*
X143840000Y-104872164D01*
X144560000Y-105087836D02*
X144560000Y-104872164D01*
%TO.C,C19*%
X144102164Y-84890000D02*
X144317836Y-84890000D01*
X144102164Y-85610000D02*
X144317836Y-85610000D01*
%TO.C,C18*%
X142932164Y-86640000D02*
X143147836Y-86640000D01*
X142932164Y-87360000D02*
X143147836Y-87360000D01*
%TO.C,J5*%
X137830000Y-92870000D02*
X137830000Y-95630000D01*
X143020000Y-92870000D02*
X137830000Y-92870000D01*
X143020000Y-92870000D02*
X143020000Y-95630000D01*
X143020000Y-95630000D02*
X137830000Y-95630000D01*
X144290000Y-92870000D02*
X145670000Y-92870000D01*
X145670000Y-92870000D02*
X145670000Y-94250000D01*
D10*
%TO.C,D1*%
X138050000Y-86105000D02*
G75*
G02*
X137950000Y-86105000I-50000J0D01*
G01*
X137950000Y-86105000D02*
G75*
G02*
X138050000Y-86105000I50000J0D01*
G01*
D15*
%TO.C,C6*%
X146369190Y-106721693D02*
X146521693Y-106569190D01*
X146878307Y-107230810D02*
X147030810Y-107078307D01*
%TO.C,C7*%
X147462164Y-111140000D02*
X147677836Y-111140000D01*
X147462164Y-111860000D02*
X147677836Y-111860000D01*
%TO.C,C17*%
X140240000Y-100857836D02*
X140240000Y-100642164D01*
X140960000Y-100857836D02*
X140960000Y-100642164D01*
%TO.C,C15*%
X138140000Y-118392164D02*
X138140000Y-118607836D01*
X138860000Y-118392164D02*
X138860000Y-118607836D01*
%TO.C,Q1*%
X140177500Y-83940000D02*
X141697500Y-83940000D01*
X140177500Y-83990000D02*
X140177500Y-83940000D01*
X140177500Y-85890000D02*
X140177500Y-85110000D01*
X140177500Y-87060000D02*
X140177500Y-87010000D01*
X141697500Y-83940000D02*
X141697500Y-84940000D01*
X141697500Y-86060000D02*
X141697500Y-87060000D01*
X141697500Y-87060000D02*
X140177500Y-87060000D01*
X139877500Y-85450000D02*
X139397500Y-85450000D01*
X139637500Y-85120000D01*
X139877500Y-85450000D01*
G36*
X139877500Y-85450000D02*
G01*
X139397500Y-85450000D01*
X139637500Y-85120000D01*
X139877500Y-85450000D01*
G37*
%TO.C,R4*%
X142820000Y-105203641D02*
X142820000Y-104896359D01*
X143580000Y-105203641D02*
X143580000Y-104896359D01*
%TO.C,R3*%
X141820000Y-104896359D02*
X141820000Y-105203641D01*
X142580000Y-104896359D02*
X142580000Y-105203641D01*
%TO.C,R10*%
X143270000Y-97413641D02*
X143270000Y-97106359D01*
X144030000Y-97413641D02*
X144030000Y-97106359D01*
%TO.C,R7*%
X135270000Y-99071359D02*
X135270000Y-99378641D01*
X136030000Y-99071359D02*
X136030000Y-99378641D01*
%TO.C,R5*%
X141893641Y-115620000D02*
X141586359Y-115620000D01*
X141893641Y-116380000D02*
X141586359Y-116380000D01*
%TD*%
M02*
